<svg xmlns="http://www.w3.org/2000/svg" viewBox="0 0 376.23 149.16"><defs><style>.a{fill:none;stroke:#7f7f7f;stroke-miterlimit:10;}.b{fill:#7f7f7f;}</style></defs><path class="a" d="M373.73,1c-2.55,8.84-7,17.33-10.88,25.63-5.41,11.45-11.3,22.8-17.67,33.74-4.74,8.15-9.54,16.27-14.33,24.38-1.43,2.41-6.17,7.28-6,10.44" transform="translate(-0.32)"/><path class="b" d="M5.64,121.35q2.73.86,2.73,1.53v.3l-.3.45a3.53,3.53,0,0,1-2-.61H5c-1.92.7-2.89,2.48-2.89,5.32v.3c0,.11-.05.16-.15.16l.15.3v1.37a1.22,1.22,0,0,0,.16.6,1.19,1.19,0,0,0-.16.46c.26,1.31.51,2,.76,2l-.16.32a4.23,4.23,0,0,0,1.67,2.58c1.62,0,3.24-1,4.87-2.9a.91.91,0,0,1,.76-.89h.16c.37,0,.62.6.75,1.81q-3.39,3.5-4.85,3.5L5,138.2q-3.32,0-4.41-5.92l-.3-3,.15-.92L.32,128c.61-3.24,1.16-4.85,1.67-4.85C2.58,122,3.8,121.35,5.64,121.35Z" transform="translate(-0.32)"/><path class="b" d="M12,119h.54q1.09,0,1.28,6,0,1.42-.19,6.75a2.08,2.08,0,0,0-.37,1.09v1.83c.08.73.27,1.09.56,1.09a52.37,52.37,0,0,1,3.82-4.92h.19q-2.37,6.55-4.74,6.55A5.25,5.25,0,0,1,11.81,136v-1.46c0-.13.07-.19.2-.19l-.2-.37.2-1.26-.2-.74a29.92,29.92,0,0,0,.57-6,37.51,37.51,0,0,0-.74-6.74Z" transform="translate(-0.32)"/><path class="b" d="M18.32,122h1.09c1.58.87,2.37,1.54,2.37,2l.72.91V125c0,.28-.3.46-.91.54q-.37-.66-3.64-2.54v-.74A.35.35,0,0,1,18.32,122Zm2.9,6.55q1.65,0,1.65,1.83l.17,1.81c-.17,3.05-.53,4.57-1.08,4.57h-.18q-1.11-.63-1.11-1.11l.2-.35-.2-.37a8.13,8.13,0,0,0,.55-3.46v-.19a3.32,3.32,0,0,0-.55-2.18A.48.48,0,0,0,21.22,128.5Z" transform="translate(-0.32)"/><path class="b" d="M27.16,123.49q3.89,0,5.29,2.18V126c0,.18-.18.36-.55.55h-.19a11.49,11.49,0,0,0-2.92-1.09h-.54q-2.25,0-3.1,4.74A1.53,1.53,0,0,0,25,131c0,1.24.78,2.4,2.35,3.47h1.11c0-.22.67-.64,2-1.29,0-.36.42-.91,1.26-1.63h.55a1.22,1.22,0,0,1,.73,1.28V133c-1.6,2.06-3.31,3.09-5.11,3.09q-3.4,0-4.73-4.92v-1.09a23.85,23.85,0,0,0,.91-3.64c1.16-1.71,2.2-2.62,3.1-2.74Z" transform="translate(-0.32)"/><path class="b" d="M34.15,121.49h.55c.16,0,.47.3.91.91v4.38a1.43,1.43,0,0,0,.18.72,1.47,1.47,0,0,0-.18.74v.35l.18,1.11a1.29,1.29,0,0,0-.18.54h.18c.55,0,1.7-.73,3.46-2.2h.37c.25,0,.37.16.37.37v.72a12.41,12.41,0,0,1-2.92,2v.19c.41.51,1.63,1,3.64,1.46l.19.37v.54q0,.36-.54.36l.18.37-.37.17-4-1.63H36c0,.49-.06.73-.19.73l.19.9v2a1.5,1.5,0,0,1-.91,1.44h-.19l-.9-.72.17-.91v-2a.16.16,0,0,1,.18-.18l-.18-.37v-3.83c0-.61,0-1.52-.17-2.73h.17L34,127v-.72c0-1-.07-2.55-.19-4.57Z" transform="translate(-0.32)"/><path class="b" d="M52.79,124.67c1.1,0,1.65.67,1.65,2l.35-.17a5.7,5.7,0,0,1,2.57,1.09l1.63-2h.18q2.05,0,2.37,5.12v.35h-.17l.17.37v1.46a1.43,1.43,0,0,0,.18.72q-.37,1.11-.72,1.11h-.37c-.19,0-.43-.25-.72-.74v-4.38a12.75,12.75,0,0,0-.37-2.35h-.37a17.6,17.6,0,0,0-1.81,6l-.92.54-.54-.74a28.09,28.09,0,0,1,.54-3.81c-.23-.56-.48-.87-.73-.91h-.18q-.78,0-1.83,6.55H53c-.25,0-.49-.36-.74-1.09q0-.64.92-5.46c0-.13-.19-1.11-.55-2.92V125Z" transform="translate(-0.32)"/><path class="b" d="M65.39,125.18a3,3,0,0,1,2.92,2.18v.74q0,2.29-4.55,4.92c0,1.57.42,2.35,1.26,2.35a7.42,7.42,0,0,0,4.2-4c-.13,0-.19-.06-.19-.18a4.33,4.33,0,0,0,.91-.72h.2c.59.32.89.56.89.72v.92l-1.63,2c-1.67,2.06-3.12,3.09-4.38,3.09a3,3,0,0,1-2.55-1.46H62.3v-.37a14.94,14.94,0,0,0-.92-3.26l.37-1.83c0-.12-.06-.18-.19-.18Q61.56,125.18,65.39,125.18Zm-2,4.73.17.37a1.56,1.56,0,0,0-.17.74h.54a8,8,0,0,0,2.74-2.57c0-1.09-.42-1.64-1.28-1.64h-.54C64.39,126.81,63.9,127.85,63.39,129.91Z" transform="translate(-0.32)"/><path class="b" d="M88.47,116.27h.18c1.09.16,1.63.71,1.63,1.65v1.27a.15.15,0,0,1-.17.17c0,.13,0,.19.17.19a1.44,1.44,0,0,1-.17.55c.11,1.21.17,2.11.17,2.72a7.53,7.53,0,0,1-.91,3.29v.74a2,2,0,0,0,.56,1.27l-.19,1.08q0,2.13,2.37,5.3v.17a1.24,1.24,0,0,1-1.28.74q-1.58,0-2.92-4.92h-.18q-2,6-4.92,6a3.91,3.91,0,0,1-2.55-2l.18-.37a.31.31,0,0,0-.35-.35A17.15,17.15,0,0,1,83,126.29c.7-.85,1.12-1.27,1.27-1.27h.37a8.75,8.75,0,0,1,2.72.55V123a1.39,1.39,0,0,1,.2-.74,1.34,1.34,0,0,1-.2-.72v-1.09A20.49,20.49,0,0,1,88.47,116.27ZM85,126.66a12,12,0,0,0-3.11,5.83V134a1.29,1.29,0,0,1,.37.72h.91A11.83,11.83,0,0,0,86.64,129c.19-.61.37-.91.55-.91A2.51,2.51,0,0,0,85,126.66Z" transform="translate(-0.32)"/><path class="b" d="M91.44,122h1.09c1.58.87,2.37,1.54,2.37,2l.72.91V125c0,.28-.3.46-.91.54q-.37-.66-3.64-2.54v-.74C91.11,122.06,91.23,122,91.44,122Zm2.9,6.55q1.65,0,1.65,1.83l.18,1.81c-.18,3.05-.54,4.57-1.09,4.57H94.9c-.73-.42-1.1-.79-1.1-1.11l.19-.35-.19-.37a8.32,8.32,0,0,0,.54-3.46v-.19a3.39,3.39,0,0,0-.54-2.18A.48.48,0,0,0,94.34,128.5Z" transform="translate(-0.32)"/><path class="b" d="M101.92,124.49c1.56,0,2.53.55,2.92,1.64-.18.48-.36.72-.55.72h-.54l-.72-.55h-.55c-.57,0-1.25,1.77-2,5.3-.07,2.3-.43,3.46-1.09,3.46-.16,0-.47-.31-.91-.92v-.91l.56-2.72c0-1.63-.92-3.15-2.74-4.56v-.19c.11-.36.48-.55,1.09-.55h.36c1.34,1,2,1.77,2,2.38.16,0,.77-1,1.83-2.92Z" transform="translate(-0.32)"/><path class="b" d="M108.51,125.18a3,3,0,0,1,2.92,2.18v.74q0,2.29-4.55,4.92c0,1.57.42,2.35,1.26,2.35a7.42,7.42,0,0,0,4.2-4c-.13,0-.19-.06-.19-.18a4.33,4.33,0,0,0,.91-.72h.2c.59.32.89.56.89.72v.92l-1.63,2q-2.51,3.09-4.38,3.09a3,3,0,0,1-2.55-1.46h-.17v-.37a14.94,14.94,0,0,0-.92-3.26l.37-1.83c0-.12-.06-.18-.19-.18Q104.68,125.18,108.51,125.18Zm-2,4.73.17.37a1.45,1.45,0,0,0-.17.74h.54a8,8,0,0,0,2.74-2.57c0-1.09-.42-1.64-1.28-1.64H108C107.51,126.81,107,127.85,106.51,129.91Z" transform="translate(-0.32)"/><path class="b" d="M117.81,123.49q3.89,0,5.29,2.18V126c0,.18-.18.36-.55.55h-.19a11.49,11.49,0,0,0-2.92-1.09h-.54q-2.25,0-3.1,4.74a1.53,1.53,0,0,0-.17.72c0,1.24.78,2.4,2.35,3.47h1.11c0-.22.67-.64,2-1.29,0-.36.42-.91,1.26-1.63h.55a1.22,1.22,0,0,1,.73,1.28V133c-1.6,2.06-3.31,3.09-5.11,3.09q-3.41,0-4.73-4.92v-1.09a23.85,23.85,0,0,0,.91-3.64c1.17-1.71,2.2-2.62,3.1-2.74Z" transform="translate(-0.32)"/><path class="b" d="M129,118.52c.61.15.92.33.92.54a.16.16,0,0,1-.18.18l.18.37c-.1,1.58-.22,2.37-.37,2.37,0,.12.06.18.19.18a33.29,33.29,0,0,0-.37,3.65c.12,0,.18-.06.18-.19l.91.19h1.46c.25,0,.37.15.37.35,0,.54-1,1-2.92,1.46a46.69,46.69,0,0,1-.91,7.3h.37c.34,0,1.31-1,2.92-2.92a6.38,6.38,0,0,0,1.09-1.09c0,.12.05.18.17.18-2,4-3.75,6-5.27,6l-.74-.72v-.55a51.35,51.35,0,0,0,.74-7.84l-1.29.18h-1.28q-.24,0-.72-.9c0-.24,1.1-.61,3.29-1.11l.54-2c0-.12-.06-.18-.19-.18Q128.36,118.52,129,118.52Z" transform="translate(-0.32)"/><path class="b" d="M134.09,119h.54q1.1,0,1.28,6,0,1.42-.19,6.75a2.08,2.08,0,0,0-.37,1.09v1.83c.08.73.27,1.09.56,1.09a52.37,52.37,0,0,1,3.82-4.92h.19q-2.37,6.55-4.74,6.55a5.25,5.25,0,0,1-1.29-1.44v-1.46c0-.13.07-.19.2-.19l-.2-.37.2-1.26-.2-.74a29.92,29.92,0,0,0,.57-6,37.51,37.51,0,0,0-.74-6.74Z" transform="translate(-0.32)"/><path class="b" d="M142.75,125.16a2.29,2.29,0,0,1,.6,1.43l-.19,1.19.19.41-.19.4.19.4-.19.41c0,.14.06.21.19.21l-.19,1.41v1.61h.19q1.5-.72,2.83-5.25l.6-.41H147c.27,0,.53.41.79,1.22-.18.94-.44,1.42-.79,1.42l.19.39c-.1,1.61-.24,2.42-.4,2.42l.21.41v1.4a11,11,0,0,0,.19,2,6,6,0,0,0-.19,1.41,1.59,1.59,0,0,0,.19.62l-.19,1.19v.21a1.62,1.62,0,0,0,.19.81c-.13,1.07-.26,1.6-.4,1.6a.19.19,0,0,0,.21.21,4.21,4.21,0,0,1-.62,2v1.83l-1,2.62a3.3,3.3,0,0,1-1.62.41h-.59a9.2,9.2,0,0,1-2.83-2.83,1.58,1.58,0,0,0,.21-.81h.19c1,1.2,1.94,1.81,2.83,1.81h.19c0-.67.17-1,.41-1l-.2-.41.41-.6-.21-.4a33.29,33.29,0,0,0,1.21-5.64,1.58,1.58,0,0,1-.21-.81h.21c0-.13-.07-.19-.21-.19a1.4,1.4,0,0,1,.21-.62c-.14-1.37-.21-2.44-.21-3.22v-.61l-.79-.2q0,.33-.81.81H143c-.94-.56-1.41-1-1.41-1.21v-4.64l-.19-1h.19l-.19-.41v-.81l.19-.4a.17.17,0,0,1-.19-.19A2.74,2.74,0,0,1,142.75,125.16Z" transform="translate(-0.32)"/><path class="b" d="M163.28,118.52c.61.15.92.33.92.54a.16.16,0,0,1-.18.18l.18.37c-.1,1.58-.22,2.37-.37,2.37s.06.18.19.18a33.29,33.29,0,0,0-.37,3.65c.12,0,.18-.06.18-.19l.91.19h1.46c.25,0,.37.15.37.35,0,.54-1,1-2.92,1.46a46.69,46.69,0,0,1-.91,7.3h.37c.34,0,1.31-1,2.92-2.92a6.38,6.38,0,0,0,1.09-1.09c0,.12,0,.18.17.18-2,4-3.75,6-5.27,6l-.74-.72v-.55A51.35,51.35,0,0,0,162,128l-1.29.18h-1.28q-.24,0-.72-.9c0-.24,1.1-.61,3.29-1.11l.54-2c0-.12-.06-.18-.19-.18Q162.69,118.52,163.28,118.52Z" transform="translate(-0.32)"/><path class="b" d="M170.79,126.06q5.84,0,5.83,2.37v1.09q-.63,3.19-4.55,7.47a3.55,3.55,0,0,1-1.83.55h-.17c-1.34-.92-2-1.83-2-2.75Q169.25,126.06,170.79,126.06Zm.37,1.63a20.9,20.9,0,0,0-1.64,5.1h-.19c.18,2.19.55,3.29,1.11,3.29h.35c1.73-.75,3.25-2.76,4.55-6v-1.83a6.23,6.23,0,0,0-2-.55Z" transform="translate(-0.32)"/><path class="b" d="M192,123.49c2.59,0,4.36.73,5.29,2.18V126c0,.18-.18.36-.54.55h-.19a11.64,11.64,0,0,0-2.92-1.09H193q-2.25,0-3.09,4.74a1.43,1.43,0,0,0-.18.72c0,1.24.79,2.4,2.36,3.47h1.11c0-.22.66-.64,2-1.29,0-.36.42-.91,1.27-1.63h.54a1.23,1.23,0,0,1,.74,1.28V133c-1.61,2.06-3.31,3.09-5.12,3.09-2.27,0-3.85-1.64-4.72-4.92v-1.09a25.19,25.19,0,0,0,.91-3.64c1.16-1.71,2.19-2.62,3.09-2.74Z" transform="translate(-0.32)"/><path class="b" d="M204.21,124.49c1.55,0,2.53.55,2.91,1.64q-.26.72-.54.72H206l-.72-.55h-.54q-.87,0-2,5.3c-.07,2.3-.44,3.46-1.09,3.46-.17,0-.47-.31-.92-.92v-.91l.56-2.72q0-2.44-2.74-4.56v-.19c.12-.36.48-.55,1.09-.55H200c1.34,1,2,1.77,2,2.38.16,0,.77-1,1.82-2.92Z" transform="translate(-0.32)"/><path class="b" d="M210.8,125.18a3,3,0,0,1,2.91,2.18v.74c0,1.53-1.51,3.17-4.55,4.92,0,1.57.42,2.35,1.27,2.35a7.48,7.48,0,0,0,4.2-4c-.13,0-.19-.06-.19-.18a4.33,4.33,0,0,0,.91-.72h.19q.9.48.9.72v.92l-1.64,2q-2.49,3.09-4.37,3.09a3,3,0,0,1-2.55-1.46h-.18v-.37a14.66,14.66,0,0,0-.91-3.26l.37-1.83c0-.12-.07-.18-.2-.18Q207,125.18,210.8,125.18Zm-2,4.73.18.37a1.45,1.45,0,0,0-.18.74h.55a8.09,8.09,0,0,0,2.74-2.57c0-1.09-.43-1.64-1.28-1.64h-.55C209.79,126.81,209.31,127.85,208.79,129.91Z" transform="translate(-0.32)"/><path class="b" d="M219.81,124.16a7.17,7.17,0,0,1,4.22,2.55L222.89,130a.11.11,0,0,0,.12.12l-.12.9c0,2,.29,2.94.88,2.94s1,.17,1,.51a1,1,0,0,1-.76,1c-.64,0-1.41-.51-2.3-1.53a1.88,1.88,0,0,0-.39-1.41h.27c0-.18-.09-.26-.27-.26-1.13,2-2.19,3.05-3.18,3.05s-1.52-.89-1.77-2.67l.12-.26a.11.11,0,0,0-.12-.12l.12-.9v-2.8l.12-.26a.11.11,0,0,1-.12-.12q.11,0,.63-1.14l-.12-.27v-.24l.51-.78a.11.11,0,0,1-.12-.12q.41-.12.75-.9A6,6,0,0,1,219.81,124.16Zm-2,5v1.53a1.07,1.07,0,0,1-.13.51,1.14,1.14,0,0,1,.13.51v.13c0,.08-.05.12-.13.12.23,1.45.48,2.18.78,2.18s.58-.38,1.14-1.14h.12v-.14l-.12-.25a10.39,10.39,0,0,0,2.67-5.36v-.76l-2-1c-1,0-1.72,1-2.16,2.92A1.12,1.12,0,0,1,217.78,129.13Z" transform="translate(-0.32)"/><path class="b" d="M230.4,118.52c.61.15.91.33.91.54a.16.16,0,0,1-.18.18l.18.37c-.09,1.58-.22,2.37-.37,2.37a.17.17,0,0,0,.19.18,32.5,32.5,0,0,0-.36,3.65c.11,0,.17-.06.17-.19l.92.19h1.45c.25,0,.37.15.37.35,0,.54-1,1-2.91,1.46a46.24,46.24,0,0,1-.92,7.3h.37c.34,0,1.31-1,2.92-2.92a6.38,6.38,0,0,0,1.09-1.09c0,.12.06.18.17.18-2,4-3.75,6-5.27,6l-.74-.72v-.55a50.08,50.08,0,0,0,.74-7.84l-1.28.18h-1.29q-.24,0-.72-.9c0-.24,1.1-.61,3.29-1.11l.55-2c0-.12-.07-.18-.2-.18Q229.8,118.52,230.4,118.52Z" transform="translate(-0.32)"/><path class="b" d="M238.08,125.18a3,3,0,0,1,2.92,2.18v.74q0,2.29-4.56,4.92c0,1.57.43,2.35,1.27,2.35a7.48,7.48,0,0,0,4.2-4c-.13,0-.19-.06-.19-.18a4.33,4.33,0,0,0,.91-.72h.19q.9.48.9.72v.92l-1.63,2q-2.51,3.09-4.38,3.09a3,3,0,0,1-2.55-1.46H235v-.37a14.66,14.66,0,0,0-.91-3.26l.37-1.83c0-.12-.06-.18-.19-.18C234.25,126.82,235.52,125.18,238.08,125.18Zm-2,4.73.18.37a1.45,1.45,0,0,0-.18.74h.55a8.09,8.09,0,0,0,2.74-2.57c0-1.09-.43-1.64-1.28-1.64h-.55C237.08,126.81,236.59,127.85,236.07,129.91Z" transform="translate(-0.32)"/><path class="b" d="M257.64,124.16a7.2,7.2,0,0,1,4.22,2.55L260.72,130a.11.11,0,0,0,.12.12l-.12.9c0,2,.29,2.94.88,2.94s1,.17,1,.51a1,1,0,0,1-.76,1c-.64,0-1.41-.51-2.3-1.53a1.88,1.88,0,0,0-.39-1.41h.27c0-.18-.09-.26-.27-.26-1.13,2-2.2,3.05-3.18,3.05s-1.52-.89-1.78-2.67l.13-.26c0-.08,0-.12-.13-.12l.13-.9v-2.8l.12-.26a.11.11,0,0,1-.12-.12q.1,0,.63-1.14l-.12-.27v-.24l.51-.78c-.08,0-.13,0-.13-.12.27-.08.53-.38.76-.9A5.89,5.89,0,0,1,257.64,124.16Zm-2,5v1.53a1.07,1.07,0,0,1-.12.51,1.13,1.13,0,0,1,.12.51v.13a.11.11,0,0,1-.12.12c.22,1.45.48,2.18.77,2.18s.58-.38,1.15-1.14h.12v-.14l-.12-.25a10.54,10.54,0,0,0,2.67-5.36v-.76l-2-1c-1,0-1.72,1-2.16,2.92A1.08,1.08,0,0,1,255.6,129.13Z" transform="translate(-0.32)"/><path class="b" d="M279.88,124.49c1.56,0,2.53.55,2.92,1.64-.18.48-.36.72-.55.72h-.54l-.72-.55h-.55c-.57,0-1.25,1.77-2,5.3-.07,2.3-.43,3.46-1.09,3.46-.16,0-.47-.31-.91-.92v-.91l.56-2.72c0-1.63-.92-3.15-2.74-4.56v-.19c.11-.36.48-.55,1.09-.55h.37c1.33,1,2,1.77,2,2.38.16,0,.77-1,1.83-2.92Z" transform="translate(-0.32)"/><path class="b" d="M287.3,124.16a7.2,7.2,0,0,1,4.22,2.55L290.37,130c0,.08,0,.12.13.12l-.13.9c0,2,.3,2.94.88,2.94s1,.17,1,.51a1,1,0,0,1-.75,1q-1,0-2.31-1.53a1.93,1.93,0,0,0-.38-1.41h.26a.23.23,0,0,0-.26-.26c-1.14,2-2.2,3.05-3.19,3.05s-1.51-.89-1.77-2.67l.12-.26a.11.11,0,0,0-.12-.12l.12-.9v-2.8l.13-.26c-.09,0-.13,0-.13-.12s.28-.38.63-1.14l-.12-.27v-.24l.51-.78a.11.11,0,0,1-.12-.12q.41-.12.75-.9A5.94,5.94,0,0,1,287.3,124.16Zm-2,5v1.53a1,1,0,0,1-.13.51,1,1,0,0,1,.13.51v.13c0,.08,0,.12-.13.12.23,1.45.49,2.18.78,2.18s.58-.38,1.14-1.14h.12v-.14l-.12-.25a10.39,10.39,0,0,0,2.67-5.36v-.76l-2-1c-1,0-1.71,1-2.16,2.92A1.12,1.12,0,0,1,285.26,129.13Z" transform="translate(-0.32)"/><path class="b" d="M297.9,125.87h.37c1.48,0,2.33,1,2.54,2.91-.11,2.46-.17,4.16-.17,5.1.24.05.37.17.37.37v.54c0,.25-.37.5-1.11.74a1.9,1.9,0,0,1-1.09-.91v-1.28a.17.17,0,0,1,.19-.18c0-.12-.06-.18-.19-.18a35.24,35.24,0,0,0,.37-5.11,2.14,2.14,0,0,0-1.09-.55q-2.2.62-2.2,4.38c-.27,2.56-.63,3.83-1.09,3.83,0,.12-.06.18-.17.18h-.2q-.27,0-.72-.72v-.92a18.72,18.72,0,0,1,.72-4.2,5,5,0,0,0-1.09-2.55v-.72c0-.24.16-.37.37-.37a2.76,2.76,0,0,1,1.64.92A3.54,3.54,0,0,1,297.9,125.87Z" transform="translate(-0.32)"/><path class="b" d="M309,116.27h.18c1.09.16,1.63.71,1.63,1.65v1.27a.15.15,0,0,1-.17.17c0,.13.06.19.17.19a1.28,1.28,0,0,1-.17.55c.12,1.21.17,2.11.17,2.72a7.53,7.53,0,0,1-.91,3.29v.74a2.06,2.06,0,0,0,.56,1.27l-.19,1.08q0,2.13,2.37,5.3v.17a1.23,1.23,0,0,1-1.28.74c-1,0-2-1.64-2.92-4.92h-.17q-2,6-4.93,6a3.91,3.91,0,0,1-2.55-2l.18-.37a.31.31,0,0,0-.35-.35,17.17,17.17,0,0,1,2.92-7.49c.69-.85,1.11-1.27,1.26-1.27h.37a8.8,8.8,0,0,1,2.73.55V123a1.38,1.38,0,0,1,.19-.74,1.34,1.34,0,0,1-.19-.72v-1.09A20,20,0,0,1,309,116.27Zm-3.46,10.39a12,12,0,0,0-3.11,5.83V134a1.23,1.23,0,0,1,.37.72h.91A11.92,11.92,0,0,0,307.2,129c.18-.61.36-.91.54-.91A2.5,2.5,0,0,0,305.56,126.66Z" transform="translate(-0.32)"/><path class="b" d="M315,126.06q5.84,0,5.83,2.37v1.09q-.63,3.19-4.55,7.47a3.55,3.55,0,0,1-1.83.55h-.17c-1.34-.92-2-1.83-2-2.75Q313.47,126.06,315,126.06Zm.37,1.63a20.9,20.9,0,0,0-1.64,5.1h-.19c.17,2.19.54,3.29,1.11,3.29H315c1.73-.75,3.25-2.76,4.55-6v-1.83a6.29,6.29,0,0,0-2-.55Z" transform="translate(-0.32)"/><path class="b" d="M322.17,124.67c1.1,0,1.65.67,1.65,2l.36-.17a5.66,5.66,0,0,1,2.56,1.09l1.64-2h.17q2.06,0,2.38,5.12v.35h-.18l.18.37v1.46a1.42,1.42,0,0,0,.17.72q-.36,1.11-.72,1.11H330c-.19,0-.43-.25-.72-.74v-4.38a11.93,11.93,0,0,0-.37-2.35h-.37a17.83,17.83,0,0,0-1.81,6l-.91.54-.55-.74a26.47,26.47,0,0,1,.55-3.81c-.24-.56-.48-.87-.74-.91h-.18q-.77,0-1.82,6.55h-.72c-.25,0-.5-.36-.74-1.09q0-.64.91-5.46c0-.13-.18-1.11-.54-2.92V125Z" transform="translate(-0.32)"/><path class="b" d="M346.43,123.49q3.88,0,5.29,2.18V126c0,.18-.18.36-.54.55H351a11.36,11.36,0,0,0-2.92-1.09h-.54q-2.25,0-3.09,4.74a1.43,1.43,0,0,0-.18.72c0,1.24.79,2.4,2.36,3.47h1.1c0-.22.67-.64,2-1.29,0-.36.42-.91,1.26-1.63h.55a1.23,1.23,0,0,1,.74,1.28V133c-1.61,2.06-3.31,3.09-5.12,3.09q-3.4,0-4.73-4.92v-1.09a24.71,24.71,0,0,0,.92-3.64c1.16-1.71,2.19-2.62,3.09-2.74Z" transform="translate(-0.32)"/><path class="b" d="M355.94,125.18a3,3,0,0,1,2.92,2.18v.74q0,2.29-4.56,4.92c0,1.57.43,2.35,1.27,2.35a7.42,7.42,0,0,0,4.2-4c-.13,0-.19-.06-.19-.18a4.33,4.33,0,0,0,.91-.72h.2c.59.32.89.56.89.72v.92l-1.63,2q-2.51,3.09-4.38,3.09a3,3,0,0,1-2.55-1.46h-.17v-.37a14.94,14.94,0,0,0-.92-3.26l.37-1.83c0-.12-.06-.18-.19-.18C352.11,126.82,353.38,125.18,355.94,125.18Zm-2,4.73.17.37a1.45,1.45,0,0,0-.17.74h.54a8,8,0,0,0,2.74-2.57c0-1.09-.43-1.64-1.28-1.64h-.55C354.94,126.81,354.45,127.85,353.94,129.91Z" transform="translate(-0.32)"/><path class="b" d="M361.58,119h.55q1.08,0,1.28,6,0,1.42-.19,6.75a2.08,2.08,0,0,0-.37,1.09v1.83c.08.73.27,1.09.56,1.09a53.65,53.65,0,0,1,3.81-4.92h.2c-1.58,4.37-3.17,6.55-4.75,6.55a5.14,5.14,0,0,1-1.28-1.44v-1.46a.17.17,0,0,1,.19-.19l-.19-.37.19-1.26-.19-.74a30.69,30.69,0,0,0,.56-6,36.61,36.61,0,0,0-.74-6.74Z" transform="translate(-0.32)"/><path class="b" d="M368.54,119h.55q1.08,0,1.28,6,0,1.42-.19,6.75a2.08,2.08,0,0,0-.37,1.09v1.83c.08.73.27,1.09.56,1.09a52.37,52.37,0,0,1,3.82-4.92h.19c-1.58,4.37-3.17,6.55-4.75,6.55a5.14,5.14,0,0,1-1.28-1.44v-1.46a.17.17,0,0,1,.19-.19l-.19-.37.19-1.26-.19-.74a30.69,30.69,0,0,0,.56-6,36.61,36.61,0,0,0-.74-6.74Z" transform="translate(-0.32)"/><path class="a" d="M362,13.23c2.28-2,4.28-4.73,6.25-7,1.53-1.74,3.83-5.87,6.39-5.75.5,2.35.17,5.09.14,7.48,0,2.85,1.64,6.06,1.17,8.74" transform="translate(-0.32)"/></svg>