<svg xmlns="http://www.w3.org/2000/svg" viewBox="0 0 341.83 146.33"><defs><style>.a{fill:none;stroke:#7f7f7f;stroke-miterlimit:10;}.b{fill:#7f7f7f;}</style></defs><path class="a" d="M345.35,1c-2.56,8.84-7,17.33-10.89,25.63-5.41,11.45-11.29,22.8-17.66,33.74q-7.12,12.23-14.34,24.38c-1.42,2.41-6.16,7.28-5.95,10.44" transform="translate(-6.33)"/><path class="b" d="M15.61,113H16c.27,0,.41.17.41.4v1a7.88,7.88,0,0,1-.62,2,.18.18,0,0,1,.21.2,22.63,22.63,0,0,1,3.8-1.39,1.94,1.94,0,0,0,.39.6c0,.39-1.8,1.39-5.38,3a5,5,0,0,0-.81,2h.21a7,7,0,0,1,3.39-1q1.8,0,1.8,5v14.17l-.2.4c.13,0,.2.06.2.19a26.78,26.78,0,0,1,4.58-.38h.6c.8.08,1.2.28,1.2.59v.2q0,1.14-19.08,2.6l-.38-.6v-.21q.15-.66,6.08-1.19a37.56,37.56,0,0,1-.79-5.79,2.14,2.14,0,0,0,.4-1c.13-5.61.2-8.81.2-9.58h.19c-.26-.67-.46-1-.6-1a26.1,26.1,0,0,1,1-3.59h-.19A20,20,0,0,1,8,121H7.82c-.19,0-.38-.2-.6-.6.49-.52,2.68-1.52,6.6-3C14.68,114.45,15.28,113,15.61,113Zm-2.2,25.15-.19,2h.19c3.33-.16,5-.43,5-.79a15.45,15.45,0,0,1-.59-4.18v-.81h-.2c-2.8.67-4.2,1.26-4.2,1.79Zm2-11.18h-1.2q-.41,0-.6,2.4a.18.18,0,0,1,.2.21,4.77,4.77,0,0,1,2.19-.41h1.8v-2.39Zm-1.8,4.19v2.2l.2.4c2.66-.59,4-1,4-1.2v-2.19c0-.27-.2-.41-.6-.41A16.54,16.54,0,0,1,13.62,131.14Zm.39-8.77v3H17.4c.27,0,.41-.2.41-.6a15.35,15.35,0,0,0-.41-3.39A12.8,12.8,0,0,0,14,122.37Z" transform="translate(-6.33)"/><path class="b" d="M43.15,119.12q.72,0,.81,1.77c.53,1.49,1,2.23,1.43,2.23a4.17,4.17,0,0,0,1,.35.55.55,0,0,1,.14.36v0c0,.39-.94,1.08-2.83,2.07a7.09,7.09,0,0,0,0,.71v1.67a0,0,0,0,1,0,0,0,0,0,0,0,0,.05l0,.51v1.67h0c1.52-.81,2.32-1.21,2.37-1.21l.11.14c-.09.13-.94.87-2.53,2.23a.5.5,0,0,0-.05.27c0,.86.07,3.75.21,8.64a1.64,1.64,0,0,0,.05.3l-.05.11c0,.07,0,.1.05.1,0,1.71-.21,2.68-.62,2.89a.74.74,0,0,1-.4.1H42.5q-.69,0-2.63-4.41a14.64,14.64,0,0,0-1.73-2.32,7.23,7.23,0,0,0-1.82-.91.8.8,0,0,1-.46-.71v-.05c0-.43.53-.89,1.58-1.37a13,13,0,0,1,1.57-.92,19.32,19.32,0,0,1,2.83-1.77l0-.09c0-1.92.09-3.58.16-5a22.38,22.38,0,0,1-5,1.37c-.55-.14-.83-.36-.83-.65v-.06q0-.63,2.1-1c1.66-.51,2.91-.93,3.74-1.27,0,0,0-.12,0-.3q0-5.62.65-5.62A1.18,1.18,0,0,1,43.15,119.12ZM38,135.92V136a20.34,20.34,0,0,1,2.58,4.2,17.45,17.45,0,0,0,1.62,2.48h.05l-.05-.09c-.2-4.68-.3-7.81-.3-9.36h0Q40.74,134.06,38,135.92Zm5.78-14.22-.05.61V124l-.06.5h.06a6.81,6.81,0,0,0,2-.85v0A5.81,5.81,0,0,1,43.91,122a.58.58,0,0,1-.09-.25Zm6.06-7.65h.11c.81.12,1.63.85,2.48,2.18a5,5,0,0,1,.86,2v.32l-.05.24a6.76,6.76,0,0,1,1.07-.19c.15,0,.25.15.3.44s-.58.52-1.72,1.07a5.37,5.37,0,0,0-1.17,2.78c-.1.87-.19,1.83-.26,2.88,0,.13,0,.61,0,1.43,0,.35,0,.62,0,.8.52-.32,1.18-1.49,2-3.49.75-2.59,1.34-3.89,1.77-3.89h.14c.38.07.57.36.57.86a21.39,21.39,0,0,1-1.57,4.5,9.06,9.06,0,0,1-.81,1.27h.09a11,11,0,0,1,2.53-.62c.41,0,.62.11.62.21V127a3.94,3.94,0,0,1-1.53.9,16.83,16.83,0,0,0-1.57,3.9c-.66,1.54-1,2.33-1,2.39a26.29,26.29,0,0,1,3-.56q.87-2.88,1.26-2.88h.16c.29,0,.5.23.61.7a12.3,12.3,0,0,1-.36,1.92q.24,0,1.26-.09c.22,0,.36.15.4.45s-.53.67-1.61.9a.75.75,0,0,0-.55.77,17.37,17.37,0,0,1-1.77,4.21v0a15.17,15.17,0,0,1,3.53,1.86,1.14,1.14,0,0,1,.32.62c0,.36-.31.54-.92.54a18.87,18.87,0,0,1-4.25-1.51h-.11a3.45,3.45,0,0,1-2.12,1.16,1.5,1.5,0,0,1-.46,0h-.3c-1,0-2.46-.65-4.5-2-1.29-.57-1.93-1.24-1.93-2q0-1.61,5.22-3.44c.84-.14,1.26-.43,1.26-.86a30,30,0,0,0,1.78-4l.65-1.32h-.05c-3.45,1.66-5.56,2.48-6.33,2.48-.51,0-.76-.24-.76-.6v-.21c0-.35.68-.74,2-1.16a14.06,14.06,0,0,1,2.69-1v-.05q-.81-.7-.81-3.66v-.14a9,9,0,0,1,.76-3.5h0L48.11,122a6.22,6.22,0,0,1-1.56.51c-.58-.1-.86-.33-.86-.71s.45-.82,1.37-1a51.13,51.13,0,0,1,5.57-1.87,11.73,11.73,0,0,0-2.88-3.3,1.07,1.07,0,0,1-.62-.9C49.13,114.42,49.37,114.19,49.83,114.05Zm-4.29,24.72a3.63,3.63,0,0,0,1.17,1.76A7.44,7.44,0,0,0,49.94,142a3.69,3.69,0,0,0,2.64-1.27,15.37,15.37,0,0,0-2.69-1c-.74-.32-1.11-.71-1.11-1.16v-.3a5,5,0,0,1,.7-1.47v0C46.86,137.57,45.54,138.26,45.54,138.77Zm5-.81v.09a30.75,30.75,0,0,1,3.08,1,22.29,22.29,0,0,0,1.48-3.69l-3.45.76C51.32,136.72,51,137.35,50.55,138Z" transform="translate(-6.33)"/><path class="b" d="M68,116.79h.49q.51,0,1,3h.33a56.2,56.2,0,0,1,7.09-2.69,1.33,1.33,0,0,1,1,1.35v2.69l-.18,1c0,.11.06.16.18.16l-.18,2v.16q0,1.36.18,3.21c-.2.79-.43,1.18-.67,1.18h-.18c-.17,0-.4-.23-.67-.68v-2.54H76a11.18,11.18,0,0,0-2,1.69v2.2l.18.84a8.16,8.16,0,0,1,2-.51h.17c.23,0,.34.16.34.35l-2.53,2v1.17c0,.23.14.34.33.34a7.89,7.89,0,0,1,2.71-1.36h.16q.33,0,.33.51a22,22,0,0,1-3.37,3.22c.41,0,.86.79,1.35,2.36l-.33.17H75.2c-.6,0-1.32-.62-2.18-1.86h-.18q-1.35.58-1.35.84a6.09,6.09,0,0,1,1.35,2.53l-.51.34c-.72,0-1.57-.9-2.53-2.69q-.24,0-.51-.51v-.18q.34-.6,3.73-2.53l-.18-1.18v-.66a18.51,18.51,0,0,1-2.7.33l-.34-.51v-.33c0-.44,1-.89,2.87-1.36V128.1a1.87,1.87,0,0,0-2,1.69h-.51c-.69,0-1.48-2.82-2.36-8.44-.22,0-.33-.11-.33-.34v-.35a1.17,1.17,0,0,0,.33-.67c0-.2-.06-1.21-.17-3Zm1.68,4.72a46.75,46.75,0,0,0,.85,5.74,3.06,3.06,0,0,0,2-1.17v-.51l-.84.15a7.88,7.88,0,0,1-1.36-4c.23,0,.34-.11.34-.33h-.16ZM71,121v.16c.8,0,1.2,1.13,1.2,3.38.22,0,.33-.11.33-.34v-3.37l-.18-.34A6.11,6.11,0,0,1,71,121Zm2.71-.84c0,1,.06,2.75.17,5.4.11,0,.16.05.16.15a1.36,1.36,0,0,1,.51-.15v-1.69c.07-2.37.35-3.55.85-3.55h.33c.16,0,.39.28.68.84a9.87,9.87,0,0,1-.84,3.71l.33.18a1.19,1.19,0,0,1,.51-.18v-1a16.78,16.78,0,0,1,.16-2.37,12.39,12.39,0,0,1-.16-2.18v-.51h-.17C74.53,119.25,73.69,119.7,73.69,120.17Zm3,14.34h.51c.33,0,.61.51.84,1.52v.84h.49c.34-1.47.91-2.2,1.69-2.2l.35.51a40.42,40.42,0,0,1-2,5.4q-.33,1-.66,1l-.34-.51v-.51c.11-1.14.16-2,.16-2.69-.71,0-1.22-.9-1.51-2.71C76.38,134.74,76.55,134.51,76.73,134.51Zm4.73-17.89h.16q.94,0,1.68,5.73h.18a10.92,10.92,0,0,1,4.73-1l.33.51c0,.7-1.69,1.32-5.06,1.84v.18a39.09,39.09,0,0,1,.51,4.89v1.17l-.18,1.2,5.91-1.69a1.31,1.31,0,0,1,1,1.34c0,.54-1,2.45-2.88,5.75H88c.56,0,.85.22.85.66q0,1.08-4.56,2.38v.84a.29.29,0,0,1-.33.33h-.35q-1.19,0-3.2-11.14v-.16q0-.24.51-.51c.47,0,1,.9,1.51,2.69h.17a1.42,1.42,0,0,1,.51-.16q-.67,0-1.86-12.5-.33,0-.33-1.68C81.11,116.84,81.28,116.62,81.46,116.62Zm1.33,16.7a43.49,43.49,0,0,0,1,4.39h.51a16.31,16.31,0,0,0,4.56-6.41h-.34C84.88,132.64,83,133.32,82.79,133.32Z" transform="translate(-6.33)"/><path class="b" d="M107.54,115.53a4,4,0,0,0,.67,1v.67l-1.51,2.35v.51c.78,0,1.18.34,1.18,1l.33-.17-.16-.85c0-.28.23-.45.67-.51q1.4,0,3,4.73h.18a8.61,8.61,0,0,0,2.86-2.86c.23,0,.34.14.34.33v.84a.16.16,0,0,1-.18.18l.18.33c0,1.17-.79,2.3-2.36,3.38a23.8,23.8,0,0,0,2.53,5.24c1.83-4.18,3.29-6.26,4.38-6.26.56,0,.9.4,1,1.19-1.76,3.16-3.11,5.74-4.06,7.76a13.55,13.55,0,0,0,1.53,3.55h.16q.82-.4,3.72-6.42h.16q.33.06.33.33-2,9.13-3.37,9.13c0,.33-.11.49-.33.49q-1.21-.22-3.2-4.89h-.18q-2.37,2.87-3.71,2.87h-.17c-.58,0-.91-.17-1-.51v-.34c2.36-2.27,3.54-3.85,3.54-4.72a34.43,34.43,0,0,0-3.38-6.58h-.16a2.58,2.58,0,0,0-2.19,1.36v2.86q0,.33.33.33a13.74,13.74,0,0,1,3.22-1.51,1.32,1.32,0,0,1,.16.51q0,1.52-3.38,3.54c-.44.58-.67,3.06-.67,7.43v.34c-.07.34-.52.5-1.35.5-2.7-2.73-4-4.64-4-5.74a.14.14,0,0,0,.15-.16,19.7,19.7,0,0,1,2.87,2.53c.21-.22.38-1.46.51-3.73l-.33-.15a12.68,12.68,0,0,1-4,.66h-.17q-.26,0-.51-.51v-1c.1-.33,1.57-.72,4.39-1.18.56-.34.85-.56.85-.68V129.2c0-.23-.17-.35-.51-.35a34.79,34.79,0,0,1-4.4,1c-1.69-.15-2.53-.43-2.53-.84v-.67c0-.4,1.58-.74,4.73-1a22.65,22.65,0,0,1,2.71-1c-.12-1.31-.18-2.27-.18-2.86v-2.69c-1.27,2.07-2.16,3.25-2.69,3.53h-.18A.29.29,0,0,1,103,124q1.74-8.44,4.38-8.44Zm.67,5.73c0,.23,0,.35-.16.35l.16.34v.33c0,.73.06,1.85.18,3.37h.17a1.47,1.47,0,0,0,1.34-.66C109,122.5,108.47,121.26,108.21,121.26Zm5.57-5.06h.51c3.16,2.38,4.73,4.23,4.73,5.57l-.33.18h-.35a32.52,32.52,0,0,1-5.22-4.73v-.34C113.12,116.71,113.34,116.48,113.78,116.2Z" transform="translate(-6.33)"/><path class="b" d="M149.89,115.23l.56.7v.44a8.42,8.42,0,0,1-2,1.43c0,.84-.09,1.26-.28,1.26l.28.56v.29h-.16c0,.35.06.52.18.52.1,2.53.16,4.44.16,5.73v2q0,13.71-2.08,14.83c-1.32,0-3.22-1.82-5.68-5.45v-.1h-.07c2.25,1.8,3.67,2.7,4.24,2.7a26.28,26.28,0,0,0,1.23-9.12v-3.64q-5.7,5.88-6.06,7.26l-.69.6c-.15,0-.27-.28-.35-.84h-.41a2.36,2.36,0,0,1-1.37.84q-1.37-1.43-3.09-11v-.45c.07-.25.33-.37.79-.37a3,3,0,0,1,1.72,3c.11,0,.16.23.16.68h.37a51,51,0,0,1,7.73-1.86l1.34.19.19-1c0-.77-.11-2.7-.35-5.8a46.33,46.33,0,0,1-5.38.71h-4c-1.14-.31-1.71-.58-1.71-.83v-.63a.86.86,0,0,1,.81-.55,7.28,7.28,0,0,0,2,.34h1Q141.75,117.73,149.89,115.23Zm-12.27,14.38c.13,1.86.43,2.79.91,2.79l1.18-.66h.63a2.21,2.21,0,0,0,0,.38q3.3-3,3.6-4.62h-.4A19.36,19.36,0,0,0,137.62,129.61Z" transform="translate(-6.33)"/><path class="b" d="M166.41,113.93h.34l.84.51a1.31,1.31,0,0,1,.69-.18q.63,0,.84,1.53a62.42,62.42,0,0,0,7.59,5.07c1.69,1.44,2.53,2.56,2.53,3.37q-.12.84-.51.84h-.17a17.65,17.65,0,0,0-4.55-4.21q-4.78-3.23-5.58-3.22h-.15c0,.08-.46,1.21-1.36,3.37l1,.51a8.88,8.88,0,0,1,1.51-.17h.34a.15.15,0,0,1,.17.17l.34-.17h1.35c.84.14,1.3.37,1.35.68v.51l-.35.5-1.69-.16h-.84a1.69,1.69,0,0,0-.84.16,27,27,0,0,1-3.2-.5q-3.69,6.4-5.24,6.4c-.69-.22-1.08-.5-1.18-.84a3.56,3.56,0,0,0,2.53-2q4.74-8.23,4.73-10.29a5.12,5.12,0,0,0-1-1.35Q165.9,114.2,166.41,113.93Zm7.93,10.3a2.74,2.74,0,0,1,1.35,1.18v.84a9.67,9.67,0,0,1-1,3.2l.16,1.18v.68c-.28,1.23-.62,1.85-1,1.85L173,133c0,.19-.9.86-2.7,2v.67q.34.69.84.69.63-.34,6.24-2c.9.35,1.35.85,1.35,1.51q-1,3.44-5.73,8.26l-.35.17c-2.13,0-3.2-.84-3.2-2.53a31.07,31.07,0,0,0-.51-5.23h-.51q-3.37,7.43-3.86,7.43-1.09-.43-1.2-.84a69.45,69.45,0,0,1,3.73-7.26l1.18-4.22a3.46,3.46,0,0,1-.69-1.36q.33-.76.69-.84c-.09-1.35-.26-2-.51-2h-.34a17.36,17.36,0,0,0-2.37.33c-.51-.21-.79-.43-.85-.66,0-.46,1.25-1,3.73-1.53.26-.67.48-1,.67-1h.33l.69.51H170A14.93,14.93,0,0,1,174.34,124.23Zm-4.71,9.11h.16c.86,0,1.94-1,3.21-2.87v-.84q-3.21.81-3.21,1.35Zm.16-6.75v1.51l.17.84c2.7-.73,4-1.29,4-1.69a8.6,8.6,0,0,0,.17-1.33l-.33-.18A11.72,11.72,0,0,0,169.79,126.59ZM171,138.22c.24,3.15.58,4.73,1,4.73q4.68-4.59,5.07-6.91h-.18C176.62,136,174.66,136.77,171,138.22Zm14.35-19.74h.17q2.53,0,2.54,13.84a23.07,23.07,0,0,0-.34,2.88q0,1.41.67,7.08c-.21.52-.43.8-.67.85h-.51c-1.33,0-3-1.36-4.88-4.06a9.6,9.6,0,0,1-1.53-1.69V137q0-.33.33-.33h.18c3.11,2.7,4.8,4,5.06,4v-.15l.17-1.69c0-1.58-.11-2.37-.35-2.37.12-1.32.18-2.27.18-2.87v-8.44A21.8,21.8,0,0,0,185,119v-.17C185,118.59,185.12,118.48,185.31,118.48Zm-3.71,6.75h.51q.84,0,.84,5.91l-.17.33a1.41,1.41,0,0,1,.17.69c0,.17-.06.85-.17,2a1.3,1.3,0,0,1,.17.51l-.51.33q-1.35-.21-1.35-.66v-1.2a25.77,25.77,0,0,1,.35-4c-.12-1.49-.17-2.73-.17-3.71Zm2.37,3c.33.12.49.46.49,1l-.33.16H184q-.24,0-.51-.51v-.16Q183.46,128.54,184,128.27Z" transform="translate(-6.33)"/><path class="b" d="M209.2,114.35a3.73,3.73,0,0,1,.67,1.18l1.68-.16h1.87c.17,0,.39.22.66.67v1l-.49,2.53a1.17,1.17,0,0,0,.67.33v.16l-1,1.36v.84q1,0,1,.33a9.66,9.66,0,0,0-1.86,3h-.34c-.44-.16-.67-.33-.67-.51-1,.43-1.52,1-1.52,1.69V128l-.16,1.68a.15.15,0,0,1,.16.16c1.92-.34,3-.51,3.37-.51h.51c.22,0,.33.16.33.35s-1.34,1-4,2.18a1.31,1.31,0,0,0-.17.69v.84a29.54,29.54,0,0,0,4.21-1.35v.33a9,9,0,0,1-3.86,3c-.2,0-.32.28-.35.84V139l-.16.84a19.46,19.46,0,0,0,6.41,3v.35c-.17.45-.34.67-.51.67q-7.16,0-14.85-9.28h-.33a52.72,52.72,0,0,0-2.71,5.4l-.34.17h-.5c-.11,0-.33-.22-.67-.68.08-2.81.3-4.22.67-4.22h.17l.84.18a10.41,10.41,0,0,0,1.36-2.36,20.8,20.8,0,0,1-4.06-2.71v-.51a1.33,1.33,0,0,0,.51-.16,15.92,15.92,0,0,1,4.22,2.36,47.76,47.76,0,0,0,3.55-5.06v-.18a22.09,22.09,0,0,1-3.89,1.2h-.17q-.25,0-.51-.51v-.18q0-.9,3.37-6.57v-.51c-2.2-.81-3.33-1.37-3.37-1.69q.1-1,.51-1h.33q4.06,1.29,4.06,2.2v.68a32.58,32.58,0,0,1-2.2,5.07L204,125a1.41,1.41,0,0,1,1.35.84v.67q0,.72-4,6.41v.18a96.17,96.17,0,0,0,7.93,6.57h.17v-.17c-.29-2.36-.69-3.54-1.19-3.54s-.67-.16-.67-.5v-.34l1-1v-2h-.18a2,2,0,0,1-1,.33q-1.68-.21-1.68-.66v-.18a9.85,9.85,0,0,1,2.88-1.35V127a10.51,10.51,0,0,0-1.35.33h-.69c-.18,0-.4-.22-.67-.67v-.17c1.81-1,2.71-1.74,2.71-2.36v-1.53c-1.65.24-2.56.35-2.71.35q-.84-.12-.84-.51v-.33c.07-.33,1.19-.78,3.37-1.35l.18-.85v-2.53h-1.2a1.13,1.13,0,0,1-1.17-.68v-.16c0-.42.73-.7,2.19-.85C208.66,114.8,208.94,114.35,209.2,114.35Zm.51,6.08c1.57,0,2.35-.45,2.35-1.35a9.16,9.16,0,0,0,.69-2.53l-.35-.18-2.69,1Zm0,2V124c1.23,0,1.84-.74,1.84-2.2h-.16C210.27,121.91,209.71,122.14,209.71,122.45Z" transform="translate(-6.33)"/><path class="b" d="M227,115c3.6.37,5.4,1.5,5.4,3.37a14.32,14.32,0,0,1-1.53,3.89c.12,0,.17.05.17.16a7.94,7.94,0,0,1,1.69-.34c.9.12,1.36.57,1.36,1.36a22.6,22.6,0,0,1-3.89,8.43c-.78,0-1.18.46-1.18,1.36l.16.84v5.73a1.3,1.3,0,0,1-.16.67,1.71,1.71,0,0,1,.16.84,27.23,27.23,0,0,0,.35,4.4c-.17.44-.34.67-.51.67h-.33c-.46,0-.69-.68-.69-2v-.51a1.59,1.59,0,0,1,.18-.84l-.33-2.69.15-1.18a8.5,8.5,0,0,0-.33-2.53l.18-.84q-.18-5.47-.51-9.46a33.35,33.35,0,0,1,.51-5.9c-.12-.9-.46-2.64-1-5.24A.15.15,0,0,0,227,115Zm1.34,1.51-.16.33,1.18,3v.68l-.18.85h.35c.47,0,.92-1,1.34-2.89V118C230.89,117.38,230,116.87,228.36,116.46Zm.51,8.61v2.87c0,1.46.17,2.2.51,2.2a17.49,17.49,0,0,0,2.53-4.22,4,4,0,0,0,.67-1.87l-.5-.33Q228.87,124.41,228.87,125.07Zm13-13.16c.23,0,.35.14.35.33v.18l-.35.51v.33H242a10.63,10.63,0,0,1,2-1,1.21,1.21,0,0,1,.34.69c0,1-1.07,1.83-3.2,2.35l-.33,3.2H241a24.47,24.47,0,0,1,2.71-1h.51q.33.06.33.33V118a3.57,3.57,0,0,0-1.68,3.2v.33l.17.85a16.48,16.48,0,0,1,2.87-.51h.67q.24,0,.51.51v.17q-1.38,1.14-6.93,2.69-.84,0-.84,2h.17a13.91,13.91,0,0,1,1.87.16l3.7-1.35q2.2,0,2.2,4.72v2.71c0,1.6.17,4,.49,7.09v.17c0,.33-.22.49-.66.49q-2.31,0-5.58-4.71v-.17h-.15q-.26,0-.51.51v2.19c0,.82-.17,1.27-.51,1.34H240c-.56-.29-.84-1.19-.84-2.69V134c0-.12.05-.17.16-.17a5.34,5.34,0,0,0-1-1.36l.85-1.18c-.08-1.57-.25-2.35-.51-2.35-.73,1.12-1.18,1.69-1.36,1.69H237q-.42,0-.51-.69h-.33a44.81,44.81,0,0,0-2.53,5.75q.51,2.83,10.45,7.24c1.55.9,2.34,1.47,2.38,1.69v.17c0,.23-.17.34-.51.34q-9.49-3.77-12-6.58a2.23,2.23,0,0,0-1.85-1.35q-1,0-1-.33a19.88,19.88,0,0,1,2-3.71c1.58-2.9,2.37-4.53,2.37-4.91v-.51l-1.69.18h-.17c-.23,0-.34-.11-.34-.33v-.34c0-.56.9-.84,2.69-.84.68,0,1,.67,1,2h.18a52.8,52.8,0,0,0,2.35-11.66,1.44,1.44,0,0,1,.34-1,.3.3,0,0,0-.34-.33h-1.86c-.15,0-.32-.17-.49-.51v-.33q0-.39.84-.51l.33.15.34-.15.33.15c.6,0,1.39-.78,2.38-2.35Zm-7.42,9h.33c1.35.3,2,.92,2,1.84v.18c0,.58-.16.92-.49,1l-2.37-2.53Q233.93,121.12,234.44,120.86Zm5.73,2.53h.51c.49,0,.77-1,.84-3L241,120C240.57,120,240.29,121.14,240.17,123.39Zm.18,6.41v.67q0,.33.33.33a6.64,6.64,0,0,1,3.71-1.35,8.05,8.05,0,0,0,1.35.18.16.16,0,0,1,.18-.18c-.2-1.12-.43-1.69-.69-1.69C242,128.74,240.35,129.42,240.35,129.8Zm.17,4.56.49.33q4.91-1.63,4.91-2.2v-2.2h-.18c-3.48.9-5.22,2.08-5.22,3.56Zm2,1.84q2.16,2.88,3.38,2.88l.16-.35c0-.74-.12-2.31-.34-4.71h-.33A15.26,15.26,0,0,0,242.54,136.2Z" transform="translate(-6.33)"/><path class="b" d="M268,114.86c.23,0,.34.17.34.51l-2,6.07.33.17a10.46,10.46,0,0,0,2.87-2.35c-.11-.23-.39-1.07-.85-2.54l.35-.17h.34c.57.33,1.53,2.3,2.86,5.9a16.14,16.14,0,0,0,1.69,3.38q.65-.54,2.87-5.4v-.33h-.16a9.08,9.08,0,0,1-2.71,1.34h-.33c-.23,0-.34-.17-.34-.5.22-1.78.34-3,.34-3.55v-.67q0-.24.51-.51h.33c.45,0,.67.85.67,2.54v.15c.06,0,1-.33,2.86-1,.38.56.61.85.69.85a19.12,19.12,0,0,1-1,3.53v.17A2.93,2.93,0,0,1,279,122h.18a4.29,4.29,0,0,1,1.33,2.86c0,.23-.11.35-.33.35h-.51c-.44-.68-.78-1-1-1q-3.37,2.37-3.71,4v.17a1.59,1.59,0,0,0,1,1.51,13,13,0,0,0,2.71-3.37h.16c.23,0,.35.15.35.35v1.51c1.57,1,2.35,1.95,2.35,2.71v.33a51.4,51.4,0,0,1-2.7,6.24,3.23,3.23,0,0,0,1,1.51c.49,0,1-1.79,1.51-5.39.36-.79.64-1.18.84-1.18,0,.22.15.33.35.33q-.82,10.47-1.68,10.46h-.36c-.76-.51-1.48-1.8-2.18-3.86l-.35-.18c-1.11,1.24-2.12,1.86-3,1.86-.53,0-1.93-.79-4.22-2.37-.26,0-.71.84-1.35,2.53l-1.18,1.18h-.35a1.19,1.19,0,0,1-1.34-1.34q1.92,0,2.69-3.55A1.13,1.13,0,0,0,268,137h-.66c-.63,0-1.42.06-2.38.16-.78-.2-1.18-.42-1.18-.67v-.33q0-.24.51-.51h1.18a8.79,8.79,0,0,0,4.56-1.69c.08-1.8.31-2.7.68-2.7h.16c.32,0,.54.56.68,1.68,1.91-.61,2.87-1.28,2.87-2l-3.22-7.26c-.29-1.29-.62-2-1-2.19H270a15.71,15.71,0,0,1-1.52,4.39l.16.33a8,8,0,0,0,1.86-1.51h.18c.56.27.84,1.29.84,3,0,.23-.11.34-.35.34h-.49a1.9,1.9,0,0,0-1.19-.51q-3.63,3.89-4.89,3.88l-.51-.68v-.34A20.54,20.54,0,0,0,268,123v-.17h-.17a4,4,0,0,1-2.53,1.18h-.67c-.9-.28-1.35-.73-1.35-1.34-.67.22-1,.45-1,.67q0,.93,3,4.22V128a4.41,4.41,0,0,1-1.69.84c-.6-1.35-1-2-1.18-2l-.16.33v1.18a1.31,1.31,0,0,1-.17.67l.17.35-.35,3.87.18.68q-.35.8-.51,6.42a1.64,1.64,0,0,1-.51.33h-.16a1.33,1.33,0,0,1-1.35-1l.84-11.3c.12,0,.18-.06.18-.17h-.18q-.44.24-3.38,5.57h-.5c-.79-.58-1.18-1.14-1.18-1.69.48-.26,1.71-2.34,3.71-6.24a4.12,4.12,0,0,0,1.35-2.36h-1.51c-1.58,0-2.37-.51-2.37-1.52a1.19,1.19,0,0,1,.68-.34c.16,0,.95.06,2.36.18.9,0,1.35-1.41,1.35-4.22l.51-.35a1.15,1.15,0,0,1,1.18.68c-.12,1.15-.18,2-.18,2.69h1.35l.51.35c.9-.72,1.79-2.75,2.69-6.08Zm3,21.43q.17,1.1,4.05,3.55h.51a5,5,0,0,0,1.51-1.86c-.94-3.38-1.66-5.07-2.18-5.07A12,12,0,0,0,271.05,136.29Zm7.09-6.58-1.69,1.85v.18c.7,2.32,1.33,3.72,1.86,4.21h.16a19.68,19.68,0,0,1,1.87-4.21v-.51A10.94,10.94,0,0,0,278.14,129.71Z" transform="translate(-6.33)"/><path class="b" d="M289.28,123.7h.5a4.59,4.59,0,0,1,1,3.22v2.2q0,5.73-1.17,5.73h-.51a1.14,1.14,0,0,1-.67-1.18c.22-2.32.33-3.9.33-4.73v-4.73Q288.77,124,289.28,123.7Zm8.77-7.41q3,2.5,3.05,8.26v1.86q0,5.11-.85,15a1.57,1.57,0,0,1-.84.51c-1-.7-2.56-2.67-4.73-5.9a6,6,0,0,0-.51-1.52h.18a50.2,50.2,0,0,1,3.7,3.89h.34l.67-13a30.94,30.94,0,0,0-1.34-8.93Zm7.6,7.25q1.74,0,7.08,6.91a1.16,1.16,0,0,1-.67,1.2,34.71,34.71,0,0,1-6.75-7.1,5.38,5.38,0,0,1-.17-.67Z" transform="translate(-6.33)"/><path class="b" d="M323.72,117q1.23,0,2.86,10.64a8.92,8.92,0,0,0-.17,1.35l.17,1h-.51c-1.12,0-1.68-1.3-1.68-3.89a57.63,57.63,0,0,0-1.36-8.77Zm6.24-1.51h.17q.51,0,4.22,2.71h.34a31.23,31.23,0,0,1,4.55-1.69,3.45,3.45,0,0,1,1,1.84,56.44,56.44,0,0,1-4.9,4.4,8.92,8.92,0,0,1,.17,1.35A29.47,29.47,0,0,1,332,128v.18h.51a8.7,8.7,0,0,0,4.39-3.2h.67c.45,0,.73,1.23.85,3.71a3.77,3.77,0,0,1,.66,2.19c-.36.79-.8,1.18-1.33,1.18v.33l.16,1.18c-2.25,1-3.38,2-3.38,3.22,0,.23-.05.85-.16,1.84l.85.18h.67a8.36,8.36,0,0,0,1.68-.18c2.15,0,3.44.8,3.89,2.38a2.83,2.83,0,0,1-1.18.33,4.62,4.62,0,0,0-2.53-.84q-1.55,0-10,2.19c-1-.23-1.51-.51-1.51-.84v-.35c0-.31,1.35-.75,4-1.34a2.45,2.45,0,0,0,2-2.37v-1c0-.24-.11-.35-.33-.35h-1.85c-.16,0-.33-.17-.51-.5v-.5c0-.19,1-.7,3.05-1.53a17.15,17.15,0,0,0,.49-3.71H333c-2.91,2.36-4.65,3.55-5.24,3.55-1-.18-1.51-.63-1.51-1.36q0-.36,5.91-6.92l.51-.85v-.33a19.08,19.08,0,0,1-2.71.33h-.67a1.14,1.14,0,0,1-1.19-.66v-.18c.59-.7,2.51-1.15,5.74-1.34l1.52-1.86v-.33h-.16a21.64,21.64,0,0,1-7.95,1.35l-.33-.51v-.33q.12-.4,5.06-1.69v-.35c-1.69-1.29-2.53-2.25-2.53-2.87A1.64,1.64,0,0,0,330,115.53Zm4.73,13.83v.34a2.38,2.38,0,0,1,.51,1.35v1.86c1.68-.69,2.53-1.14,2.53-1.35a4.58,4.58,0,0,0-1.53-3C335.19,128.78,334.69,129.06,334.69,129.36Z" transform="translate(-6.33)"/><path class="a" d="M333.63,13.23c2.28-2,4.28-4.73,6.25-7,1.53-1.74,3.83-5.87,6.39-5.75.5,2.35.16,5.09.14,7.48,0,2.85,1.64,6.06,1.17,8.74" transform="translate(-6.33)"/></svg>