<svg xmlns="http://www.w3.org/2000/svg" viewBox="0 0 377.59 377.59"><defs><style>.cls-1{fill:#007aff;}.cls-2{fill:#bfdeff;}.cls-3{fill:#80bcff;}</style></defs><g id="图层_2" data-name="图层 2"><g id="图层_1-2" data-name="图层 1"><path class="cls-1" d="M358,162.07,153.48,366.55c-10.54,10.54-28,14.07-49.91,8.25C59.68,363,14.55,317.89,2.82,274.05c-5.86-22-2.34-39.42,8.2-50L215.5,19.61Z"/><path class="cls-2" d="M366.56,153.48,162.07,358c-10.53,10.54-28,14.07-49.91,8.25-43.88-11.78-89-56.92-100.75-100.75-5.86-22-2.34-39.42,8.2-50L224.1,11Z"/><path class="cls-1" d="M366.56,153.48l-35.05,35c-10.53,10.54-28,14.06-49.9,8.24C237.72,185,192.58,139.86,180.86,96c-5.86-22-2.34-39.43,8.19-50L224.1,11Z"/><ellipse class="cls-2" cx="295.32" cy="82.28" rx="58.17" ry="100.75" transform="translate(28.32 232.92) rotate(-45)"/><path class="cls-1" d="M313.34,149.55c-37.16-10-75.34-48.14-85.3-85.29S240.13,5.07,277.28,15s75.33,48.14,85.28,85.29S350.49,159.49,313.34,149.55Z"/><path class="cls-1" d="M274.78,220.55l-126.9,126.9a79.06,79.06,0,0,1-14.4-2.58c-12.52-3.37-25.2-9.48-37.18-17.49l126.9-126.9c12,8,24.61,14.17,37.17,17.5A79.15,79.15,0,0,0,274.78,220.55Z"/><path class="cls-1" d="M203.32,184.69,76.43,311.58c-20.83-19-37.28-43.43-43.69-67.45-5.87-22-2.34-39.42,8.2-49.95L167.83,67.29c-10.54,10.53-14.07,28-8.21,49.95C166,141.22,182.5,165.65,203.32,184.69Z"/><path class="cls-2" d="M148.06,128.81a11.94,11.94,0,0,0,.45,1.55L95.22,183.65a14.22,14.22,0,0,1-.45-1.54A82.55,82.55,0,0,1,92,165.45l53.3-53.29A81.63,81.63,0,0,0,148.06,128.81Z"/><path class="cls-2" d="M176.93,180.86,79.26,278.53A149.62,149.62,0,0,1,56.6,243.64L154.23,146A149.64,149.64,0,0,0,176.93,180.86Z"/><path class="cls-3" d="M320.6,90.35l-8.23,8.23c-2.46,2.47-6.57,3.33-11.69,1.94-10.28-2.76-20.85-13.34-23.61-23.6-1.37-5.15-.53-9.24,1.94-11.71L287.24,57Z"/><path class="cls-2" d="M308.89,92.31C298.61,89.55,288,79,285.28,68.71s3.38-16.42,13.63-13.63,20.85,13.32,23.6,23.6S319.16,95.06,308.89,92.31Z"/><polygon class="cls-2" points="248.83 146.1 242.57 139.84 248.83 133.58 244 128.75 237.74 135 231.48 128.75 226.65 133.58 232.91 139.84 226.64 146.1 231.47 150.93 237.74 144.66 244 150.93 248.83 146.1"/></g></g></svg>