<svg xmlns="http://www.w3.org/2000/svg" xmlns:xlink="http://www.w3.org/1999/xlink" viewBox="0 0 284.97 36.43"><defs><style>.a{fill:url(#a);}</style><linearGradient id="a" y1="18.21" x2="284.97" y2="18.21" gradientUnits="userSpaceOnUse"><stop offset="0" stop-color="#d7a874"/><stop offset="0.28" stop-color="#d79f74"/><stop offset="0.74" stop-color="#d78574"/><stop offset="0.99" stop-color="#d77474"/></linearGradient></defs><path class="a" d="M2.09,10.15,0,7.42A15.05,15.05,0,0,0,5.44.25L8.75.68A20.56,20.56,0,0,1,7.63,3.49H30.88V6.73H28.36v5.54h3.28v3.17H28.36v5.22h3.78v3.2H.61v-3.2H5.08V15.44H1.15V12.27H5.08v-5A25.18,25.18,0,0,1,2.09,10.15Zm5.72,16a32,32,0,0,1-4.32,7.6l-2.77-2A28.52,28.52,0,0,0,5,24.84ZM11.7,6.73H8.35v5.54H11.7Zm0,13.93V15.44H8.35v5.22Zm3.71,12.1L12,33.55a51.69,51.69,0,0,0-1.66-7.2l3.14-.69C14.15,27.86,14.83,30.24,15.41,32.76Zm3-26H15v5.54h3.42Zm0,13.93V15.44H15v5.22Zm5.4,11.92-3.46.79a37.75,37.75,0,0,0-2.23-7.24l3.17-.68A57.66,57.66,0,0,1,23.83,32.58ZM25.05,6.73H21.71v5.54h3.34Zm0,13.93V15.44H21.71v5.22Zm7.6,11-2.85,2a52.51,52.51,0,0,0-4.57-7.27l2.63-1.69A57.08,57.08,0,0,1,32.65,31.64Z"/><path class="a" d="M47.59,33.48H44.17V21.13c-2,.61-4.17,1.19-6.44,1.73l-1.8-3.32a65.18,65.18,0,0,0,15-4.49,45,45,0,0,0-6-4l3-1.84a48.84,48.84,0,0,1,6,4.21A21.11,21.11,0,0,0,61.2,6.59H48.74a38.07,38.07,0,0,1-9.25,6l-2.3-3C43.27,7.09,47.37,4,49.53.25l3.75.43a26.37,26.37,0,0,1-1.66,2.7h13.5v3q-3.51,6.86-12.63,11.41H66.27V33.48H62.82V31.57H47.59ZM62.82,21H47.59v7.27H62.82Z"/><path class="a" d="M98.13,10.29v3.17a82,82,0,0,1-7.59,4.72v1.76h13.89v3.31H90.54V30c0,2.27-1.19,3.42-3.57,3.42H82.55l-.83-3.1c1.26,0,2.63.08,4.1.08.87,0,1.3-.54,1.3-1.59V23.25H72.36V19.94H87.12V16.77c2.52-1.33,4.5-2.44,5.94-3.31H78.55V10.29Zm5.73,2H100.4V7.09h-24v5.18H72.9V3.85H86.65A29.81,29.81,0,0,0,85.07.65L89,0c.5,1.15,1,2.41,1.48,3.85h13.39Z"/><path class="a" d="M115.63,25.84a4.92,4.92,0,0,1,.9,3,7.48,7.48,0,0,1-1.62,4.79,8.16,8.16,0,0,1-4.32,2.81V34.2A5.55,5.55,0,0,0,113,32.5a4.14,4.14,0,0,0,.9-2.52,2.9,2.9,0,0,1-2.74-.64,2.64,2.64,0,0,1-.75-1.91,2.54,2.54,0,0,1,.79-2,2.72,2.72,0,0,1,2.05-.72A2.94,2.94,0,0,1,115.63,25.84Z"/><path class="a" d="M147.42,7.59a55.51,55.51,0,0,1-1.15,10.3l-2.77-.79a47.09,47.09,0,0,0,1.29-9.68Zm4.5-7.12v33h-3.35V.47Zm5.18,14-2.77.68A51,51,0,0,0,152,7.34l2.52-.83A55.59,55.59,0,0,1,157.1,14.47Zm5.76-8.89V.43h3.31V5.58h7.67v10.8h2.45v3.35h-9.07a26,26,0,0,0,10,11l-2.3,2.7a30.73,30.73,0,0,1-10.19-12.06A20.33,20.33,0,0,1,155.3,33.4l-2.08-2.8a17.11,17.11,0,0,0,8.63-10.87H155.3V16.38h7.24a34.54,34.54,0,0,0,.32-4.75V8.78h-6.12V5.58Zm3.31,5.29a43.59,43.59,0,0,1-.36,5.51h4.72V8.78h-4.36Z"/><path class="a" d="M197.46,32.9a26.82,26.82,0,0,1-5.73-.61A8.11,8.11,0,0,1,188,29.77c-.51-.61-.94-.9-1.37-.9-.76,0-2.05,1.62-3.89,4.86l-2.52-2.34c1.8-2.92,3.42-4.75,4.86-5.47V15.73h-4.82V12.56h8V26.17a3.44,3.44,0,0,1,.54.54,9,9,0,0,0,2.59,2.16,12.73,12.73,0,0,0,4.79.9c2,0,4.47.07,7.27.07,1.77,0,3.57,0,5.37-.07s3.2-.11,4.21-.18L212.14,33H203.9C201.92,33,199.76,32.94,197.46,32.9ZM189.4,6.41,187,8.78A38.28,38.28,0,0,0,180.9,3L183.24.72A46.22,46.22,0,0,1,189.4,6.41Zm10.51-3.35V.47h3.2V3.06h8.78v3.1h-8.78V8.57h7.7v9.64h-7.7V28.8h-3.2V20.05a24.22,24.22,0,0,1-7.74,7.34L190,24.69a20.16,20.16,0,0,0,7.89-6.48H192.2V8.57h7.71V6.16h-8.86V3.06Zm0,8.46h-4.54v3.74h4.54Zm7.77,0h-4.57v3.74h4.57Zm4.43,13.17-2.27,2.23A40.34,40.34,0,0,0,203.9,21l2.2-2.09A45,45,0,0,1,212.11,24.69Z"/><path class="a" d="M225.83,1.69A47.19,47.19,0,0,1,223.45,8V33.58h-3.31V13.71a51.19,51.19,0,0,1-3.49,4.47l-1-3.42A41.47,41.47,0,0,0,222.84.29Zm8.92.4V.4h3.31V2.09h9.26v2.7h-9.26V6.37h8.07V17.31h-.69a38.15,38.15,0,0,1,3.17,4.14l-2.34,1.66c-.36-.58-.75-1.15-1.15-1.73a10.39,10.39,0,0,0-1.47.11v2.19h4.75v3h-4.75v4c0,1.94-1.09,2.91-3.17,2.91h-4.21l-.69-3c1.33.11,2.59.18,3.75.18.72,0,1.07-.29,1.07-.83v-3.2H229.53a27.79,27.79,0,0,1,5.33,3.2l-1.69,2.66a25.54,25.54,0,0,0-5.58-3.85l1.37-2h-4v-3h15.4v-2c-3.81.18-8.6.36-14.36.5l-.39-2.7c3.31-.07,6.37-.1,9.1-.18v-2H227V6.37h7.73V4.79h-8.46V2.09Zm.22,8.6V8.85h-5v1.84ZM235,13h-5v1.87h5Zm2.84-2.27h5.29V8.85h-5.29ZM243.1,13h-5.29v1.87h5.29Zm-.9,4.75.65-.4h-4.79v1.88c1.88-.08,3.6-.19,5.19-.26C242.89,18.5,242.53,18.11,242.2,17.71Z"/><path class="a" d="M269.31,32.9a28.17,28.17,0,0,1-5.86-.61,8.3,8.3,0,0,1-3.82-2.52,2,2,0,0,0-1.4-.9q-1,0-3.53,4.86l-2.52-2.34c1.66-2.88,3.17-4.68,4.5-5.4V15.73h-4.46V12.56h7.7V26.17a3.44,3.44,0,0,1,.54.54,9.11,9.11,0,0,0,2.66,2.16,13,13,0,0,0,4.86.9c2.09,0,4.57.07,7.45.07,1.73,0,3.53,0,5.37-.07s3.2-.11,4.17-.18L284.14,33H275.9C273.89,33,271.69,32.94,269.31,32.9ZM260.68,6.41,258.3,8.78A38.71,38.71,0,0,0,252.72,3L255.06.72A44.67,44.67,0,0,1,260.68,6.41Zm5.14-1.7,0,7.42c-.07,6.7-1,11.73-2.63,15.12l-2.77-1.33c1.48-3.28,2.27-7.89,2.34-13.79V2.05A121,121,0,0,0,282.09.4L283.57,3c-2.45.43-5,.83-7.63,1.11v1H283V7.63h-7.05V8.78h7.81v1.3A22.71,22.71,0,0,1,282.7,14l-2.55-.72a14.6,14.6,0,0,0,.75-1.95h-5v1.51l3.67-.39.32,2.27-4,.43v.57c0,.4.21.62.72.62h3a3.56,3.56,0,0,0,.94-.15c.28-.14.5-.72.64-1.8l2.38.83c-.25,1.66-.61,2.63-1.08,2.92a4.55,4.55,0,0,1-2.34.46h-4.36a2.89,2.89,0,0,1-2-.64,2,2,0,0,1-.72-1.62v-.87l-3.06.33v.57a25.88,25.88,0,0,1-2.74,12.31l-2.34-2a22.9,22.9,0,0,0,2.27-10.33V8.78h5.83V4.36C270.75,4.54,268.34,4.64,265.82,4.71ZM280,19.58v5.83c0,.43.18.69.61.69h.47c.36,0,.58-.08.65-.18a13,13,0,0,0,.68-3.32l2.45.83a13.38,13.38,0,0,1-.86,4.39,2.68,2.68,0,0,1-2.34.87h-1.41c-2.05,0-3.06-1-3.06-2.92V22.28h-2.52a9.07,9.07,0,0,1-.43,3.2,9,9,0,0,1-2.91,3.68l-2.2-2a7.45,7.45,0,0,0,2.48-3.39,26.18,26.18,0,0,0,.29-4.21Zm-6.91-8.28h-3.06v2.16l3.06-.32Z"/></svg>