<?xml version="1.0" encoding="utf-8"?>
<!-- Generator: Adobe Illustrator 26.1.0, SVG Export Plug-In . SVG Version: 6.00 Build 0)  -->
<svg version="1.1" id="图层_1" xmlns="http://www.w3.org/2000/svg" xmlns:xlink="http://www.w3.org/1999/xlink" x="0px" y="0px"
	 viewBox="0 0 1349.8 480" style="enable-background:new 0 0 1349.8 480;" xml:space="preserve">
<style type="text/css">
	.st0{enable-background:new    ;}
	.st1{fill:#55A3DA;}
	.st2{fill:#71B259;}
	.st3{fill:#DFAB39;}
</style>
<g id="图层_2_00000052799755138867234570000014559250583164715666_">
	<g id="图层_1-2">
		<g class="st0">
			<path class="st1" d="M404.3,199.3c-5.7-0.2-9.8-3.2-12.2-9.1l-8.1-50.4h-42.7l-17.9,49.4c-2.9,5.7-7.3,8.6-13.4,8.6l-3.1-0.2
				c-4.8-2.2-7.2-6-7.2-11.2c0-1.4,16.9-48.9,50.6-142.5c4.8-9.7,11.5-14.6,20.3-14.6c0.5,0,3.1,0.1,8,0.4
				c4.9,0.2,8.5,6.1,10.9,17.5c17,93.1,25.5,140,25.5,140.8C415,194.3,411.5,198,404.3,199.3z M380.4,119.1l-10-60.9l-21.7,60.9
				H380.4z"/>
			<path class="st1" d="M538.4,199.3c-5.7-0.2-9.8-3.2-12.2-9.1l-8.1-50.4h-42.7l-17.9,49.4c-2.9,5.7-7.3,8.6-13.4,8.6l-3.1-0.2
				c-4.8-2.2-7.2-6-7.2-11.2c0-1.4,16.9-48.9,50.6-142.5c4.8-9.7,11.5-14.6,20.3-14.6c0.5,0,3.1,0.1,8,0.4
				c4.9,0.2,8.5,6.1,10.9,17.5c17,93.1,25.5,140,25.5,140.8C549.2,194.3,545.6,198,538.4,199.3z M514.6,119.1l-10-60.9l-21.7,60.9
				H514.6z"/>
			<path class="st1" d="M733.4,198.3c-6.8,0-13.1-0.4-18.9-1.2c-23.9-7.8-36.5-29.7-37.9-65.9c0-30.7,5.8-56.5,17.4-77.3
				c8.3-13.2,20-20.4,35.3-21.5c13.7,0,24.8,2.2,33.4,6.7c13.2,7,19.8,14.6,19.8,22.9c0,3.5-1.6,6.6-4.8,9.3
				c-2.2,0.8-4.3,1.2-6.2,1.2c-3.7,0-6.8-1.5-9.3-4.5c-5.9-6.4-13.9-9.9-24.1-10.7c-11,0.8-19.3,4.8-24.8,11.9
				c-7.8,12.1-11.7,32.2-11.7,60.4c0,15.3,3.1,26.7,9.3,34.4c5.6,6,13.1,9.1,22.7,9.1c10.7,0,21.6-3.2,32.9-9.5
				c2.1-0.5,3.9-0.7,5.5-0.7c6.7,0,10,4.5,10,13.6c0,4.8-2.6,8.9-7.9,12.4C761.9,195.1,748.3,198.3,733.4,198.3z"/>
			<path class="st1" d="M852,198.1l-3.6-0.2c-13.7-0.8-24.4-5.6-32.2-14.6c-8.1-10.7-11.7-26.2-10.7-46.5c1.9-18.6,7.1-32.9,15.5-43
				c8.4-10,20-15,34.8-15l4.5,0.2c21.2,3.3,34.3,15,39.4,35.1c0.6,2.9,1,5.6,1,8.1c0,13.2-6.6,19.8-19.8,19.8h-51.8
				c-1.6,12.4,0.2,21.3,5.5,26.7c4,4.5,9.9,6.7,17.7,6.7c13.4-0.8,21.4-6.8,24.1-18.1c1.1-3.5,4.3-5.2,9.5-5.2
				c1.3,0,2.5,0.2,3.8,0.5c5.2,1.9,7.9,5.3,7.9,10.3c-0.3,4.9-3,11.2-8.1,18.9C882.6,192.1,870.1,197.6,852,198.1z M877.3,122.4
				c-2.7-12.6-9.4-19.8-20-21.7h-2.6c-8.3,0-14.6,2.9-18.9,8.8c-2.1,3.5-3.7,7.8-4.8,12.9H877.3z"/>
			<path class="st1" d="M948.9,197.6c-13-1.6-19.6-10.3-19.6-26c0-1,2.5-44.3,7.6-130.1c1.3-6.2,5-9.3,11.2-9.3h1.7
				c6.8,1.8,10.3,5.8,10.3,12.2L952,162v1.9c0,3.7,1.5,5.5,4.5,5.5c1.4,0,3.5-1.8,6.1-5.4s5.3-5.4,8-5.4c1.7,0,3.7,0.6,6,1.9
				c3.5,1.8,5.3,4.5,5.3,8.4c0,4.1-1.9,9.3-5.7,15.5C969.7,193.2,960.7,197.6,948.9,197.6z"/>
			<path class="st1" d="M1021.2,197.6c-13-1.6-19.6-10.3-19.6-26c0-1,2.5-44.3,7.6-130.1c1.3-6.2,5-9.3,11.2-9.3h1.7
				c6.8,1.8,10.3,5.8,10.3,12.2l-8.1,117.7v1.9c0,3.7,1.5,5.5,4.5,5.5c1.4,0,3.5-1.8,6.1-5.4s5.3-5.4,8-5.4c1.7,0,3.7,0.6,6,1.9
				c3.5,1.8,5.3,4.5,5.3,8.4c0,4.1-1.9,9.3-5.7,15.5C1042,193.2,1033,197.6,1021.2,197.6z"/>
		</g>
		<g class="st0">
			<path class="st2" d="M70.4,417.5c-4.7-0.6-7.1-2.9-7.1-7.1l-1.6-52L49.7,402c-1.8,3.5-3.9,5.3-6.5,5.3c-4,0-6.3-1.8-6.9-5.3
				l-10-46.7l-5.3,55.3c-0.5,4.6-3,6.9-7.7,6.9c-4.6,0-7-1.8-7.1-5.5c0-0.9,3.5-31.5,10.5-91.9c0.5-3.9,2.7-6.1,6.6-6.5
				c3.2,0.3,5.3,1.7,6.2,4.3l14.9,56.6l14.9-54.8c1.3-3.3,4-5.2,8.3-5.6c4.3,0.4,6.9,2.8,7.8,7.2l2.5,88.7
				C77.9,414.6,75.4,417.1,70.4,417.5z"/>
			<path class="st2" d="M138.7,416.3h-0.7c-3.6,0-5.6-2.1-5.7-6.3l0.3-4.7c-2.3,4.8-7.7,8-16.4,9.6h-3.4c-6.4,0-12-2.9-16.8-8.8
				c-2.9-3.8-4.6-8.6-5-14.4c-0.2-2.3-0.3-4.5-0.3-6.8c0-11.2,2.8-21.2,8.4-29.9c4.8-7.2,11.2-10.8,19.3-10.8
				c7.7,0,13.7,3.2,18.1,9.6v-2.4c0.1-3.3,1.8-5.1,5-5.3c3.4,0.1,5.5,2.1,6,6l-2.7,57.2C144.8,413.4,142.8,415.7,138.7,416.3z
				 M115.1,399.7l1.8-0.3c10.8-2.6,16.2-10.8,16.2-24.8l-0.3-6.2c-0.4-6.1-4.7-9.1-13-9.1c-6.2,0-10.4,3.6-12.5,10.9
				c-1.9,5.1-2.8,9.8-2.8,14.1c0,5.2,1.2,9.2,3.5,12.1C109.7,398.6,112,399.7,115.1,399.7z"/>
			<path class="st2" d="M170.2,415.1h-2.1c-4,0-6-2.2-6-6.5l4-95.9c0-5.4,2.4-8.1,7.2-8.1c4.6,0,6.9,2.5,6.9,7.4l-1.9,49.5L205,345
				c1.9-1.4,3.6-2.1,5.3-2.1c2.1,0,3.4,0.7,4,2.1c1.5,2,2.2,3.7,2.2,5.3c0,2.2-1.1,4-3.4,5.6l-23.1,14.7l24,30.2
				c1.6,2,2.4,3.8,2.4,5.5c0,2-1,3.8-3.1,5.4c-2.1,1.6-3.9,2.4-5.6,2.4c-2,0-3.8-1-5.5-3.1l-24.5-32.7l-1.2,29.9
				C176.5,412.8,174.4,415.1,170.2,415.1z"/>
			<path class="st2" d="M259.2,416.5l-2.2-0.1c-8.4-0.5-15.1-3.5-19.9-9c-5-6.6-7.2-16.2-6.6-28.7c1.2-11.5,4.4-20.3,9.6-26.5
				c5.2-6.2,12.4-9.3,21.5-9.3l2.8,0.1c13.1,2.1,21.2,9.3,24.3,21.7c0.4,1.8,0.6,3.4,0.6,5c0,8.2-4.1,12.2-12.2,12.2h-32
				c-1,7.7,0.1,13.2,3.4,16.5c2.5,2.8,6.1,4.1,10.9,4.1c8.3-0.5,13.2-4.2,14.9-11.2c0.7-2.2,2.7-3.2,5.9-3.2c0.8,0,1.6,0.1,2.4,0.3
				c3.2,1.2,4.9,3.3,4.9,6.3c-0.2,3-1.9,6.9-5,11.6C278.1,412.8,270.4,416.2,259.2,416.5z M274.8,369.8c-1.7-7.8-5.8-12.2-12.4-13.4
				h-1.6c-5.1,0-9,1.8-11.6,5.5c-1.3,2.2-2.3,4.8-2.9,8H274.8z"/>
		</g>
		<g class="st0">
			<path class="st2" d="M398.1,416.9c-4.7,0-7.1-2-7.1-5.9l4.4-81.9h-18c-4.5,0-6.8-2.5-6.8-7.4c0-4.7,2.5-7.1,7.4-7.1H430
				c4.3,0,6.5,2.4,6.5,7.1c0,4.9-2.4,7.4-7.1,7.4h-18.6l-4.6,80.2C405.7,414.4,403,416.9,398.1,416.9z"/>
			<path class="st2" d="M490.1,417.9c-4.2,0-6.5-1.8-6.9-5.5l2.4-41.3c0-6.3-3-9.4-9.1-9.4c-2.3,0-6.5,1.1-12.8,3.2l-3.5,45.8
				c0,4.6-2.1,6.9-6.3,6.9h-2.1c-4,0-6-2.1-6-6.3l3.7-90.9c0-5.3,2.5-8,7.4-8c5.5,0,8.3,2.4,8.3,7.2l-0.9,31.8
				c4.8-2.3,10.4-3.4,16.8-3.4c9.2,0,15.2,3.5,18,10.5c1.4,4.9,2.1,10.1,2.1,15.5c0,2.6-0.8,15-2.4,37.4
				C498.3,415.8,495.5,417.9,490.1,417.9z"/>
			<path class="st2" d="M527.6,416.2c-8.1-1-12.1-6.3-12.1-16.1c0-0.6,1.1-17.5,3.2-50.8c0.8-3.8,3.1-5.7,6.9-5.7h1
				c4.2,1.1,6.3,3.6,6.3,7.5l-3.5,43.2v1.2c0,2.3,0.4,3.4,1.3,3.4s2.1-1.1,3.8-3.3c1.6-2.2,3.3-3.3,4.9-3.3c1.1,0,2.3,0.4,3.7,1.2
				c2.2,1.1,3.2,2.8,3.2,5.2c0,2.6-1.2,5.7-3.5,9.6C539,413.5,533.9,416.2,527.6,416.2z M528.7,334.4c-2.7,0-4.9-1-6.9-2.9
				c-1.9-2-2.9-4.2-2.9-6.8c0-2.9,1-5.4,3.1-7.3c2.1-1.9,4.4-2.9,7.1-2.9c2.8,0,5.2,1,7,2.9c1.8,1.9,2.7,4.2,2.7,7
				c-0.1,2.7-1.1,5-3,7C533.9,333.4,531.5,334.4,528.7,334.4z"/>
			<path class="st2" d="M601.3,416.5c-3.4,0-5.4-1.8-5.7-5.5l1.2-43.8c0-3.5-0.8-6-2.4-7.4c-1.6-1.4-5.2-2.1-10.8-2.1
				c-2.3,0-5.4,1.1-9.3,3.2l-2.2,48.3c0,4.6-2.1,6.9-6.3,6.9h-2.1c-4,0-6-2.1-6-6.3l2.5-61.7c0-3.6,2.4-5.5,7.2-5.5
				c3.9,0,6.4,1.6,7.5,4.9c2.3-2.2,7.6-3.2,16.1-3.2c13.4,1.7,20,8.6,20,20.9c0,3.6-0.4,18.6-1.3,44.8
				C609.5,414.4,606.7,416.5,601.3,416.5z"/>
			<path class="st2" d="M639.3,434.9c-2.1,0-4.2-0.2-6.5-0.6c-10.9-2.2-16.5-6.5-16.8-13c0-2.5,1.2-4.4,3.7-5.7l2.9-0.1
				c2.7,0,4.6,0.6,5.7,1.8c1.8,2.4,5.1,3.5,9.9,3.5c2.2,0,4.7-0.2,7.5-0.7c8-1.5,12.4-8.2,13.4-20.2c-2.9,1.9-7.1,2.8-12.5,2.8
				c-16.1,0-24.8-8.8-26.1-26.5c0.3-13.9,4.4-23.2,12.2-28c3.5-3.2,8.8-4.9,15.8-4.9c5.4,0,10.1,1.6,14.1,4.9
				c0.7-2.9,2.7-4.4,5.9-4.4h2.5c3.8,0.1,5.7,2.2,5.7,6.2c-1.1,38.5-3.5,61.2-7.2,68.1c-2.8,6-7.6,10.5-14.4,13.6
				C650.2,433.8,644.9,434.9,639.3,434.9z M649.9,389.4c2.3,0,5.7-0.9,10.3-2.8l1-23.7c-4.1-3.2-8.3-4.9-12.4-4.9
				c-8.3,0-13,5.5-14.1,16.4c0,5.5,1.3,9.4,3.9,11.6C641.3,388.2,645,389.4,649.9,389.4z"/>
			<path class="st2" d="M716.4,416.9c-10,0-17.1-1.6-21.4-4.7c-5.2-3-7.8-6.4-7.8-10c0-4.3,2.2-6.5,6.6-6.5c1.2,0,2.7,0.6,4.4,1.9
				c4.8,3.6,9.3,5.5,13.6,5.5c6.4,0,10.8-1.5,13.3-4.6c0.2-0.7,0.3-1.4,0.3-2.1c0-5.1-4.6-9.4-13.9-12.8
				c-14.3-5.8-21.5-13.8-21.5-24c0-9.8,5.8-15.9,17.5-18.1c2.1-0.4,4.2-0.6,6.3-0.6c8.3,0,15.9,2.6,22.8,7.8c2.1,2,3.1,4.1,3.1,6.3
				c0,1-0.3,2-0.9,3.1c-1.7,2.4-3.7,3.5-6.2,3.5c-1.7,0-3.6-0.6-5.7-1.8c-4.3-4.3-9.1-6.5-14.3-6.5c-5.2,0-7.8,2.5-7.8,7.5l0.1,0.6
				c0,3.5,4.2,7,12.7,10.3c15.2,5.9,22.9,14.2,23.1,24.9c0,8.2-4.4,14.2-13.3,18.1C723.9,416.2,720.1,416.9,716.4,416.9z"/>
		</g>
		<g class="st0">
			<path class="st3" d="M827,417.1c-4.6,0-7-1.8-7.1-5.5l4.6-90.6c0.4-5.1,3.5-7.7,9.3-7.7h2.2c34.7,0,52.2,10.1,52.6,30.4
				c0,11.2-3.9,19.6-11.6,25.3c-6.5,4.6-16.8,6.9-31.1,6.9c-3.1,0-6.5-0.1-10-0.3l-2.1,34.2C833.4,414.7,831.2,417.1,827,417.1z
				 M849.3,360.8c15.8,0,23.6-5.7,23.3-17.2c-0.2-10.9-10.8-16.4-31.8-16.4h-2.1l-1.5,33.3h0.9C841.6,360.7,845.4,360.8,849.3,360.8
				z"/>
			<path class="st3" d="M930.3,416.5l-2.2-0.1c-8.7-0.6-15.6-3.9-20.5-10c-4.2-5.1-6.3-11.6-6.3-19.5l0.1-4.3c0.2-2.7,0.3-5,0.3-6.8
				c0.6-8,3.6-15.4,8.9-22.2c5.4-6.9,12.7-10.3,22.2-10.3l2.9,0.1c16.1,2.6,25,11.1,26.7,25.5c0,15.3-2.7,27.4-8.1,36.2
				C950,412.3,942,416.1,930.3,416.5z M930.6,400.9c10.4-0.6,16.1-9,16.9-25.2c0-9.9-4.6-15.7-13.9-17.2h-1.6
				c-5.2,0-9.2,2.1-12.1,6.2c-2.5,3.5-3.8,7.4-4,11.5l-0.1,6.5c0,6.6,1.1,11.2,3.4,13.7C921.8,399.3,925.6,400.9,930.6,400.9z"/>
			<path class="st3" d="M990.3,416c-3,0-4.8-1.7-5.3-5.2l-9.7-64.8c0-2.1,1.2-3.7,3.7-4.9c1.8-0.3,2.9-0.4,3.4-0.4
				c2.9,0,4.9,1.5,5.9,4.4l6.2,42l7.2-15.8l-2.5-25.9c0-2.2,1.2-3.8,3.7-4.9c1.8-0.4,2.9-0.6,3.4-0.6c2.9,0,4.9,1.5,5.9,4.6
				l6.2,42.9c4.8-14,7.4-23.5,7.7-28.4l0.1-4c0-2.1-0.2-3.8-0.6-5.3c-0.2-1.2-0.3-2.2-0.3-3.1c0-1.9,0.5-3.5,1.5-5
				c1-1.5,2.6-2.2,4.8-2.2c5.2,0,7.8,3.8,7.8,11.5c0,4.7-0.6,9.7-1.9,15c-3.9,17.8-7.2,29.5-9.9,35.1s-5.1,9.3-7.2,11.2
				c-2.2,1.9-4.2,2.9-6.2,3.2c-3,0-4.8-1.7-5.3-5.2l-2.5-15.2c-0.5,1.6-1.5,3.9-2.9,6.9c-2.5,5.3-4.7,8.9-6.9,10.8
				C994.5,414.8,992.4,415.8,990.3,416z"/>
			<path class="st3" d="M1076.8,416.5l-2.2-0.1c-8.4-0.5-15.1-3.5-19.9-9c-5-6.6-7.2-16.2-6.6-28.7c1.2-11.5,4.4-20.3,9.6-26.5
				c5.2-6.2,12.4-9.3,21.5-9.3l2.8,0.1c13.1,2.1,21.2,9.3,24.3,21.7c0.4,1.8,0.6,3.4,0.6,5c0,8.2-4.1,12.2-12.2,12.2h-32
				c-1,7.7,0.1,13.2,3.4,16.5c2.5,2.8,6.1,4.1,10.9,4.1c8.3-0.5,13.2-4.2,14.9-11.2c0.7-2.2,2.7-3.2,5.9-3.2c0.8,0,1.6,0.1,2.4,0.3
				c3.2,1.2,4.9,3.3,4.9,6.3c-0.2,3-1.9,6.9-5,11.6C1095.7,412.8,1088,416.2,1076.8,416.5z M1092.4,369.8
				c-1.7-7.8-5.8-12.2-12.4-13.4h-1.6c-5.1,0-9,1.8-11.6,5.5c-1.3,2.2-2.3,4.8-2.9,8H1092.4z"/>
			<path class="st3" d="M1128.2,416.3h-2.1c-4,0-6-2.1-6-6.3l5-61.7c0-3.6,2.4-5.5,7.2-5.5c3.9,0,6.4,1.6,7.5,4.9
				c4.7-2.2,10.3-3.2,16.8-3.2c13.4,1.7,20,8.6,20,20.9c-0.3,3.9-2.8,6.1-7.5,6.6c-3.7,0-5.9-1.6-6.6-4.7c0-3.5-0.8-6-2.4-7.4
				c-1.6-1.4-4.2-2.1-7.9-2.1c-2.3,0-6.6,1.1-13,3.2l-4.7,48.3C1134.6,413.2,1132.4,415.5,1128.2,416.3z"/>
			<path class="st3" d="M1217.8,313.2c11.2,0,17.4,5.1,18.6,15.2c0.2,2.5,0.2,4.7,0,6.8c-0.2,2.9-1.4,4.9-3.7,5.9
				c-1.4,0.7-2.6,1-3.5,1c-2.7,0-4.1-1.3-4.3-4c-0.2-6.4-2.4-9.6-6.6-9.7h-0.6c-2.9,0.6-4.5,2.6-5,6l-1.2,18.7h16.1
				c4.1,0,5.9,2.5,5.5,7.4c-0.4,4.6-2.7,6.9-6.8,6.9H1211l-2.1,42.4c-0.9,4-3.2,6.3-6.9,6.9c-4.9,0-7.4-2.1-7.4-6.3l2.1-43h-9.4
				c-4.1,0-6-2.6-5.6-7.7c0.5-4.4,2.9-6.6,7.2-6.6h8.1l1.3-21.7C1199.6,319.9,1206.1,313.8,1217.8,313.2z"/>
			<path class="st3" d="M1289.4,417.2c-4.4,0-7.1-1.8-8.1-5.3c-2.1,1.9-6.3,2.8-12.7,2.8h-2.1c-12.8-2.3-19.2-9.1-19.2-20.5
				c0-12,0.7-27.4,2.1-46.1c1.2-4,3.6-6,7.4-6c4,0,6.2,2,6.5,5.9l-1.6,44.5c0,3,0.8,5.3,2.4,6.8c1.6,1.5,4.2,2.2,7.8,2.2
				c3.1,0,6.6-0.9,10.5-2.8l2.8-49.8c0.3-4.4,2.4-6.6,6.3-6.6h1c4.8,0.2,7.2,2.2,7.2,6l-3.7,63.7
				C1296,415.4,1293.7,417.2,1289.4,417.2z"/>
			<path class="st3" d="M1326.1,416.2c-8.1-1-12.1-6.3-12.1-16.1c0-0.6,1.6-27.4,4.7-80.3c0.8-3.8,3.1-5.7,6.9-5.7h1
				c4.2,1.1,6.3,3.6,6.3,7.5l-5,72.6v1.2c0,2.3,0.9,3.4,2.8,3.4c0.9,0,2.1-1.1,3.8-3.3s3.3-3.3,4.9-3.3c1.1,0,2.3,0.4,3.7,1.2
				c2.2,1.1,3.2,2.8,3.2,5.2c0,2.6-1.2,5.7-3.5,9.6C1339,413.5,1333.4,416.2,1326.1,416.2z"/>
		</g>
	</g>
</g>
</svg>
