<?xml version="1.0" encoding="utf-8"?>
<!-- Generator: Adobe Illustrator 26.1.0, SVG Export Plug-In . SVG Version: 6.00 Build 0)  -->
<svg version="1.1" id="图层_1" xmlns="http://www.w3.org/2000/svg" xmlns:xlink="http://www.w3.org/1999/xlink" x="0px" y="0px"
	 viewBox="0 0 1684.9 508.4" style="enable-background:new 0 0 1684.9 508.4;" xml:space="preserve">
<style type="text/css">
	.st0{enable-background:new    ;}
	.st1{fill:#55A3DA;}
	.st2{fill:#E8AF36;}
	.st3{fill:#231815;}
	.st4{fill:#5CAE4E;}
</style>
<g id="图层_2_00000068661120768951327340000007321443841704794537_">
	<g id="图层_1-2">
		<g class="st0">
			<path class="st1" d="M567.9,200.9c-5.7-0.2-9.8-3.2-12.1-9.1l-8.1-50.8H505l-17.9,49.8c-2.9,5.8-7.3,8.7-13.3,8.7l-3.1-0.2
				c-4.8-2.2-7.1-6-7.1-11.3c0-1.4,16.8-49.3,50.5-143.6c4.8-9.8,11.5-14.7,20.2-14.7c0.5,0,3.1,0.1,8,0.4
				c4.8,0.2,8.5,6.1,10.8,17.7c17,93.8,25.5,141.1,25.5,141.9C578.6,195.8,575,199.6,567.9,200.9z M544.1,120l-10-61.3L512.4,120
				H544.1z"/>
			<path class="st1" d="M701.7,200.9c-5.7-0.2-9.8-3.2-12.1-9.1l-8.1-50.8h-42.6L621,190.8c-2.9,5.8-7.3,8.7-13.3,8.7l-3.1-0.2
				c-4.8-2.2-7.1-6-7.1-11.3c0-1.4,16.8-49.3,50.5-143.6c4.8-9.8,11.5-14.7,20.2-14.7c0.5,0,3.1,0.1,8,0.4
				c4.8,0.2,8.5,6.1,10.8,17.7c17,93.8,25.5,141.1,25.5,141.9C712.4,195.8,708.9,199.6,701.7,200.9z M677.9,120l-10-61.3L646.2,120
				H677.9z"/>
			<path class="st1" d="M896.3,199.9c-6.8,0-13.1-0.4-18.8-1.2c-23.8-7.9-36.4-30-37.9-66.4c0-30.9,5.8-56.9,17.4-77.9
				c8.3-13.3,20-20.5,35.2-21.7c13.7,0,24.8,2.2,33.3,6.7c13.2,7.1,19.8,14.8,19.8,23.1c0,3.5-1.6,6.7-4.8,9.4
				c-2.2,0.8-4.3,1.2-6.2,1.2c-3.7,0-6.8-1.5-9.3-4.6c-5.9-6.4-13.9-10-24.1-10.8c-11,0.8-19.2,4.8-24.8,12
				c-7.8,12.2-11.7,32.5-11.7,60.9c0,15.4,3.1,26.9,9.3,34.6c5.6,6.1,13.1,9.1,22.6,9.1c10.6,0,21.6-3.2,32.9-9.6
				c2.1-0.5,3.9-0.7,5.5-0.7c6.7,0,10,4.6,10,13.7c0,4.8-2.6,9-7.9,12.5C924.8,196.7,911.2,199.9,896.3,199.9z"/>
			<path class="st1" d="M1014.7,199.7l-3.6-0.2c-13.7-0.8-24.4-5.7-32.2-14.7c-8.1-10.7-11.7-26.4-10.7-46.9
				c1.9-18.8,7.1-33.2,15.5-43.3c8.4-10.1,20-15.2,34.8-15.2l4.5,0.2c21.1,3.4,34.2,15.2,39.3,35.4c0.6,2.9,1,5.6,1,8.2
				c0,13.3-6.6,20-19.8,20h-51.7c-1.6,12.5,0.2,21.5,5.5,26.9c4,4.5,9.8,6.7,17.6,6.7c13.3-0.8,21.4-6.9,24.1-18.3
				c1.1-3.5,4.3-5.3,9.5-5.3c1.3,0,2.5,0.2,3.8,0.5c5.2,1.9,7.9,5.4,7.9,10.3c-0.3,5-3,11.3-8.1,19
				C1045.2,193.7,1032.8,199.2,1014.7,199.7z M1039.9,123.4c-2.7-12.7-9.4-20-20-21.9h-2.6c-8.3,0-14.5,3-18.8,8.9
				c-2.1,3.5-3.7,7.9-4.8,13H1039.9z"/>
			<path class="st1" d="M1111.3,199.2c-13-1.6-19.5-10.3-19.5-26.2c0-1,2.5-44.7,7.6-131.1c1.3-6.3,5-9.4,11.2-9.4h1.7
				c6.8,1.8,10.2,5.9,10.2,12.3l-8.1,118.6v1.9c0,3.7,1.5,5.5,4.5,5.5c1.4,0,3.5-1.8,6.1-5.4c2.6-3.6,5.3-5.4,8-5.4
				c1.7,0,3.7,0.6,6,1.9c3.5,1.8,5.2,4.6,5.2,8.4c0,4.2-1.9,9.4-5.7,15.6C1132.1,194.8,1123.1,199.2,1111.3,199.2z"/>
			<path class="st1" d="M1183.5,199.2c-13-1.6-19.5-10.3-19.5-26.2c0-1,2.5-44.7,7.6-131.1c1.3-6.3,5-9.4,11.2-9.4h1.7
				c6.8,1.8,10.2,5.9,10.2,12.3l-8.1,118.6v1.9c0,3.7,1.5,5.5,4.5,5.5c1.4,0,3.5-1.8,6.1-5.4c2.6-3.6,5.3-5.4,8-5.4
				c1.7,0,3.7,0.6,6,1.9c3.5,1.8,5.2,4.6,5.2,8.4c0,4.2-1.9,9.4-5.7,15.6C1204.3,194.8,1195.2,199.2,1183.5,199.2z"/>
		</g>
		<g class="st0">
			<path class="st2" d="M92.3,373.8c-8.9,0.8-18.3,1.3-28.1,1.6L43.3,376c-7.8,0-13.8,0.1-18,0.2c-5.5,0-9.7-0.1-12.6-0.3
				c-4-0.6-6.1-3.1-6.2-7.3c0-4.3,2.6-6.8,7.7-7.6c6.9,0,11.8,0,14.6-0.1c2.8-0.1,5.7-0.1,8.5-0.1c8.3-0.1,16.8-0.4,25.4-0.8v-18.7
				c0-4.9,2.4-7.4,7.2-7.4h1.6c5.4,0,8.1,2.8,8.1,8.4v16.9c15.3-1,31.1-2.3,47.4-4l2.2-0.2c3.5,0,5.8,1.4,6.9,4.2
				c0.5,0.9,0.8,1.9,0.8,3.1c0,4.2-4,6.8-12.1,7.9c-4.2,0.6-8.4,1.2-12.6,1.6c-8.3,21.6-18.6,39.6-31,54c12.7,9.2,26.1,16,40.2,20.2
				c6.5,1.9,11,4.6,13.4,7.9c0.6,1.3,1,2.7,1,4.2c0,1.9-0.9,3.9-2.6,6c-1.1,1.4-2.6,2.1-4.6,2.1c-0.4,0-0.8-0.1-1.1-0.2h-0.6
				c-3.5,0-15.8-4.9-36.7-14.8c-7.2-3.4-14.3-7.7-21.1-12.9c-17.9,16-33.8,25.8-47.9,29.4c-4.2,0-7-1.6-8.5-4.8
				c-0.5-1.3-0.8-2.4-0.8-3.4c0-1.9,0.9-3.6,2.6-5c16.2-7,30.2-16,42.2-26.9c-8.5-8.2-16.7-17.9-24.6-29.2
				c-4.5-5.7-6.7-10.6-6.7-14.7c0-1.1,0.5-2.3,1.6-3.5c1.1-1.3,2.8-1.9,5.3-1.9c1.3,0,3.1,1.1,5.4,3.2l6.4,8.1
				c7.8,9.8,15.9,18.4,24.3,26C78.3,403.4,86.3,389.5,92.3,373.8z"/>
			<path class="st2" d="M186,465.9h-1.8c-4.3,0-6.4-2.3-6.4-6.8V396c-0.6,1.9-2.1,4.1-4.3,6.6c-3,2.9-5.7,4.4-8.1,4.4
				c-3.6,0-6-2-7.2-6.1c0-2.8,0.9-5.1,2.6-6.9c8.1-8.3,17.1-27.1,27.1-56.6c1.5-2.5,3.6-3.7,6.4-3.7c1.6,0,3.4,0.5,5.4,1.5
				c2,1,3,2.9,3,5.7c0,2.9-3.1,12-9.3,27.4l-1,1.9c0.1,0.6,0.2,30.1,0.2,88.2C192.7,463.4,190.5,465.9,186,465.9z M243.6,468.1h-1.9
				c-4.2,0-6.2-2.4-6.2-7.3v-40.8c-10.1,0.6-19.1,1-26.8,1c-4.9,0-8.5-0.3-10.9-0.8c-2.5-1.7-3.7-4.1-3.7-7.3c0-4.1,2.1-6.5,6.4-7.3
				h9.1c10.1,0,18.7-0.2,25.9-0.6v-30l-18-0.2c-1.2,4.6-2.3,8.5-3.5,11.8c-1,2.6-3.2,3.9-6.7,3.9c-5.1,0-7.7-2.5-7.7-7.4l0.2-1.6
				c1.9-6,5.9-20.1,11.8-42.1c1.1-2.5,3.2-3.7,6.4-3.7c1.6,0,3,0.4,4.3,1.1c1.4,1.5,2.1,3.6,2.1,6.3c0,1.3-1.1,6.8-3.4,16.6
				c5.9,0,10.7-0.1,14.5-0.3v-20.5c0-3.8,2.1-5.6,6.2-5.6c5.1,0,8,1.9,8.8,5.6l-0.2,19.8c7.8-0.6,16.8-1.7,27.1-3.1
				c3.4,0,5.7,1.5,7,4.4c0.2,0.6,0.3,1.5,0.3,2.6c0,4.2-2,6.8-6.1,7.7c-9.4,1.9-18.8,3.3-28.4,4l-0.3,29.4
				c9.4-0.9,20.4-2.2,33.2-3.9c4.7,0,7.3,1.5,8,4.4c0.2,0.8,0.3,1.6,0.3,2.6c0,4.2-2.1,6.8-6.2,7.9c-13.9,2.2-25.7,3.7-35.3,4.5
				l-0.2,41.1C249.9,465.5,247.8,468.1,243.6,468.1z"/>
		</g>
		<g class="st0">
			<path class="st3" d="M353.2,467.5c-6.2,0-9.7-2.4-10.7-7.1l-0.3-19.8l-19,12.6c-1.7,0.6-3.3,1-4.8,1c-2.5,0-4.6-0.9-6.4-2.6
				c-0.5-1.5-0.8-2.9-0.8-4.2c0-2.3,1-4.2,2.9-6l31-21.1c-16.7,0-26.1-0.4-28.3-1.1c-2.9-1.5-4.3-3.5-4.3-6.1c0-4.2,2.1-6.3,6.2-6.5
				c2.3,0.3,8.1,0.5,17.2,0.5c2.7,0,9.5-0.2,20.6-0.5l10.9-0.3v-5c0-4,2.2-6,6.7-6h1.3c5.1,0,7.7,2.3,7.7,6.9v3.5l18.8-1
				c11.5-0.4,23.2-1.5,35-3.1c3.2,0,5.5,1.5,7,4.4l0.2,1.9c-0.1,4.2-2.6,6.5-7.3,6.8c-12.1,1.9-24.3,3.2-36.4,3.9
				c3.3,2.7,6.7,5.5,10.2,8.4l16.9-5.2c1.4-0.3,2.7-0.5,4-0.5c4,0,6.1,2.3,6.1,6.9l-0.6,2.4c-0.3,1.5-2,2.7-5.1,3.6
				c-3.1,0.9-6.6,1.8-10.5,2.7c5.3,4.8,11.1,10,17.2,15.5c2.2,2,3.4,4.1,3.4,6.1c0,0.8-0.1,1.6-0.3,2.4c-1,3.7-3.2,5.8-6.7,6.3
				c-3.3-0.2-6.2-1.8-8.7-4.8c-2.5-3-18.1-17.3-46.9-43.1l-8.1,0.3l-13.1,9.5l0.5,22.3c9.3-1.5,18-3.7,26.2-6.6
				c1.4-0.3,2.8-0.5,4.2-0.5c3.1,0,5.3,1.2,6.7,3.5c0.9,1.6,1.3,3.1,1.3,4.5c0,2.1-1.1,3.8-3.2,5c-8.6,4.3-21.2,7.6-37.8,9.8
				L353.2,467.5z M347.9,397.2H346c-4.3,0-6.4-2.3-6.4-6.9v-4.7c-5.7,2.4-11.6,3.5-17.6,3.5c-4,0-6.1-2-6.1-6.1
				c0-0.9,0.1-1.7,0.3-2.6c0-1,1.1-2.1,3.4-3.4l20-6.3v-14.5l-18.4-4.2c-2.9-1.7-4.3-3.7-4.3-5.8c0-1.4,0.4-2.7,1.3-3.9
				c1.7-2.2,3.6-3.2,5.6-3.2c2.6,0,7.8,1.1,15.8,3.2v-2.9c0-4.4,2.1-6.6,6.4-6.6h1.4c4.8,0,7.2,2.5,7.2,7.4v49.5
				C354.6,394.7,352.4,397.2,347.9,397.2z M381.9,394.1c-4.9,0-7.3-2.5-7.3-7.4c0-1.2,0.3-2.3,0.9-3.5c0.6-1.1,2.6-1.9,6.1-2.2
				l13.4-0.8v-16.5c-0.9,0.1-6,0.3-15.5,0.5c-5.6,0-9.3-0.4-10.9-1.1c-2.3-1.5-3.5-3.7-3.5-6.6c0-4.1,2.4-6.2,7.3-6.5
				c1.4,0.1,3.2,0.2,5.4,0.2c3.4,0,8.9-0.2,16.4-0.6h0.6V338c0-3.9,1.8-5.8,5.3-5.8h1.3c4.9,0,7.3,2.3,7.3,6.8v9.7
				c9.8-0.6,19.1-1.5,27.9-2.6c3.4,0.1,5.2,1.6,5.4,4.5l0.2,1.8c0,4.5-2,7-5.9,7.4c-9.2,1.3-18.4,2.4-27.6,3.2v16.5l15.8-1
				c3.3,0,5.4,1.6,6.4,4.8c0,4.1-1.7,6.7-4.9,7.9c-6.5,1.3-20.8,2.2-42.8,2.7L381.9,394.1z"/>
			<path class="st3" d="M477.6,469.4h-0.6c-2.9,0-5.5-1.1-7.8-3.4c-1.1-1.2-1.6-2.4-1.6-3.7c0-1.3,0.5-2.4,1.4-3.4
				c6.5-6.8,12.7-18.5,18.7-35.3c-3.2,0.5-6,0.8-8.5,0.8c-6.2,0-9.3-2.1-9.3-6.5c0-1.3,0.3-2.9,1-4.8l15.8-24.2
				c-4.9,1.3-9.2,1.9-12.8,1.9c-1.5,0-2.8-0.1-4-0.3c-3.6-0.6-5.4-3.6-5.4-8.9c1-3,3-4.5,6.2-4.5c9.2,0,18.3-0.7,27.3-2.1
				c3.6,0,6,2.1,7,6.3c0,3.8-0.9,7-2.7,9.7L490,410.9c1.6-0.3,3.1-0.5,4.6-0.5c5.9,0,9.1,2.4,9.7,7.3c0,4.7-2.6,13.2-7.7,25.5
				c17.1,5.4,34.5,8.1,52.2,8.1c17.9,0,31.3-1.8,40.2-5.3c1.5-0.4,2.8-0.6,3.8-0.6c3.6,0,5.4,2.6,5.4,7.7c0,2.7-1.4,4.8-4.2,6.3
				c-9.7,4.5-22.5,6.9-38.3,7.3c-3.9,0.2-7.8,0.3-11.5,0.3c-23,0-41.2-3.3-54.6-10C486.2,465,482.1,469.2,477.6,469.4z M494,364.3
				c-2.6,0-4.9-1.2-7-3.7l-2.4-3.1c-6.7-8.8-10.2-13.6-10.4-14.4c-0.2-0.8-0.3-1.5-0.3-2c0-3.2,2.1-5.5,6.4-6.9
				c0.7-0.2,1.4-0.3,2.1-0.3c2.9,0,5.7,1.7,8.6,5l10.4,12.9c0.9,1.9,1.3,3.7,1.4,5.2c0,3.5-2.1,5.9-6.4,7.1
				C495.6,364.2,494.8,364.3,494,364.3z M566.5,443.9h-1.4c-4,0-6.1-2.7-6.1-8.2v-30.6c-6.8,0.6-13.7,1.1-20.6,1.5
				c-6.9,24.5-14.4,37-22.4,37.4c-4.3,0-6.4-2-6.4-6.1c0-2.3,2-6.6,5.9-12.9c2.9-4.8,5.5-10.9,8-18.1h-8.9c-3.4,0-5.9-0.3-7.3-0.8
				c-2.9-0.6-4.3-2.9-4.3-6.8c0.3-4.6,2.2-6.9,5.7-6.9h4.9c4,0,8.5-0.1,13.3-0.2c0.9-3.8,1.6-11,2.4-21.8c-3.7,0-7,0.1-9.9,0.3
				c-2.1,0-4-0.2-5.6-0.5c-2.8-1.5-4.2-3.9-4.3-7.3c0-4.3,2.2-6.8,6.5-7.6l13.4-0.2l0.2-14.5c0-4.2,2.3-6.3,6.9-6.3
				c3.9,0,6.3,2.2,7.2,6.6l-0.5,13.7c5.3-0.2,10.6-0.5,16-0.8l0.2-13.9c0-4.2,2.3-6.3,7-6.3c4,0,6.5,2.3,7.5,6.8l-0.3,12.1
				c8.1-0.9,12.4-1.3,12.9-1.3c3,0,4.9,1.3,5.9,4c0.5,0.9,0.8,1.9,0.8,3.1c0,4.4-3.2,7-9.7,7.9c-4.7,0.9-8.1,1.3-10.4,1.5v21.5
				c4.6-0.4,10.8-1.3,18.7-2.6c2.8,0,4.6,1.9,5.6,5.6l0.3,1c0,4.4-2,6.9-5.9,7.6c-8,1.3-14.3,2.2-18.8,2.6l-0.2,31.9
				C572.7,441.1,570.7,443.9,566.5,443.9z M542.9,370.1c0,5.3-0.5,12.4-1.6,21.5l2.6-0.2c6.4-0.3,11.5-0.6,15.3-0.8v-21.5h-0.8
				C554.5,369.5,549.4,369.9,542.9,370.1z"/>
			<path class="st3" d="M685.5,468.8h-2.2c-4.4,0-6.5-2.8-6.5-8.4v-47.7l-13.6,0.5c-14.3,29.5-21.8,44.6-22.7,45.3
				c-2.3,2.5-4.6,3.7-6.7,3.7c-4.8,0-7.2-2.3-7.2-6.8c0-2.9,0.9-5.9,2.6-9l17.9-32.7l-13.7,0.2c-4.3,0-7.4-0.2-9.4-0.5
				c-3.1-1.6-4.6-4-4.6-7.1c0-4.1,2.3-6.5,7-7.1h24.1c-5.4-11.4-8.1-17.6-8.1-18.7c0-3.5,2.6-5.6,7.8-6.3c2.8,0,5.3,1.7,7.5,5
				l9.6,19.4l9.6-0.3v-32.6c-13.8,0.3-22.8,0.5-26.8,0.5c-11.1,0-17.9-0.3-20.4-1c-2.5-1.6-3.7-3.9-3.7-6.9c0-4.3,2.1-6.7,6.2-7.1
				c8.2,0.2,15.9,0.3,23.2,0.3c8.2,0,15.4-0.1,21.6-0.3v-11.1c0-4.5,2.2-6.8,6.5-6.8h1.6c4.7,0,7.4,2.2,8.3,6.6l-0.5,10.5
				c15.8-0.8,30.3-1.8,43.7-3.1c2.8,0.1,5,1.5,6.5,4.2c0.1,0.8,0.2,1.7,0.2,2.7c0,4.1-2.6,6.6-7.7,7.4c-13.1,1.9-27.4,3.1-42.8,3.5
				V397l10.9-0.6l11.5-21.8c1.5-1.5,3.1-2.3,4.9-2.3c1.8,0,3.8,0.6,5.9,1.9c1.4,1.1,2.1,2.4,2.1,3.9c0,1.4-0.4,2.9-1.3,4.5
				l-6.4,12.1l23.5-2.3c2.3,0,4.4,1.3,6.1,4c0.2,0.8,0.3,1.7,0.3,2.7c0,4.2-2.4,6.7-7.2,7.6l-21.4,2.1
				c13.8,26.5,20.8,40.1,20.8,40.8c0.6,1.4,1,2.8,1,4.2c0,4.7-2.9,7.1-8.6,7.1c-2.3,0-4.5-1.2-6.4-3.5
				c-11.4-23.1-18.6-38.7-21.6-46.6l-14.1,1v48.1C692.4,465.8,690,468.8,685.5,468.8z"/>
			<path class="st3" d="M780.3,467.6c-2,0-3.9-1.3-5.6-3.9c-0.4-0.8-0.6-1.5-0.6-2.1l1.1-1.3c4.6-5.9,7.7-11.5,9.4-16.6l-0.3-0.8
				c-1.4-0.3-3-1.3-4.9-3c-1.9-1.7-2.8-3.3-2.8-4.8c0-1.5,0.6-3.3,1.8-5.3c1.2-2,2.8-3.8,4.6-5.3c1.9-1.5,3.6-2.3,5.2-2.3
				c1.9,0,3.9,0.6,6,1.9c2.1,1.3,3.8,2.9,5.3,4.8c1.4,1.9,2.2,3.9,2.2,5.8c0,2-0.5,4.5-1.4,7.3c-2.3,6.6-6,12.8-11,18.9
				C785.4,465.4,782.4,467.6,780.3,467.6z"/>
		</g>
		<g class="st0">
			<path class="st4" d="M976.9,353.1v-13.5c0.1-3.1,1.8-5.3,5.1-6.5l4.5-0.2c4.3,0.9,6.4,3.2,6.4,7.1v12.4l43-1.6c5.3,0,8,2.5,8,7.6
				l-1.3,59.7c0,6.5-3.7,9.7-11,9.7c-14.3,1.2-27.1,2-38.6,2.6v8.4c0.7,10,6.3,15,16.6,15c3.3,0,12.6-0.2,27.9-0.6
				c1.4-6.9,2.4-12.5,3.2-16.9c0.4-3.3,2.3-5,5.6-5c1,0,2,0.2,3.2,0.5c3.5,1.4,5.3,3.8,5.3,7.3c-0.9,9.6-1.9,16.3-3,20.3
				c-2.2,6.9-10.8,10.3-25.5,10.3c-7.6,0.2-12.3,0.3-14.2,0.3c-8.9,0-16.9-1.9-24-5.8s-10.7-11.7-11-23.4c0-0.2,0-3.4,0-9.7
				c-5.9,0.1-11.3,0.2-16.4,0.2h-23.3c-5.7,0-8.6-3-8.6-8.9l-0.5-59.7c0-5.1,2.7-7.7,8-7.9L976.9,353.1z M944.3,394.6l-0.2,21.3
				l24.6,0.2c2.4,0,5.2-0.1,8.1-0.2v-18.5c-4.9,0.5-11.8,1-20.6,1.3c-3.6,0-6.4-0.2-8.5-0.5C946.4,397.2,945.2,396,944.3,394.6z
				 M976.9,368.1l-32.4,1.3l-0.2,18.9c1.2-1.8,3.1-3,5.9-3.4c7.6,0,16.4-0.3,26.7-1V368.1z M992.8,375.1v7.9
				c11.2-1.1,20.6-2,28.4-2.9c1.6,0,3.3,1,5.1,3.1l0.3-16.8l-33.8,1.3V375.1z M992.8,396.5v18.7c10.8-0.5,21.7-1.3,32.9-2.4
				l0.5-23.2c-1.5,1.9-3.4,3.2-5.7,3.7C1013,394.7,1003.8,395.8,992.8,396.5z"/>
			<path class="st4" d="M1095.6,467.3h-0.6c-9.8-0.8-15.2-4.1-16.3-10.2c0-4.8,1.5-8.1,4.5-9.8c0.7-0.3,1.5-0.5,2.2-0.5
				c1.9,0,4.2,1,6.9,2.9l12.1-38.1c1-1.8,2.6-2.7,5-2.7c1.2,0,2.5,0.2,4,0.6c2.9,1.4,4.3,3.8,4.3,7.1v1.3
				c-5.2,18.9-9.6,33.7-13.3,44.2C1102.7,465.6,1099.8,467.3,1095.6,467.3z M1116.4,388.9c0.1-0.2,0.9-0.6,2.4-1.1l12.8-4.8v-32.9
				c0-3.2,1.6-5.5,4.8-6.8l4.3-0.2c3.8,1,5.7,3.5,5.7,7.6v27.7l13.6-4.8v-34.4c0-4.3,2.6-6.5,7.8-6.5c4.4,0,7,2.3,8,6.9l-0.2,28.9
				l2.1-0.6c9-3.5,14.7-5.3,16.9-5.3c5.1,0,8.6,2,10.4,6.1c0.4,1.9,0.6,4.8,0.6,8.5l-2.4,30.5c-1.1,10.9-3.7,17.7-7.8,20.6
				c-1.8,1.4-4,2.1-6.7,2.1c-3,0-6.1-1-9.4-3.1c-2.2-1.9-3.4-4.6-3.5-7.9c0-4.6,1.6-6.9,5-6.9c1.7,0,3.6,0.6,5.7,1.8
				c1.2-0.8,1.9-2.2,2.1-4.2l2.1-31.9c-6.8,2.8-11.8,4.8-14.8,6.1h-0.3l-0.5,45.6c0,5.3-2.2,7.9-6.7,7.9h-2.1
				c-4.3,0-6.4-2.5-6.4-7.4l0.2-41l-13.6,5.5l0.3,44.2c0,9.2,4.4,13.9,13.1,13.9c19.4-1,30.9-1.7,34.6-2.1c1.1-4.8,2-9.5,2.7-13.9
				c0.4-3.5,2.2-5.3,5.4-5.3c0.7,0,1.7,0.2,2.9,0.5c3.3,1.5,5,4.1,5,7.7c-0.7,7.9-1.7,13.8-2.9,17.7c-2,7.1-7.3,10.6-15.8,10.6
				c-1.6,0.1-14,0.6-37.2,1.6h-0.6c-6.5,0-11.8-2.7-15.8-8c-4-5.3-6.1-12.5-6.1-21.5c-0.2-0.5-0.4-13.7-0.5-39.5
				c-1.1,0.3-2.2,0.7-3.5,1.1c-2.6,1.1-4.6,1.6-6.1,1.6c-1.5,0-3-0.6-4.5-1.9c-1.6-1.7-2.4-4.1-2.4-7.3v1.1c-0.1,0-0.4,0.4-1,1.1
				c-1.9,1.6-3.9,2.4-5.9,2.4c-2,0-4-0.9-5.9-2.6l-20.1-14.4c-1.2-1.3-1.8-2.7-1.8-4.4c0-1.5,0.6-3.2,1.9-5c1.5-1.4,3.2-2.1,5.3-2.1
				c1.3,0,2.7,0.3,4.2,0.8c5.3,1.1,12.6,5.3,21.9,12.7c1.8,2.2,2.7,4.3,2.7,6.5V388.9z M1116.9,362.2c-2,0-4-0.9-5.9-2.6l-20.1-14.5
				c-1.2-1.2-1.8-2.6-1.8-4.2c0-1.5,0.6-3.2,1.9-5c1.5-1.4,3.2-2.1,5.1-2.1c1.3,0,2.7,0.3,4.2,0.8c5.4,1.1,12.7,5.3,21.9,12.7
				c1.9,2.2,2.9,4.3,2.9,6.5c0,1.9-0.7,3.9-2.2,6C1120.8,361.4,1118.8,362.2,1116.9,362.2z"/>
		</g>
		<g class="st0">
			<path class="st3" d="M1304.8,399.6c0.5,0,1.1-0.1,1.8-0.2c15.1-1.3,31.3-2.6,48.5-4h0.6c5,0,8,1.4,8.9,4.2
				c0.2,0.8,0.3,1.7,0.3,2.9c0,4.3-3.4,6.9-10.1,7.7c-25.1,2.7-45.5,4.4-61,5.2l-0.2,1.5c-7,11.6-14.3,22.2-21.7,31.6
				c23.1-1.7,42.2-4.1,57.2-7.3c-1.6-2.1-3.4-4.3-5.5-6.4c-2.1-2.1-3.2-3.4-3.3-4c-0.5-1.1-0.8-2.1-0.8-3.2c0-2.5,1.5-4.6,4.6-6.3
				c0.7-0.2,1.4-0.3,2.1-0.3c2.8,0,6.2,2.3,10.3,6.8c4.1,4.5,10.1,12.7,18.1,24.7c1.7,2.6,2.6,4.8,2.6,6.8c0,2.7-1.6,4.7-4.8,6.1
				c-1.1,0.4-2,0.6-2.9,0.6c-2,0-4.2-1.1-6.4-3.4c-2.5-3.3-4.4-6.1-5.9-8.4c-9.8,3-28.5,5.9-56.2,8.5c-5.5,0.6-10.3,1-14.2,1
				c-1.9,0-3.7-0.1-5.4-0.3c-4.7-0.1-8-2.2-10.1-6.1c-0.2-1.2-0.3-2.3-0.3-3.2c0-2.7,0.9-4.9,2.7-6.8c3.5-3.3,10.9-13.7,22.2-31
				c-9.4,0.4-19.3,0.6-29.7,0.6c-4.2,0-7.3-0.2-9.4-0.5c-4.2-1.5-6.2-3.9-6.2-7.3c0-4.4,2.9-6.9,8.8-7.6h18.7
				c10.4-0.1,20.5-0.4,30.3-1v-15.3c-9.3,0.5-18.4,0.9-27.5,1.1c-4.3,0-7.3-0.2-9.3-0.5c-3.9-1.6-5.9-4-5.9-7.3
				c0-4.1,2.7-6.5,8.1-7.1c14.2,0,25.1-0.4,32.7-1.1l1.8-0.2v-16.1l-18.2,0.3c-6.7,0-13.7-0.4-20.9-1.3c-4.7-0.2-7-2.6-7-7.1
				c0-4.8,2.5-7.3,7.5-7.3c7.7,0.8,14.6,1.1,20.8,1.1c33.3-0.4,58.2-2.8,74.7-7.1c1.2-0.1,2.3-0.2,3.4-0.2c2.9,0.1,5,1.4,6.4,3.9
				c0.2,1.2,0.3,2.2,0.3,3.1c0,4-1.8,6.6-5.4,7.9c-12.9,3.8-27.7,5.8-44.5,6.1l-0.3,15.5c8.4-0.5,18.6-1.6,30.7-3.1
				c4,0,6.9,1.4,8.6,4.2c0.3,0.8,0.5,1.7,0.5,2.7c0,4.3-3.3,6.9-9.9,7.7c-8.7,1.4-18.7,2.5-30,3.4L1304.8,399.6z"/>
			<path class="st3" d="M1397.3,468h-0.6c-4,0-6.1-1.7-6.1-5.2c-0.1-3.5,1.5-7.6,4.7-12.2l12.1-25.5c-3.2,0.4-6,0.6-8.5,0.6
				c-6.2,0-9.3-2.1-9.3-6.3c0-1.4,0.3-3.1,1-5l15.8-24c-4.9,1.3-9.2,1.9-12.8,1.9c-1.5,0-2.8-0.1-4-0.3c-3.6-0.8-5.4-3.8-5.4-9
				c1-2.9,3-4.4,6.2-4.4c9.2-1.1,18.3-2.4,27.3-3.9c3.6,0,5.4,2.7,5.4,8.1c0,3.7-0.9,6.8-2.7,9.5l-12.3,20c2.7-0.3,4.7-0.5,6.2-0.5
				c4.8,0,7.5,2.4,8.1,7.1c0,4.8-2.6,12.5-7.7,22.9c18.2,5.4,36.1,8.1,53.8,8.1c17.9,0,31.3-1.8,40.2-5.3c1.5-0.4,2.8-0.6,3.8-0.6
				c2.7,0,4.3,1.4,5,4.2c0.3,1.3,0.5,2.4,0.5,3.4c0,2.8-1.4,4.9-4.2,6.5c-9.7,4.4-22.5,6.8-38.3,7.1c-3.9,0.2-7.8,0.3-11.5,0.3
				c-23,0-41.2-3.3-54.6-9.8C1405.9,463.6,1401.8,467.8,1397.3,468z M1415.3,364.6c-2.5,0-4.6-1.2-6.5-3.5l-2.9-3.4
				c-7.7-10.2-11.6-15.6-11.8-16.3c-0.2-0.6-0.3-1.2-0.3-1.8c0-2.7,2-4.7,5.9-6c0.6-0.2,1.2-0.3,1.8-0.3c2.8,0,5.5,1.7,8.3,5.2
				l12.1,14.8c0.9,1.8,1.3,3.5,1.4,5c0,2.9-1.9,4.9-5.7,6.1C1416.8,364.5,1416,364.6,1415.3,364.6z M1479,374.3
				c-11.8,0.6-22.8,1-33.1,1c-7.3,0-11.9-0.4-13.7-1.3c-2.6-1.7-3.8-4.1-3.8-7.1c0-4.5,2.7-6.9,8-7.1c1.7,0.2,3.7,0.3,6.1,0.3
				c3.7,0,15.8-0.3,36.1-0.8v-18.9c0-4.5,2-6.8,5.9-6.8h1.8c4.2,0,6.7,2.2,7.7,6.6l-0.2,17.6l19.2-1.9c2.9,0,4.6,1.5,5.1,4.5v2.1
				c0,4.8-2.2,7.5-6.5,8.1c-6,1.1-11.7,2-17.2,2.9l-0.5,58.7c-0.1,6.8-4.3,10.2-12.5,10.2c-5.4-0.6-12.6-3.5-21.6-8.7
				c-2.2-2.1-3.4-4.2-3.4-6.1c0-4.1,2.4-6.1,7.3-6.1c1,0,6,1.8,15.2,5.3L1479,374.3z M1459,412c-2.5,0-4.6-1.1-6.5-3.4l-2.9-3.5
				c-6.3-8.9-9.5-13.7-9.7-14.4c-0.2-0.6-0.2-1.2-0.2-1.8c0-2.7,2-4.7,5.9-6c0.6-0.2,1.2-0.3,1.8-0.3c2.7,0,5.4,1.8,8.3,5.3
				l9.9,12.7c0.9,1.8,1.3,3.5,1.4,5.2c0,2.8-1.9,4.8-5.7,6C1460.4,412,1459.7,412,1459,412z"/>
			<path class="st3" d="M1603.2,405.2l-0.3,1.5c-6.9,15.7-14.6,29.8-23,42.4c19.6-1.8,36.9-4.4,51.9-7.6c-1.6-2.3-3.7-5.1-6.4-8.5
				c-5.1-6.2-7.7-9.6-7.8-10.2c-0.5-1.2-0.8-2.4-0.8-3.5c0-2.7,1.5-4.8,4.6-6.5c0.7-0.2,1.4-0.3,2.1-0.3c2.8,0,5.6,1.7,8.5,5
				c8,9.6,16.4,21.5,25.4,35.8c1.7,2.7,2.6,5,2.6,6.9c0,2.8-1.7,5-4.9,6.6c-1,0.4-1.9,0.6-2.7,0.6c-2.1,0-4.3-1.2-6.5-3.5
				c-2.3-3.5-4.3-6.5-5.9-8.9c-9.7,4.2-27.5,7.2-53.5,9c-4.6,0.6-8.8,1-12.8,1c-1.9,0-3.7-0.1-5.4-0.3c-4.7-0.2-8-2.4-10.1-6.5
				c-0.2-1.2-0.3-2.3-0.3-3.4c0-2.7,0.9-4.9,2.7-6.8c5.3-3.8,13.6-17.7,24.9-41.9c-12.1,0.4-22.3,0.6-30.5,0.6
				c-4.3,0-7.4-0.2-9.4-0.5c-3.3-1.6-4.9-4.1-4.9-7.6c0-4.5,2.4-7.1,7.3-7.7c4.5,0,7.9-0.1,10.2-0.2h5.4c10.9,0,21.5-0.3,31.9-1
				l1.1-0.2v-20.2c-11.8,0.9-20.9,1.3-27.1,1.3c-4.2,0-7.2-0.2-9.3-0.6c-3.8-1.5-5.7-3.9-5.7-7.1c0-4.1,2.7-6.5,8.1-7.1
				c14.1,0,25.4-0.3,34-1v-15c0-4.6,2.1-6.9,6.4-6.9h1.8c4.5,0,7.2,2.2,8.1,6.6l-0.6,14.2c8.9-0.6,21-1.7,36.1-3.2
				c4,0,6.5,1.4,7.3,4.2c0.2,0.6,0.3,1.6,0.3,2.7c0,4.1-2.8,6.6-8.5,7.6c-15,2-26.8,3.2-35.3,3.5v20.2c12.8-1.2,29.1-2.7,49-4.5h0.6
				c3.2,0,5.3,1.5,6.2,4.4c0.2,0.8,0.3,1.7,0.3,2.9c0,4.5-2.5,7.3-7.5,8.2C1636.2,402.7,1617,404.5,1603.2,405.2z"/>
		</g>
	</g>
</g>
</svg>
