<svg xmlns="http://www.w3.org/2000/svg" viewBox="0 0 1461.36 871.31"><defs><style>.a{fill:#007aff;}.b{fill:#ff9500;}.c{fill:#bfdeff;}.d{fill:#80bcff;}</style></defs><path d="M329.15,592.65l15.49,78.21H339l19.08-78.21h24.06L400.57,671h-5.63l15.62-78.34H434l-23.42,89.86H384.19l-16-65.41h3.2l-16.51,65.41H328.51L305.6,592.65Z" transform="translate(-7.94)"/><path d="M446.78,583.37a13,13,0,0,1,9.34-3.39,13.21,13.21,0,0,1,9.47,3.39,11.23,11.23,0,0,1,3.59,8.51,10.91,10.91,0,0,1-3.59,8.33,13.39,13.39,0,0,1-9.47,3.32,13.21,13.21,0,0,1-9.34-3.32,10.91,10.91,0,0,1-3.59-8.33A11.23,11.23,0,0,1,446.78,583.37ZM467,611.08v71.43H445.11V611.08Z" transform="translate(-7.94)"/><path d="M477.63,611.08h44.92v18H477.63Zm30.72-17.53v64.38c0,2.14.46,3.69,1.4,4.67s2.69,1.48,5.25,1.48h7.68v18.43H511.55a34.57,34.57,0,0,1-13-2.3,18.18,18.18,0,0,1-9-7.81q-3.25-5.5-3.26-14.72V593.55Z" transform="translate(-7.94)"/><path d="M556.73,587.79v94.72H534.84V587.79Zm23.62,44.61a13.17,13.17,0,0,0-9.92-3.91,14.77,14.77,0,0,0-7.24,1.73,11.41,11.41,0,0,0-4.8,5.12,18.93,18.93,0,0,0-1.66,8.38l-2.82-17.79A21.51,21.51,0,0,1,559,618a25.19,25.19,0,0,1,8.45-5.63,29.21,29.21,0,0,1,11.33-2A27.59,27.59,0,0,1,593,613.9a24.27,24.27,0,0,1,9.47,10.43,36.76,36.76,0,0,1,3.39,16.45v41.73H584.12V643.72Q584.12,636.31,580.35,632.4Z" transform="translate(-7.94)"/><path class="a" d="M732.73,682.51H709.56l-26.37-78.34h8.58l-26.5,78.34H642.36l32.51-89.86h25.35ZM711.1,649.74l5.5,17H656.31l5.63-17Z" transform="translate(-7.94)"/><path class="a" d="M827.06,682.51H803.9l-26.37-78.34h8.57l-26.49,78.34H736.7l32.51-89.86h25.34Zm-21.63-32.77,5.51,17H750.65l5.63-17Z" transform="translate(-7.94)"/><path class="a" d="M925,595.47a40,40,0,0,1,23.17,27.65H924.09a17.61,17.61,0,0,0-4.61-6.4,20.39,20.39,0,0,0-6.47-3.84,24.13,24.13,0,0,0-19.64,1.85,20.91,20.91,0,0,0-7.94,9,31.29,31.29,0,0,0-2.82,13.76,30.92,30.92,0,0,0,2.82,13.63,21.21,21.21,0,0,0,7.94,9,22,22,0,0,0,11.9,3.2A22.52,22.52,0,0,0,913,662a20.39,20.39,0,0,0,6.47-3.84,17.69,17.69,0,0,0,4.61-6.4h24.06A40,40,0,0,1,925,679.44a50.91,50.91,0,0,1-37.69.44A42.81,42.81,0,0,1,873,670.35a42.1,42.1,0,0,1-9.34-14.53,53.57,53.57,0,0,1,0-36.86,41.73,41.73,0,0,1,23.68-24,48.31,48.31,0,0,1,18.24-3.33A47.69,47.69,0,0,1,925,595.47Z" transform="translate(-7.94)"/><path class="a" d="M1006.52,639.88a12.22,12.22,0,0,0-1-5.18,10.79,10.79,0,0,0-2.94-3.84,12.62,12.62,0,0,0-4.35-2.37,17,17,0,0,0-5.12-.77,14.15,14.15,0,0,0-7.36,1.86,13.14,13.14,0,0,0-5,5.38,18.59,18.59,0,0,0-1.86,8.76V650a19,19,0,0,0,1.86,8.83,11.83,11.83,0,0,0,5,5.25,14.36,14.36,0,0,0,6.85,1.66,12,12,0,0,0,7.42-2,12.7,12.7,0,0,0,4-4.86h23.29a30.27,30.27,0,0,1-6.33,12.61,33.49,33.49,0,0,1-11.71,8.83,40.51,40.51,0,0,1-34.44-1.22A33.1,33.1,0,0,1,962,666.32q-4.72-8.27-4.73-19.52t4.67-19.59a32.73,32.73,0,0,1,12.74-12.67,41.35,41.35,0,0,1,37.18-.13,31.92,31.92,0,0,1,12.61,12.35,37.22,37.22,0,0,1,4.6,18.88c0,1,0,2.07-.12,3.14s-.22,2.16-.39,3.26H976.44V639.88Z" transform="translate(-7.94)"/><path class="a" d="M1062.33,587.79v94.72h-21.89V587.79Z" transform="translate(-7.94)"/><path class="a" d="M1100.08,587.79v94.72H1078.2V587.79Z" transform="translate(-7.94)"/><path d="M1139.64,662.29,1125.3,699h-14l7.42-36.73Z" transform="translate(-7.94)"/><path d="M29.82,764.68v71.43H7.94V764.68ZM53.5,786.51q-3.7-3.78-10-3.78a14.76,14.76,0,0,0-7.23,1.73,11.65,11.65,0,0,0-4.8,4.93,17,17,0,0,0-1.67,7.93L27,778.76a20.48,20.48,0,0,1,4.86-7.55A24.6,24.6,0,0,1,40,765.9a27.77,27.77,0,0,1,10.69-2,29.63,29.63,0,0,1,14.72,3.58,24.89,24.89,0,0,1,10,10.43A35.08,35.08,0,0,1,79,794.38v41.73H57.22V797.32Q57.22,790.29,53.5,786.51Zm49.16,0q-3.72-3.78-10-3.78a14.76,14.76,0,0,0-7.23,1.73,11.65,11.65,0,0,0-4.8,4.93A17,17,0,0,0,79,797.32l-6-16.25a26.38,26.38,0,0,1,5.76-8.64,29.27,29.27,0,0,1,9-6.21,27.55,27.55,0,0,1,11.33-2.3,31.41,31.41,0,0,1,15.36,3.58,25,25,0,0,1,10.18,10.43,34.6,34.6,0,0,1,3.65,16.45v41.73H106.37V797.32Q106.37,790.29,102.66,786.51Z" transform="translate(-7.94)"/><path d="M180.22,765.13a24.82,24.82,0,0,1,7.36,4,23.31,23.31,0,0,1,5.19,5.7V764.68h21.76v71.43H192.77V825.87a22.93,22.93,0,0,1-5.25,5.69,27,27,0,0,1-7.43,4,28,28,0,0,1-9.6,1.53,29,29,0,0,1-15.87-4.54,31.64,31.64,0,0,1-11.33-12.8q-4.15-8.26-4.16-19.52t4.23-19.52a31,31,0,0,1,11.39-12.67,29.62,29.62,0,0,1,15.87-4.42A29.07,29.07,0,0,1,180.22,765.13Zm-10.88,19.65a15.32,15.32,0,0,0-5.76,5.89,19.26,19.26,0,0,0-2.17,9.6,19.74,19.74,0,0,0,2.17,9.6,15.58,15.58,0,0,0,5.76,6.08,14.86,14.86,0,0,0,7.68,2.11,15.1,15.1,0,0,0,7.75-2,15.75,15.75,0,0,0,5.76-6,21.84,21.84,0,0,0,0-19.27,15.93,15.93,0,0,0-5.76-6,15.54,15.54,0,0,0-15.43,0Z" transform="translate(-7.94)"/><path d="M252.29,741.39v94.72H230.4V741.39Zm48.63,23.29-31.23,37.64-.13-3.84,31.62,37.63H273.92l-26.37-36.23,26.37-35.2Z" transform="translate(-7.94)"/><path d="M354.43,793.48a12.22,12.22,0,0,0-1-5.18,10.79,10.79,0,0,0-2.94-3.84,12.62,12.62,0,0,0-4.35-2.37,17,17,0,0,0-5.12-.77,14.15,14.15,0,0,0-7.36,1.86,13.21,13.21,0,0,0-5,5.38,18.59,18.59,0,0,0-1.86,8.76v6.28a19,19,0,0,0,1.86,8.83,11.89,11.89,0,0,0,5,5.25,14.36,14.36,0,0,0,6.85,1.66,12,12,0,0,0,7.42-2.05,12.7,12.7,0,0,0,4-4.86h23.29A30.27,30.27,0,0,1,368.83,825a33.49,33.49,0,0,1-11.71,8.83,40.51,40.51,0,0,1-34.44-1.22,33.1,33.1,0,0,1-12.8-12.73q-4.72-8.26-4.73-19.52t4.67-19.59a32.73,32.73,0,0,1,12.74-12.67,41.35,41.35,0,0,1,37.18-.13,31.92,31.92,0,0,1,12.61,12.35A37.23,37.23,0,0,1,377,799.24c0,1,0,2.07-.13,3.14s-.22,2.16-.39,3.26H324.35V793.48Z" transform="translate(-7.94)"/><path d="M410.23,764.68h44.93v18.05H410.23ZM441,747.15v64.38c0,2.14.46,3.69,1.4,4.67s2.69,1.48,5.25,1.48h7.68v18.43H444.15a34.35,34.35,0,0,1-13-2.31,18.07,18.07,0,0,1-9-7.8q-3.26-5.5-3.26-14.72V747.15Z" transform="translate(-7.94)"/><path d="M489.34,741.39v94.72H467.45V741.39ZM513,786a13.13,13.13,0,0,0-9.92-3.91,14.76,14.76,0,0,0-7.23,1.73,11.41,11.41,0,0,0-4.8,5.12,18.93,18.93,0,0,0-1.66,8.38l-2.82-17.79a21.51,21.51,0,0,1,5.06-7.93A25.26,25.26,0,0,1,500,766a29.38,29.38,0,0,1,11.32-2,27.63,27.63,0,0,1,14.28,3.58,24.27,24.27,0,0,1,9.47,10.43,36.76,36.76,0,0,1,3.39,16.45v41.73H516.73V797.32Q516.73,789.91,513,786Z" transform="translate(-7.94)"/><path d="M555.39,737a13,13,0,0,1,9.34-3.39A13.22,13.22,0,0,1,574.2,737a11.23,11.23,0,0,1,3.59,8.51,10.87,10.87,0,0,1-3.59,8.32,13.36,13.36,0,0,1-9.47,3.33,13.15,13.15,0,0,1-9.34-3.33,10.87,10.87,0,0,1-3.59-8.32A11.23,11.23,0,0,1,555.39,737Zm20.22,27.71v71.43H553.72V764.68Z" transform="translate(-7.94)"/><path d="M613.37,764.68v71.43H591.48V764.68ZM637,786a13.13,13.13,0,0,0-9.92-3.91,14.76,14.76,0,0,0-7.23,1.73,11.41,11.41,0,0,0-4.8,5.12,18.93,18.93,0,0,0-1.66,8.38l-2.82-17.79a21.51,21.51,0,0,1,5.06-7.93A25.57,25.57,0,0,1,624,766a30.88,30.88,0,0,1,25.47,1.54,24.49,24.49,0,0,1,9.6,10.43,36.09,36.09,0,0,1,3.46,16.45v41.73H640.76V797.32Q640.76,789.91,637,786Z" transform="translate(-7.94)"/><path d="M714.42,765.13a24.73,24.73,0,0,1,7.43,4,23.07,23.07,0,0,1,5.18,5.7V764.68h21.76V836a41.26,41.26,0,0,1-2.17,13.5,33.61,33.61,0,0,1-6.47,11.27,29.35,29.35,0,0,1-11.07,7.74,41.52,41.52,0,0,1-16,2.82,47.41,47.41,0,0,1-18.62-3.39,29.19,29.19,0,0,1-18.37-24.39h21.63a11,11,0,0,0,4.86,6.47,17.44,17.44,0,0,0,9.48,2.36,17.72,17.72,0,0,0,7.55-1.6,11.76,11.76,0,0,0,5.44-5.24,20,20,0,0,0,2-9.54V825.87a24.75,24.75,0,0,1-5.25,5.63,26,26,0,0,1-7.42,4.1,27.67,27.67,0,0,1-9.47,1.53A29,29,0,0,1,689,832.59a32.09,32.09,0,0,1-11.4-12.8q-4.22-8.26-4.22-19.52t4.22-19.52A31.06,31.06,0,0,1,689,768.08a29.57,29.57,0,0,1,15.87-4.42A29.23,29.23,0,0,1,714.42,765.13Zm-10.81,19.65a15.32,15.32,0,0,0-5.76,5.89,19.26,19.26,0,0,0-2.18,9.6,19.74,19.74,0,0,0,2.18,9.6,15.58,15.58,0,0,0,5.76,6.08,14.86,14.86,0,0,0,7.68,2.11,15.09,15.09,0,0,0,7.74-2,15.6,15.6,0,0,0,5.76-6,21.84,21.84,0,0,0,0-19.27,15.78,15.78,0,0,0-5.76-6,15.52,15.52,0,0,0-15.42,0Z" transform="translate(-7.94)"/><path d="M777,833.93a28.41,28.41,0,0,1-11.45-8.77A22.25,22.25,0,0,1,761,812.68h21.5a8.93,8.93,0,0,0,3.46,6,11.86,11.86,0,0,0,7.55,2.3,12.87,12.87,0,0,0,4.74-.76,6.6,6.6,0,0,0,2.88-2,4.78,4.78,0,0,0,1-3,4.55,4.55,0,0,0-2.11-3.9,18.44,18.44,0,0,0-5.57-2.43q-3.47-1-7.62-1.86a82.72,82.72,0,0,1-8.32-2.24,30.23,30.23,0,0,1-7.61-3.65,17.47,17.47,0,0,1-5.57-6,18.69,18.69,0,0,1-2.11-9.35,19.38,19.38,0,0,1,3.39-11.13,23.45,23.45,0,0,1,9.92-8,37,37,0,0,1,15.61-3q9.35,0,15.81,3.2A25.58,25.58,0,0,1,818,775.44,26,26,0,0,1,822.26,788H802.17a8.75,8.75,0,0,0-3.27-5.89,11.53,11.53,0,0,0-7.36-2.17,11.87,11.87,0,0,0-4.35.7,6.14,6.14,0,0,0-2.69,1.86,4.62,4.62,0,0,0-.89,2.94,4.43,4.43,0,0,0,2,3.84,19.59,19.59,0,0,0,5.57,2.43q3.53,1,7.62,2c2.73.64,5.48,1.4,8.25,2.3a29.3,29.3,0,0,1,7.62,3.71,19.35,19.35,0,0,1,5.7,6.15,20.12,20.12,0,0,1-1.28,20.6,23.83,23.83,0,0,1-10,7.81,37.69,37.69,0,0,1-15.42,2.88A40.83,40.83,0,0,1,777,833.93Z" transform="translate(-7.94)"/><path class="b" d="M923.12,768.08a30.57,30.57,0,0,1,11.33,12.67q4.17,8.25,4.16,19.52t-4.16,19.52a31.57,31.57,0,0,1-11.33,12.8,29,29,0,0,1-15.87,4.54,28.18,28.18,0,0,1-9.53-1.53,25,25,0,0,1-7.43-4.1,27.18,27.18,0,0,1-5.18-5.5v44.16H863.22V764.68h21.89V774.8a23.07,23.07,0,0,1,5.18-5.7,24.73,24.73,0,0,1,7.43-4,29.23,29.23,0,0,1,9.53-1.47A29.62,29.62,0,0,1,923.12,768.08ZM893,784.78a15.78,15.78,0,0,0-5.76,6,21.84,21.84,0,0,0,0,19.27,15.6,15.6,0,0,0,5.76,6,15.1,15.1,0,0,0,7.75,2,14.86,14.86,0,0,0,7.68-2.11,15.72,15.72,0,0,0,5.76-6.08,19.74,19.74,0,0,0,2.17-9.6,19.26,19.26,0,0,0-2.17-9.6,15.46,15.46,0,0,0-5.76-5.89,15.54,15.54,0,0,0-15.43,0Z" transform="translate(-7.94)"/><path class="b" d="M963.89,832.65a32.88,32.88,0,0,1-13.18-12.73q-4.8-8.26-4.8-19.52t4.86-19.59a33.4,33.4,0,0,1,13.31-12.67,42.17,42.17,0,0,1,37.83,0,33.56,33.56,0,0,1,13.25,12.67Q1020,789,1020,800.4t-4.93,19.52a33.48,33.48,0,0,1-13.44,12.73,40.13,40.13,0,0,1-19,4.48A39.12,39.12,0,0,1,963.89,832.65ZM990,816.2a15,15,0,0,0,5.57-6,20.27,20.27,0,0,0,2.18-9.85,21.11,21.11,0,0,0-2.11-10,14.52,14.52,0,0,0-5.44-5.83,14.36,14.36,0,0,0-20,5.83,21,21,0,0,0-2.11,10,21.25,21.25,0,0,0,2.05,9.85,14.48,14.48,0,0,0,5.31,6,13.61,13.61,0,0,0,7.23,2A14.24,14.24,0,0,0,990,816.2Z" transform="translate(-7.94)"/><path class="b" d="M1046.13,764.68l12.67,64.39H1053l15.23-64.39h23.17l15.36,64.39h-5.89l12.68-64.39h20.6l-19.32,71.43h-24.2l-14-57.22h5.38l-14.21,57.22h-24.32l-19.33-71.43Z" transform="translate(-7.94)"/><path class="b" d="M1187.44,793.48a12.37,12.37,0,0,0-1-5.18,10.93,10.93,0,0,0-3-3.84,12.62,12.62,0,0,0-4.35-2.37,17,17,0,0,0-5.12-.77,14.17,14.17,0,0,0-7.36,1.86,13.28,13.28,0,0,0-5,5.38,18.59,18.59,0,0,0-1.86,8.76v6.28a19,19,0,0,0,1.86,8.83,11.94,11.94,0,0,0,5,5.25,14.36,14.36,0,0,0,6.85,1.66,11.94,11.94,0,0,0,7.42-2.05,12.52,12.52,0,0,0,4-4.86h23.3a30.17,30.17,0,0,1-6.34,12.61,33.39,33.39,0,0,1-11.71,8.83,40.49,40.49,0,0,1-34.43-1.22,33,33,0,0,1-12.8-12.73q-4.74-8.26-4.74-19.52t4.67-19.59a32.8,32.8,0,0,1,12.74-12.67,41.35,41.35,0,0,1,37.18-.13,31.86,31.86,0,0,1,12.61,12.35,37.23,37.23,0,0,1,4.61,18.88c0,1,0,2.07-.13,3.14s-.21,2.16-.38,3.26h-52.1V793.48Z" transform="translate(-7.94)"/><path class="b" d="M1243.25,764.68v71.43h-21.89V764.68Zm-3.71,19.59a34.51,34.51,0,0,1,5.76-10.5,27,27,0,0,1,8.89-7.23,25,25,0,0,1,11.46-2.62v23.16h-5.89a30,30,0,0,0-7.1.77,11.62,11.62,0,0,0-5.12,2.56,12.16,12.16,0,0,0-3.14,4.87,22.41,22.41,0,0,0-1.15,7.8l-5.76-6.65A36.62,36.62,0,0,1,1239.54,784.27Z" transform="translate(-7.94)"/><path class="b" d="M1312.11,764.68v18.18h-41.73V764.68Zm-25.34-22.84q8.45-6.86,24.83-6v18.44q-6.27-.26-8.77,1.92t-2.49,7.8v72.07h-22V762.64Q1278.32,748.69,1286.77,741.84Z" transform="translate(-7.94)"/><path class="b" d="M1347.18,814.67a13,13,0,0,0,9.86,3.9,14.91,14.91,0,0,0,7.36-1.73,11.36,11.36,0,0,0,4.8-5.12,18.58,18.58,0,0,0,1.66-8.25l2.69,17.79a20.88,20.88,0,0,1-5,7.87,26.72,26.72,0,0,1-8.39,5.63,27,27,0,0,1-10.88,2.12,27.92,27.92,0,0,1-14.4-3.65,25.19,25.19,0,0,1-9.73-10.5,35.22,35.22,0,0,1-3.52-16.32V764.68h21.89v38.79Q1343.47,810.76,1347.18,814.67Zm23.68,21.44V764.68h21.76v71.43Z" transform="translate(-7.94)"/><path class="b" d="M1430.38,741.39v94.72h-21.89V741.39Z" transform="translate(-7.94)"/><path d="M1447,833.68a10.89,10.89,0,0,1-3.58-8.32,11.42,11.42,0,0,1,3.58-8.58,13.09,13.09,0,0,1,9.47-3.46,12.68,12.68,0,0,1,9.28,3.46,11.52,11.52,0,0,1,3.52,8.58,11,11,0,0,1-3.52,8.32,12.93,12.93,0,0,1-9.28,3.32A13.36,13.36,0,0,1,1447,833.68Z" transform="translate(-7.94)"/><path class="a" d="M837.93,70.3V359.48c0,14.9-9.84,29.73-29.46,41.12-39.36,22.71-103.19,22.71-142.48,0-19.68-11.39-29.52-26.22-29.52-41.12V70.3Z" transform="translate(-7.94)"/><path class="c" d="M837.93,58.14V347.33c0,14.9-9.84,29.73-29.46,41.12-39.36,22.7-103.19,22.7-142.48,0-19.68-11.39-29.52-26.22-29.52-41.12V58.14Z" transform="translate(-7.94)"/><path class="a" d="M837.93,58.14V107.7c0,14.9-9.84,29.73-29.46,41.12-39.36,22.71-103.19,22.71-142.48,0-19.68-11.39-29.52-26.22-29.52-41.12V58.14Z" transform="translate(-7.94)"/><ellipse class="c" cx="729.27" cy="58.17" rx="100.75" ry="58.17"/><path class="a" d="M797.52,93c-33.31,19.23-87.31,19.23-120.62,0s-33.31-50.4,0-69.63,87.31-19.23,120.62,0S830.82,73.76,797.52,93Z" transform="translate(-7.94)"/><path class="a" d="M820.42,170.47V349.93a79.34,79.34,0,0,1-11.95,8.36c-11.24,6.47-24.53,11.11-38.66,13.92V192.75c14.13-2.81,27.42-7.38,38.66-13.91A79.37,79.37,0,0,0,820.42,170.47Z" transform="translate(-7.94)"/><path class="a" d="M744.58,195.64V375.09c-28.19,1.27-57.08-4.35-78.59-16.8-19.68-11.38-29.52-26.22-29.52-41.12V137.72c0,14.9,9.84,29.73,29.52,41.12C687.5,191.28,716.39,196.9,744.58,195.64Z" transform="translate(-7.94)"/><path class="c" d="M666,195.2a11.58,11.58,0,0,0,1.41.78v75.36a13,13,0,0,1-1.41-.77,82.1,82.1,0,0,1-13.71-9.84V185.36A81.53,81.53,0,0,0,666,195.2Z" transform="translate(-7.94)"/><path class="c" d="M723.21,211.59V349.72a149.89,149.89,0,0,1-40.7-8.65V203A149.51,149.51,0,0,0,723.21,211.59Z" transform="translate(-7.94)"/><path class="d" d="M760.8,46V57.64c0,3.49-2.3,7-6.9,9.64-9.22,5.31-24.17,5.31-33.38,0-4.61-2.67-6.91-6.15-6.91-9.64V46Z" transform="translate(-7.94)"/><path class="c" d="M753.9,55.67c-9.22,5.32-24.16,5.32-33.38,0s-9.22-14,0-19.27,24.16-5.32,33.38,0S763.11,50.35,753.9,55.67Z" transform="translate(-7.94)"/><polygon class="c" points="741.53 136.17 732.68 136.17 732.68 127.32 725.85 127.32 725.85 136.17 716.99 136.17 716.99 143 725.85 143 725.85 151.86 732.68 151.86 732.68 143 741.53 143 741.53 136.17"/></svg>