<svg xmlns="http://www.w3.org/2000/svg" viewBox="0 0 353.58 267.09"><defs><style>.a{fill:#bc8856;}.b{fill:#ce9c6a;}.c{fill:#efcd9d;}.d{fill:#d7a874;}.e{fill:#bd8963;}.f{fill:#ebbf88;}.g{fill:#c69664;}.h{fill:#bb8760;}.i{fill:#ebc089;}</style></defs><polygon class="a" points="42.59 71.6 180.79 55.21 180.79 192.93 43.59 230.79 42.59 71.6"/><polygon class="b" points="180.79 55.21 296.79 75.57 296.79 233.4 180.79 192.93 180.79 55.21"/><polygon class="c" points="180.79 55.21 147.23 0 7.83 13.71 42.59 71.6 180.79 55.21"/><polygon class="c" points="180.79 55.21 214.97 0 339.88 15.66 296.79 75.57 180.79 55.21"/><polygon class="d" points="158.68 94.52 42.59 71.6 42.31 230.79 158.86 267.09 158.68 94.52"/><polygon class="e" points="122.56 161.72 158.68 94.52 18.88 124.5 122.56 161.72"/><polygon class="f" points="158.68 94.52 120.99 151.93 0 119.43 42.59 71.6 158.68 94.52"/><polygon class="g" points="158.68 94.52 296.79 75.57 296.79 234.71 158.86 267.09 158.68 94.52"/><polygon class="h" points="296.79 138.88 193.38 161.72 158.68 94.52 296.79 127.09 296.79 138.88"/><polygon class="i" points="296.79 75.57 353.58 117.86 197.35 151.93 158.68 94.52 296.79 75.57"/></svg>