<svg xmlns="http://www.w3.org/2000/svg" viewBox="0 0 154.3 77.15"><path d="M26,77.15h86.52c8.35,0,15.33-.78,20.31-5.76s5.71-11.92,5.71-20.27v-25c0-8.35-.73-15.33-5.71-20.26S120.9,0,112.55,0H25.93C17.72,0,10.69.83,5.71,5.81S0,17.72,0,25.93V51.12c0,8.35.73,15.34,5.71,20.27S17.72,77.15,26,77.15Zm-1.32-7.86c-5,0-10.31-.69-13.28-3.62S7.86,57.52,7.86,52.49V24.85c0-5.12.64-10.4,3.57-13.33s8.3-3.66,13.42-3.66h89c5,0,10.3.73,13.28,3.66s3.56,8.16,3.56,13.19V52.49c0,5-.63,10.21-3.56,13.18s-8.25,3.62-13.28,3.62Zm-1-6.64h91.16c3.62,0,5.62-.49,7.13-2s2-3.61,2-7.17V23.73c0-3.61-.49-5.61-2-7.18s-3.51-2-7.13-2H23.73c-3.66,0-5.66.44-7.18,2s-2,3.57-2,7.18V53.47c0,3.56.44,5.61,2,7.17S20.07,62.65,23.73,62.65ZM145.26,50.93c3.86-.25,9-5.18,9-12.65s-5.18-12.35-9-12.6Z"/></svg>