<svg xmlns="http://www.w3.org/2000/svg" viewBox="0 0 237.09 118.55"><defs><style>.a{fill:#fc0;}</style></defs><path class="a" d="M40,118.55h133c12.83,0,23.56-1.2,31.21-8.86s8.78-18.3,8.78-31.13V40.07c0-12.83-1.12-23.56-8.78-31.14S185.77,0,172.94,0H39.84C27.24,0,16.43,1.28,8.78,8.93S0,27.24,0,39.84V78.56c0,12.83,1.13,23.56,8.78,31.13S27.24,118.55,40,118.55Zm-2-12.08c-7.72,0-15.83-1-20.4-5.56s-5.48-12.53-5.48-20.25V38.19c0-7.88,1-16,5.48-20.48s12.75-5.63,20.63-5.63H175c7.73,0,15.83,1.13,20.41,5.63s5.47,12.53,5.47,20.25v42.7c0,7.72-1,15.68-5.47,20.25s-12.68,5.56-20.41,5.56Zm-1.5-10.21H50.54c5.56,0,8.63-.75,11-3.07s3.15-5.56,3.15-11V36.46c0-5.55-.75-8.62-3.15-11s-5.4-3.07-11-3.07H36.46c-5.62,0-8.7.67-11,3.07s-3.07,5.48-3.07,11v45.7c0,5.47.67,8.63,3.07,11S30.84,96.26,36.46,96.26Zm186.75-18c5.93-.38,13.88-8,13.88-19.44s-8-19-13.88-19.35Z"/></svg>