<svg xmlns="http://www.w3.org/2000/svg" viewBox="0 0 81.21 109.08"><defs><style>.a{fill:#ff3b30;}</style></defs><path class="a" d="M63.61,64.21l10.11-12.6A4.83,4.83,0,0,0,75,48.49a3.32,3.32,0,0,0-3.47-3.32l-26.85-.39L58.48,5.62C60.24.54,55.16-2.1,51.84,2.05l-22.41,28ZM74.79,94a3.76,3.76,0,0,0,5.32-5.32L6.43,15a3.82,3.82,0,0,0-5.37,0,3.87,3.87,0,0,0,0,5.32Zm-45.41,13,22.32-28L17.52,44.92l-10,12.55A5.13,5.13,0,0,0,6.19,60.6,3.31,3.31,0,0,0,9.7,63.92l26.81.39L22.74,103.47C21,108.5,26.06,111.18,29.38,107.08Z"/></svg>