<svg xmlns="http://www.w3.org/2000/svg" viewBox="0 0 102.05 124.07"><path class="a" d="M84.08,99.71h2.83q15.16,0,15.14-15.34V37.3H73.1c-5.08,0-8-2.88-8-7.95V0H39.79c-10,0-15.13,5.13-15.13,15.33v2.39H31c6.88,0,12.35,2,17.82,7.43L76.56,52.93c5.47,5.52,7.52,11.18,7.52,17.82Zm-10-68.51H99.71c-.3-1.56-1.32-2.93-3.08-4.64L75.88,5.37c-1.71-1.71-3.13-2.78-4.64-3l.05,26C71.29,30.37,72.07,31.2,74.07,31.2ZM15.14,124.07H62.3q15.09,0,15.09-15.33V69.43H42.09c-6.3,0-9.23-3-9.23-9.22V24.37H15.14C5.08,24.37,0,29.49,0,39.7v69C0,119,5,124.07,15.14,124.07ZM42,62.74H74.85c-.53-1.9-1.85-3.66-4-5.9L45.41,31A13.66,13.66,0,0,0,39.5,27v33.3A2.24,2.24,0,0,0,42,62.74Z"/></svg>