<svg xmlns="http://www.w3.org/2000/svg" viewBox="0 0 117.19 115.58"><path class="a" d="M58.64,108.45c.88,0,1.81-.1,2.79-.15l2.44,4.64a4.45,4.45,0,0,0,4.93,2.54,4.67,4.67,0,0,0,3.76-4l.73-5.28c1.76-.49,3.52-1.17,5.18-1.8l4,3.46a4.62,4.62,0,0,0,5.57.64,4.75,4.75,0,0,0,2.1-5L89,98.29c1.47-1.12,2.93-2.29,4.35-3.61l4.88,2.1A4.67,4.67,0,0,0,103.86,90L101,85.45a47.85,47.85,0,0,0,2.73-4.83l5.32.24a4.33,4.33,0,0,0,4.54-3.08,4.65,4.65,0,0,0-1.51-5.22l-4.2-3.27a53.68,53.68,0,0,0,1-5.52l5-1.66a4.39,4.39,0,0,0,3.27-4.35,4.47,4.47,0,0,0-3.27-4.39l-5-1.66a52.73,52.73,0,0,0-1-5.47l4.15-3.32a4.61,4.61,0,0,0-3-8.25l-5.32.24A43.64,43.64,0,0,0,101,30l2.83-4.49a4.66,4.66,0,0,0-5.72-6.74l-4.93,2c-1.32-1.22-2.78-2.44-4.25-3.56l1.13-5.18a4.67,4.67,0,0,0-2.2-5,4.54,4.54,0,0,0-5.47.64l-4,3.51a49.19,49.19,0,0,0-5.18-1.85L72.56,4.1a4.77,4.77,0,0,0-3.86-4,4.55,4.55,0,0,0-4.78,2.39L61.43,7.23a27,27,0,0,0-2.79-.1,26.39,26.39,0,0,0-2.83.1L53.32,2.49A4.58,4.58,0,0,0,48.39.1a4.67,4.67,0,0,0-3.76,4L44,9.33a46.27,46.27,0,0,0-5.23,1.85L34.81,7.72A4.54,4.54,0,0,0,29.3,7a4.71,4.71,0,0,0-2.2,5.08l1.17,5.13c-1.51,1.12-3,2.34-4.34,3.56L19,18.8a4.64,4.64,0,0,0-5.66,6.74L16.16,30a43.64,43.64,0,0,0-2.73,4.88l-5.32-.24a4.44,4.44,0,0,0-4.55,3.12,4.51,4.51,0,0,0,1.52,5.13l4.2,3.37a39.86,39.86,0,0,0-1,5.42l-5,1.66A4.47,4.47,0,0,0,0,57.76a4.39,4.39,0,0,0,3.27,4.35l5,1.66a42.8,42.8,0,0,0,1,5.52L5.13,72.56a4.58,4.58,0,0,0-1.57,5.18,4.35,4.35,0,0,0,4.59,3.12l5.28-.24a47.85,47.85,0,0,0,2.73,4.83L13.28,90a4.63,4.63,0,0,0,.39,5.32A4.57,4.57,0,0,0,19,96.73l4.84-2a49.44,49.44,0,0,0,4.39,3.61l-1.17,5.23a4.68,4.68,0,0,0,2.25,5,4.57,4.57,0,0,0,5.42-.64l3.95-3.51c1.66.63,3.42,1.31,5.23,1.8l.68,5.28a4.77,4.77,0,0,0,3.86,4A4.55,4.55,0,0,0,53.32,113l2.49-4.69C56.74,108.35,57.67,108.45,58.64,108.45Zm14.41-57A16.43,16.43,0,0,0,57.76,41.11a13.7,13.7,0,0,0-2.49.25L44.73,23.15a35.91,35.91,0,0,1,13.86-2.74c18.41,0,33.06,13.43,35.89,31.06ZM22.17,57.76A37.63,37.63,0,0,1,34.52,29.59L45,47.66a16.84,16.84,0,0,0-3.51,10.15A15.57,15.57,0,0,0,45,67.53L34,85.6A37.89,37.89,0,0,1,22.17,57.76ZM52,57.81a5.82,5.82,0,0,1,5.81-5.76,5.69,5.69,0,0,1,5.67,5.76,5.76,5.76,0,0,1-5.67,5.77A5.92,5.92,0,0,1,52,57.81Zm6.59,37.31a36.35,36.35,0,0,1-14.45-3l10.94-18a11.46,11.46,0,0,0,2.68.25A16.27,16.27,0,0,0,73,63.82H94.53C91.8,81.64,77.1,95.12,58.59,95.12Z"/></svg>