<svg xmlns="http://www.w3.org/2000/svg" viewBox="0 0 106.29 97.86"><path d="M40.62,23.29a.93.93,0,0,0,1-.88c1.66-7.81,1.56-8.1,9.77-9.76a1,1,0,0,0,.92-1,1,1,0,0,0-.92-1C43.16,9,43.26,8.69,41.6.93c-.1-.54-.39-.93-1-.93s-.87.39-1,.93C38,8.69,38.09,9,29.88,10.64a1,1,0,0,0-.92,1,1,1,0,0,0,.92,1c8.21,1.66,8.11,1.95,9.77,9.76A.93.93,0,0,0,40.62,23.29ZM81,40.53a1.22,1.22,0,0,0,1.22-1.08c1.66-9.27,1.71-9.86,11.52-11.57a1.19,1.19,0,0,0,1.12-1.22,1.22,1.22,0,0,0-1.12-1.22c-9.81-1.66-9.86-2.25-11.52-11.52A1.27,1.27,0,0,0,81,12.79a1.25,1.25,0,0,0-1.22,1.13C78.08,23.19,78,23.78,68.21,25.44a1.27,1.27,0,0,0-1.12,1.22,1.23,1.23,0,0,0,1.12,1.22c9.82,1.71,9.87,2.3,11.53,11.57A1.21,1.21,0,0,0,81,40.53Zm-67.09,14a1.27,1.27,0,0,0,1.22-1.12c1.66-9.28,1.71-9.87,11.52-11.53a1.24,1.24,0,0,0,1.12-1.22,1.22,1.22,0,0,0-1.12-1.22c-9.81-1.71-9.86-2.29-11.52-11.57a1.22,1.22,0,0,0-1.22-1.07,1.21,1.21,0,0,0-1.22,1.07C11,37.16,10.94,37.74,1.12,39.45A1.23,1.23,0,0,0,0,40.67a1.25,1.25,0,0,0,1.12,1.22c9.82,1.66,9.87,2.25,11.53,11.53A1.25,1.25,0,0,0,13.87,54.54Zm83.4,41.75a5.26,5.26,0,0,0,7.51,0,5.44,5.44,0,0,0,0-7.52L58.4,42.19a5.37,5.37,0,0,0-7.52,0,5.52,5.52,0,0,0,0,7.57Zm-60.21.78a1.69,1.69,0,0,0,1.66-1.56c1.56-13,2.2-13.38,15.48-15.53,1-.19,1.66-.68,1.66-1.66a1.65,1.65,0,0,0-1.47-1.66C41,74.12,40.28,74.17,38.72,61.13a1.69,1.69,0,0,0-1.66-1.56,1.61,1.61,0,0,0-1.66,1.51c-1.71,13.24-2.15,13.68-15.67,15.58a1.62,1.62,0,0,0-1.47,1.66A1.68,1.68,0,0,0,19.73,80c13.52,2.59,13.91,2.59,15.67,15.63A1.61,1.61,0,0,0,37.06,97.07Zm62-4.15L68.9,62.74l2.39-2.34,30.13,30.18a1.78,1.78,0,0,1,.29,2.68C100.88,94,100,93.85,99,92.92Z"/></svg>