<svg xmlns="http://www.w3.org/2000/svg" viewBox="0 0 82.13 104.69"><path d="M15.14,104.69H67c10.11,0,15.14-5.13,15.14-15.29V45.07H46.78c-6.25,0-9.23-3-9.23-9.23V0H15.14C5.08,0,0,5.18,0,15.33V89.4Q0,104.72,15.14,104.69ZM46.92,38.38H81.54c-.29-2-1.71-4-4.05-6.35L50.59,4.64c-2.3-2.35-4.3-3.76-6.35-4.1v35.2A2.35,2.35,0,0,0,46.92,38.38ZM41.06,91.8a3.72,3.72,0,0,1-3.71-3.62V71.73l.3-7.37-3.86,4-4.15,4.2a3.68,3.68,0,0,1-2.59,1.12,3.31,3.31,0,0,1-3.47-3.37,3.28,3.28,0,0,1,1.22-2.58l13.53-12.5a3.58,3.58,0,0,1,5.47,0l13.52,12.5a3.11,3.11,0,0,1,1.22,2.58,3.33,3.33,0,0,1-3.46,3.37,3.59,3.59,0,0,1-2.59-1.12l-4.15-4.2-3.86-4,.3,7.37V88.18A3.73,3.73,0,0,1,41.06,91.8Z"/></svg>