<svg xmlns="http://www.w3.org/2000/svg" viewBox="0 0 87.55 95.12"><path d="M3.66,67.77H18.55L14.11,89.84a8.42,8.42,0,0,0-.19,1.57c0,2.39,1.66,3.71,4,3.71a4.32,4.32,0,0,0,4.54-3.66l4.79-23.69H50.34L45.85,89.84a8.35,8.35,0,0,0-.15,1.57c0,2.39,1.66,3.71,4,3.71a4.29,4.29,0,0,0,4.54-3.66L59,67.77H76.42A4.43,4.43,0,0,0,81,63.18a3.72,3.72,0,0,0-3.67-3.9H60.69L65.92,33.5H83a4.4,4.4,0,0,0,4.54-4.59A3.69,3.69,0,0,0,83.89,25H67.63l4-19.68a9.71,9.71,0,0,0,.15-1.56C71.78,1.37,70,0,67.72,0c-2.78,0-4,1.51-4.44,3.81L59,25H35.89l4-19.68A5.68,5.68,0,0,0,40,3.76C40,1.37,38.28,0,35.94,0c-2.74,0-4,1.51-4.45,3.81L27.2,25H11.13a4.52,4.52,0,0,0-4.54,4.74,3.57,3.57,0,0,0,3.66,3.76H25.49L20.26,59.28H4.54A4.49,4.49,0,0,0,0,64,3.53,3.53,0,0,0,3.66,67.77ZM29,59.28,34.18,33.5h23.1L52.05,59.28Z"/></svg>