<svg xmlns="http://www.w3.org/2000/svg" viewBox="0 0 110.23 110.02"><defs></defs><path class="a" d="M47.4,77.24,58.14,66.6c-3.66-.59-7.66-2.3-10-4.59-7.37-7.38-7.42-17.58-.1-25L65.32,19.87c7.37-7.33,17.53-7.33,24.9.05s7.47,17.62.1,25l-4,4C88.51,54.1,89.69,61,87.59,67l12.89-12.75c13.08-12.89,12.94-31.44,0-44.43s-31.5-13-44.44-.1l-18,18C25,40.67,25,59.17,38,72.16A21.13,21.13,0,0,0,47.4,77.24ZM62.83,32.76,52,43.45A18.93,18.93,0,0,1,62,48c7.42,7.42,7.47,17.63.15,24.95L44.91,90.13c-7.37,7.37-17.58,7.32-24.9,0-7.47-7.42-7.47-17.63-.15-25l4.1-4C21.72,55.9,20.54,49,22.64,43L9.75,55.76C-3.33,68.65-3.19,87.2,9.8,100.24s31.5,13,44.44.05l18-18c13-13,13-31.45,0-44.48A21.64,21.64,0,0,0,62.83,32.76Z"/></svg>