<svg xmlns="http://www.w3.org/2000/svg" viewBox="0 0 112.5 82.32"><defs></defs><path class="a" d="M8.79,17.63h8.35A8.9,8.9,0,0,0,26,8.84,8.93,8.93,0,0,0,17.14,0H8.79A8.92,8.92,0,0,0,0,8.84,8.88,8.88,0,0,0,8.79,17.63ZM43.51,17H104.3a8.18,8.18,0,1,0,0-16.36H43.51a8.12,8.12,0,0,0-8.16,8.21A8.08,8.08,0,0,0,43.51,17ZM8.79,50h8.35a8.82,8.82,0,1,0,0-17.63H8.79A8.82,8.82,0,0,0,8.79,50Zm34.72-.63H104.3a8.21,8.21,0,0,0,0-16.41H43.51a8.21,8.21,0,0,0,0,16.41ZM8.79,82.32h8.35a8.81,8.81,0,1,0,0-17.62H8.79a8.81,8.81,0,0,0,0,17.62Zm34.72-.63H104.3a8.18,8.18,0,1,0,0-16.36H43.51a8.18,8.18,0,0,0,0,16.36Z"/></svg>