<svg xmlns="http://www.w3.org/2000/svg" viewBox="0 0 93.7 93.7"><defs><style>.a{fill:#8e8e93;}</style></defs><path class="a" d="M63.09,43.51H80.81c8.74,0,12.89-4.15,12.89-13V13c0-8.89-4.15-13-12.89-13H63.09C54.35,0,50.2,4.1,50.2,13V30.47C50.2,39.36,54.35,43.51,63.09,43.51Zm-50.2,0H30.62c8.74,0,12.89-4.15,12.89-13V13c0-8.89-4.15-13-12.89-13H12.89C4.15,0,0,4.1,0,13V30.47C0,39.36,4.15,43.51,12.89,43.51Zm-.73-9.38c-1.95,0-2.78-.88-2.78-2.88V12.16c0-1.91.83-2.78,2.78-2.78H31.35c1.9,0,2.78.87,2.78,2.78V31.25c0,2-.88,2.88-2.78,2.88Zm50.19,0c-1.9,0-2.78-.88-2.78-2.88V12.16c0-1.91.88-2.78,2.78-2.78H81.54c2,0,2.79.87,2.79,2.78V31.25c0,2-.83,2.88-2.79,2.88ZM17,27.59h9.43c.83,0,1.17-.34,1.17-1.32V17.14c0-.88-.34-1.22-1.17-1.22H17c-.78,0-1.07.34-1.07,1.22v9.13C15.92,27.25,16.21,27.59,17,27.59Zm50.34,0h9.43c.83,0,1.17-.34,1.17-1.32V17.14c0-.88-.34-1.22-1.17-1.22H67.33c-.78,0-1.07.34-1.07,1.22v9.13C66.26,27.25,66.55,27.59,67.33,27.59ZM12.89,93.7H30.62c8.74,0,12.89-4.15,12.89-13V63.18c0-8.88-4.15-13-12.89-13H12.89C4.15,50.2,0,54.3,0,63.18V80.71C0,89.55,4.15,93.7,12.89,93.7ZM53.86,64h9.42c.83,0,1.17-.34,1.17-1.31V53.56c0-.87-.34-1.22-1.17-1.22H53.86c-.83,0-1.08.35-1.08,1.22V62.7C52.78,63.67,53,64,53.86,64Zm26.56,0h9.42c.83,0,1.18-.34,1.18-1.31V53.56c0-.87-.35-1.22-1.18-1.22H80.42c-.83,0-1.07.35-1.07,1.22V62.7C79.35,63.67,79.59,64,80.42,64ZM12.16,84.33c-1.95,0-2.78-.88-2.78-2.84V62.4c0-1.95.83-2.83,2.78-2.83H31.35c1.9,0,2.78.88,2.78,2.83V81.49c0,2-.88,2.84-2.78,2.84Zm55.08-7h9.42c.83,0,1.17-.34,1.17-1.26V66.85c0-.88-.34-1.23-1.17-1.23H67.24c-.79,0-1.08.35-1.08,1.23V76C66.16,77,66.45,77.29,67.24,77.29ZM17,77.78h9.43c.83,0,1.17-.34,1.17-1.32V67.33c0-.88-.34-1.22-1.17-1.22H17c-.78,0-1.07.34-1.07,1.22v9.13C15.92,77.44,16.21,77.78,17,77.78Zm36.87,12.8h9.42c.83,0,1.17-.35,1.17-1.27V80.13c0-.88-.34-1.22-1.17-1.22H53.86c-.83,0-1.08.34-1.08,1.22v9.18C52.78,90.23,53,90.58,53.86,90.58Zm26.56,0h9.42c.83,0,1.18-.35,1.18-1.27V80.13c0-.88-.35-1.22-1.18-1.22H80.42c-.83,0-1.07.34-1.07,1.22v9.18C79.35,90.23,79.59,90.58,80.42,90.58Z"/></svg>