<svg xmlns="http://www.w3.org/2000/svg" viewBox="0 0 89.89 121.63"><path d="M15.33,121.63H74.56c10.25,0,15.33-5.08,15.33-15.14V46.88c0-10.06-5.08-15.14-15.33-15.14H15.33C5.13,31.74,0,36.77,0,46.88v59.61C0,116.6,5.13,121.63,15.33,121.63Zm23-20a5.39,5.39,0,0,1-4.34-2.39L19.87,81.88a5.28,5.28,0,0,1-1.17-3.17,4,4,0,0,1,4-4,4.5,4.5,0,0,1,3.76,2L38.09,91.8,60.74,55.42a4.3,4.3,0,0,1,3.52-2.25,3.93,3.93,0,0,1,4.2,3.76,6.47,6.47,0,0,1-1.22,3.23L42.38,99.27A4.64,4.64,0,0,1,38.28,101.66Z"/><path d="M19.51,7.57H68.87C68.43,2.73,65.41,0,60.28,0H28.05C23,0,19.9,2.73,19.51,7.57ZM11.25,23.1H76.93c-.64-5.08-3.42-8.16-9.33-8.16H20.53C14.67,14.94,11.84,18,11.25,23.1Z"/></svg>