<svg xmlns="http://www.w3.org/2000/svg" xmlns:xlink="http://www.w3.org/1999/xlink" viewBox="0 0 495.42 32.72"><defs><style>.a{fill:url(#a);}</style><linearGradient id="a" y1="16.36" x2="495.42" y2="16.36" gradientUnits="userSpaceOnUse"><stop offset="0" stop-color="#d7a874"/><stop offset="0.28" stop-color="#d79f74"/><stop offset="0.74" stop-color="#d78574"/><stop offset="0.99" stop-color="#d77474"/></linearGradient></defs><path class="a" d="M20.56,27.72H16.45L4.1,9V27.72H0V2.66H4.1L16.45,21.31V2.66h4.11Z"/><path class="a" d="M37,8a8.68,8.68,0,0,1,2.29,1.19,7.25,7.25,0,0,1,1.58,1.54V7.88H45V27.72H40.82V24.77a6.85,6.85,0,0,1-1.62,1.6,9.21,9.21,0,0,1-2.34,1.21,9,9,0,0,1-3,.46,8.65,8.65,0,0,1-4.68-1.31,9.4,9.4,0,0,1-3.37-3.64,11.19,11.19,0,0,1-1.24-5.38,10.87,10.87,0,0,1,1.26-5.34A9,9,0,0,1,34,7.56,8.91,8.91,0,0,1,37,8Zm-5,3.85a5.89,5.89,0,0,0-2.25,2.21,7.08,7.08,0,0,0-.86,3.62,7.39,7.39,0,0,0,.86,3.66,6.06,6.06,0,0,0,2.25,2.32,5.75,5.75,0,0,0,2.9.79,5.93,5.93,0,0,0,2.92-.77A6,6,0,0,0,40,21.42a7.18,7.18,0,0,0,.86-3.64A7,7,0,0,0,40,14.17a5.94,5.94,0,0,0-2.23-2.27,5.84,5.84,0,0,0-2.92-.78A6,6,0,0,0,31.91,11.88Z"/><path class="a" d="M54.47,7.88V27.72H50.36V7.88Zm8.6,4.63a4.84,4.84,0,0,0-3.6-1.39,5.38,5.38,0,0,0-2.63.62,4.23,4.23,0,0,0-1.74,1.83,6.67,6.67,0,0,0-.63,3.06l-1.08-4.46a5.9,5.9,0,0,1,1.46-2.45,6.77,6.77,0,0,1,2.44-1.6,8.29,8.29,0,0,1,3-.56,9,9,0,0,1,4.18,1,7.15,7.15,0,0,1,2.92,2.85A9.26,9.26,0,0,1,68.51,16v11.7H64.44V16.63A5.64,5.64,0,0,0,63.07,12.51Zm14,0a4.84,4.84,0,0,0-3.6-1.39,5.42,5.42,0,0,0-2.64.62,4.08,4.08,0,0,0-1.75,1.83,6.81,6.81,0,0,0-.61,3.06l-1.33-4.46a6.1,6.1,0,0,1,1.6-2.45,7.5,7.5,0,0,1,2.55-1.6,8.54,8.54,0,0,1,3-.56,9,9,0,0,1,4.17,1,7.15,7.15,0,0,1,2.92,2.85A9.26,9.26,0,0,1,82.55,16v11.7H78.48V16.63A5.64,5.64,0,0,0,77.11,12.51Z"/><path class="a" d="M101.66,16a5.08,5.08,0,0,0-.47-2.07A4.72,4.72,0,0,0,100,12.37a5.17,5.17,0,0,0-1.75-1A6.45,6.45,0,0,0,96.12,11a5.25,5.25,0,0,0-4.77,2.82,6.74,6.74,0,0,0-.74,3.26v1.58a6.21,6.21,0,0,0,.76,3.14,5.25,5.25,0,0,0,2,2.05,5.81,5.81,0,0,0,2.88.72,5,5,0,0,0,3-.81,5.51,5.51,0,0,0,1.68-2h4.43A8.65,8.65,0,0,1,103.64,25a9,9,0,0,1-3.06,2.25,11.07,11.07,0,0,1-9.36-.42,9.14,9.14,0,0,1-3.53-3.58,11,11,0,0,1-1.29-5.42,11,11,0,0,1,1.26-5.41,8.9,8.9,0,0,1,3.49-3.55A10.29,10.29,0,0,1,96.3,7.56a10,10,0,0,1,5,1.22,9,9,0,0,1,3.41,3.42A10.32,10.32,0,0,1,106,17.32c0,.33,0,.67,0,1s-.06.68-.11,1H89.93L90,16Z"/><path class="a" d="M114.08,1.08V27.72H110V1.08Z"/><path class="a" d="M133.38,16a5.25,5.25,0,0,0-.47-2.07,4.74,4.74,0,0,0-1.19-1.58,5,5,0,0,0-1.74-1,6.51,6.51,0,0,0-2.15-.34,5.38,5.38,0,0,0-2.79.73,5.54,5.54,0,0,0-2,2.09,6.74,6.74,0,0,0-.73,3.26v1.58a6.32,6.32,0,0,0,.75,3.14,5.38,5.38,0,0,0,2,2.05,5.86,5.86,0,0,0,2.88.72,5,5,0,0,0,3-.81,5.48,5.48,0,0,0,1.67-2h4.43A8.77,8.77,0,0,1,135.36,25a9.22,9.22,0,0,1-3.06,2.25,11.07,11.07,0,0,1-9.36-.42,9.07,9.07,0,0,1-3.53-3.58,11,11,0,0,1-1.3-5.42,11,11,0,0,1,1.26-5.41,8.92,8.92,0,0,1,3.5-3.55A10.25,10.25,0,0,1,128,7.56a10,10,0,0,1,5,1.22,8.94,8.94,0,0,1,3.4,3.42,10.22,10.22,0,0,1,1.24,5.12c0,.33,0,.67,0,1s-.06.68-.11,1H121.64l0-3.31Z"/><path class="a" d="M144.68,27.2a7.29,7.29,0,0,1-2.9-2.31,6.14,6.14,0,0,1-1.17-3.25h4.25a2.93,2.93,0,0,0,1.19,2.08,4.27,4.27,0,0,0,2.77.87,5.57,5.57,0,0,0,2-.31,2.61,2.61,0,0,0,1.22-.84,2,2,0,0,0,.42-1.23,1.68,1.68,0,0,0-.63-1.35,5.07,5.07,0,0,0-1.66-.86c-.68-.23-1.43-.45-2.25-.65s-1.63-.44-2.45-.72a11.07,11.07,0,0,1-2.25-1.06,5.13,5.13,0,0,1-1.65-1.69,5,5,0,0,1-.63-2.6,4.85,4.85,0,0,1,.93-2.88,6.57,6.57,0,0,1,2.65-2.07,9.85,9.85,0,0,1,4-.77,9.39,9.39,0,0,1,3.94.77,6.38,6.38,0,0,1,2.65,2.2,6.59,6.59,0,0,1,1.08,3.4h-4.11a3,3,0,0,0-1.06-2.1,4,4,0,0,0-2.64-.81,5.24,5.24,0,0,0-1.84.28,2.56,2.56,0,0,0-1.13.78,1.79,1.79,0,0,0-.38,1.17,1.71,1.71,0,0,0,.61,1.38,5.15,5.15,0,0,0,1.6.89,21.57,21.57,0,0,0,2.2.66c.8.21,1.61.45,2.41.72A10.9,10.9,0,0,1,154.13,18a5.4,5.4,0,0,1,1.67,1.66,4.83,4.83,0,0,1,.69,2.56,5.13,5.13,0,0,1-.92,3,6.22,6.22,0,0,1-2.63,2.11,9.69,9.69,0,0,1-4.05.77A10,10,0,0,1,144.68,27.2Z"/><path class="a" d="M163.91,27.2a7.22,7.22,0,0,1-2.9-2.31,6,6,0,0,1-1.17-3.25h4.25a2.91,2.91,0,0,0,1.18,2.08,4.3,4.3,0,0,0,2.78.87,5.51,5.51,0,0,0,2-.31,2.7,2.7,0,0,0,1.23-.84,2,2,0,0,0,.41-1.23,1.68,1.68,0,0,0-.63-1.35A5.11,5.11,0,0,0,169.4,20c-.69-.23-1.44-.45-2.25-.65s-1.64-.44-2.45-.72a10.59,10.59,0,0,1-2.25-1.06,5.06,5.06,0,0,1-1.66-1.69,5,5,0,0,1-.63-2.6,4.8,4.8,0,0,1,.94-2.88,6.47,6.47,0,0,1,2.64-2.07,9.85,9.85,0,0,1,4-.77,9.43,9.43,0,0,1,4,.77,6.42,6.42,0,0,1,2.64,2.2,6.5,6.5,0,0,1,1.08,3.4h-4.1a3,3,0,0,0-1.06-2.1,4,4,0,0,0-2.65-.81,5.28,5.28,0,0,0-1.84.28,2.56,2.56,0,0,0-1.13.78,1.85,1.85,0,0,0-.38,1.17,1.74,1.74,0,0,0,.61,1.38,5.21,5.21,0,0,0,1.61.89,22.14,22.14,0,0,0,2.19.66c.81.21,1.61.45,2.41.72A11,11,0,0,1,173.36,18,5.51,5.51,0,0,1,175,19.62a4.83,4.83,0,0,1,.68,2.56,5.12,5.12,0,0,1-.91,3,6.28,6.28,0,0,1-2.63,2.11,9.69,9.69,0,0,1-4,.77A10,10,0,0,1,163.91,27.2Z"/><path class="a" d="M184.64,22.79l-4.35,9.93h-2.67l2.56-9.93Z"/><path class="a" d="M208.22,7.94A9.29,9.29,0,0,1,210.62,9a7.53,7.53,0,0,1,1.85,1.64V1.08h4.14V27.72h-4.14v-3a7.24,7.24,0,0,1-1.62,1.66,8.48,8.48,0,0,1-2.32,1.2,9.07,9.07,0,0,1-2.94.45,8.73,8.73,0,0,1-4.71-1.31,9.52,9.52,0,0,1-3.39-3.64,11.08,11.08,0,0,1-1.26-5.38,10.87,10.87,0,0,1,1.26-5.34,9.06,9.06,0,0,1,8.14-4.81A9.28,9.28,0,0,1,208.22,7.94Zm-4.66,3.94a5.82,5.82,0,0,0-2.25,2.21,7,7,0,0,0-.86,3.62,7.29,7.29,0,0,0,.86,3.66,6,6,0,0,0,2.25,2.32,5.73,5.73,0,0,0,2.9.79,5.87,5.87,0,0,0,2.91-.77,6,6,0,0,0,2.24-2.29,7.29,7.29,0,0,0,.86-3.64,7.14,7.14,0,0,0-.86-3.61,5.89,5.89,0,0,0-2.24-2.27,5.77,5.77,0,0,0-2.91-.78A6,6,0,0,0,203.56,11.88Z"/><path class="a" d="M235.9,16a5.24,5.24,0,0,0-.46-2.07,4.88,4.88,0,0,0-1.19-1.58,5.17,5.17,0,0,0-1.75-1,6.45,6.45,0,0,0-2.14-.34,5.25,5.25,0,0,0-4.77,2.82,6.74,6.74,0,0,0-.74,3.26v1.58a6.21,6.21,0,0,0,.76,3.14,5.31,5.31,0,0,0,2,2.05,5.81,5.81,0,0,0,2.88.72,5,5,0,0,0,3-.81,5.48,5.48,0,0,0,1.67-2h4.43A8.65,8.65,0,0,1,237.88,25a9,9,0,0,1-3.06,2.25,11.07,11.07,0,0,1-9.36-.42,9.11,9.11,0,0,1-3.52-3.58,10.87,10.87,0,0,1-1.3-5.42,11,11,0,0,1,1.26-5.41,8.9,8.9,0,0,1,3.49-3.55,10.32,10.32,0,0,1,5.15-1.26,10,10,0,0,1,5,1.22A9,9,0,0,1,239,12.2a10.32,10.32,0,0,1,1.24,5.12c0,.33,0,.67,0,1s-.06.68-.11,1H224.17l0-3.31Z"/><path class="a" d="M248.32,1.08V27.72h-4.1V1.08Z"/><path class="a" d="M253.94.76a2.64,2.64,0,0,1,3.71,0,2.53,2.53,0,0,1,.75,1.87,2.55,2.55,0,0,1-.75,1.87,2.64,2.64,0,0,1-3.71,0,2.56,2.56,0,0,1-.76-1.87A2.54,2.54,0,0,1,253.94.76Zm3.89,7.12V27.72h-4.11V7.88Z"/><path class="a" d="M270.9,24.05l5.61-16.17h4.36l-7.56,19.84h-4.9L260.89,7.88h4.39Z"/><path class="a" d="M297.86,16a5.08,5.08,0,0,0-.47-2.07,4.74,4.74,0,0,0-1.19-1.58,5,5,0,0,0-1.74-1,6.49,6.49,0,0,0-2.14-.34,5.33,5.33,0,0,0-2.79.73,5.39,5.39,0,0,0-2,2.09,6.63,6.63,0,0,0-.74,3.26v1.58a6.32,6.32,0,0,0,.75,3.14,5.34,5.34,0,0,0,2.06,2.05,5.81,5.81,0,0,0,2.88.72,5,5,0,0,0,3-.81,5.61,5.61,0,0,0,1.68-2h4.42A8.62,8.62,0,0,1,299.84,25a9.22,9.22,0,0,1-3.06,2.25,11.07,11.07,0,0,1-9.36-.42,9.14,9.14,0,0,1-3.53-3.58,11,11,0,0,1-1.29-5.42,11,11,0,0,1,1.26-5.41,8.9,8.9,0,0,1,3.49-3.55,10.29,10.29,0,0,1,5.15-1.26,10,10,0,0,1,5,1.22,8.94,8.94,0,0,1,3.4,3.42,10.22,10.22,0,0,1,1.24,5.12c0,.33,0,.67,0,1s-.06.68-.11,1H286.12l0-3.31Z"/><path class="a" d="M310.28,7.88V27.72h-4.11V7.88Zm-.78,4.72A8,8,0,0,1,310.84,10a6,6,0,0,1,2.23-1.76,7.38,7.38,0,0,1,3.15-.63v4.25h-1.05a7.17,7.17,0,0,0-2,.27,3.66,3.66,0,0,0-1.55.88,4.06,4.06,0,0,0-1,1.67,8.71,8.71,0,0,0-.34,2.65l-1.23-1.44A11.33,11.33,0,0,1,309.5,12.6Z"/><path class="a" d="M331.19,7.88,336,26.42h-1.37l4.9-18.54h4.28l4.72,18.54h-1.37L352,7.88h4l-6.16,19.84h-4.32l-4.79-17.6h1.62l-4.82,17.6h-4.32L327,7.88Z"/><path class="a" d="M363.16,1.08V27.72h-4.1V1.08Zm8.61,11.43a4.88,4.88,0,0,0-3.6-1.39,5.35,5.35,0,0,0-2.63.62,4.19,4.19,0,0,0-1.75,1.83,6.67,6.67,0,0,0-.63,3.06l-1.08-4.46a5.84,5.84,0,0,1,1.48-2.45,6.84,6.84,0,0,1,2.54-1.6,9.15,9.15,0,0,1,3.22-.56,8.42,8.42,0,0,1,4,1,7,7,0,0,1,2.83,2.85,9.59,9.59,0,0,1,1,4.66v11.7h-4.07V16.63A5.64,5.64,0,0,0,371.77,12.51Z"/><path class="a" d="M393.42,8a8.68,8.68,0,0,1,2.29,1.19,7.73,7.73,0,0,1,1.58,1.54V7.88h4.14V27.72h-4.14V24.77a7.24,7.24,0,0,1-1.62,1.6,9.21,9.21,0,0,1-2.34,1.21,9,9,0,0,1-3,.46,8.7,8.7,0,0,1-4.68-1.31,9.38,9.38,0,0,1-3.36-3.64,11.19,11.19,0,0,1-1.25-5.38,10.87,10.87,0,0,1,1.26-5.34,9.06,9.06,0,0,1,8.1-4.81A9,9,0,0,1,393.42,8Zm-5,3.85a5.89,5.89,0,0,0-2.25,2.21,7,7,0,0,0-.86,3.62,7.29,7.29,0,0,0,.86,3.66,6.06,6.06,0,0,0,2.25,2.32,5.73,5.73,0,0,0,2.9.79,5.87,5.87,0,0,0,2.91-.77,6,6,0,0,0,2.24-2.29,7.29,7.29,0,0,0,.86-3.64,7.14,7.14,0,0,0-.86-3.61,5.89,5.89,0,0,0-2.24-2.27,5.77,5.77,0,0,0-2.91-.78A6,6,0,0,0,388.38,11.88Z"/><path class="a" d="M405.14,7.88h11.3v3.35h-11.3ZM411.62,3V22.21a2.16,2.16,0,0,0,.5,1.6,2.57,2.57,0,0,0,1.8.49h2.52v3.42H413.2a7.79,7.79,0,0,1-3-.54,4.06,4.06,0,0,1-2-1.75,6.33,6.33,0,0,1-.7-3.22V3Z"/><path class="a" d="M434.12,16a5.25,5.25,0,0,0-.47-2.07,4.74,4.74,0,0,0-1.19-1.58,5,5,0,0,0-1.74-1,6.55,6.55,0,0,0-2.15-.34,5.38,5.38,0,0,0-2.79.73,5.46,5.46,0,0,0-2,2.09,6.74,6.74,0,0,0-.73,3.26v1.58a6.32,6.32,0,0,0,.75,3.14,5.38,5.38,0,0,0,2.05,2.05,5.86,5.86,0,0,0,2.88.72,5,5,0,0,0,3-.81,5.48,5.48,0,0,0,1.67-2h4.43A8.77,8.77,0,0,1,436.1,25,9.22,9.22,0,0,1,433,27.2a11.07,11.07,0,0,1-9.36-.42,9.07,9.07,0,0,1-3.53-3.58,11,11,0,0,1-1.3-5.42,11,11,0,0,1,1.26-5.41,8.92,8.92,0,0,1,3.5-3.55,10.25,10.25,0,0,1,5.14-1.26,10,10,0,0,1,5,1.22,8.94,8.94,0,0,1,3.4,3.42,10.22,10.22,0,0,1,1.24,5.12c0,.33,0,.67,0,1s-.06.68-.11,1H422.38l0-3.31Z"/><path class="a" d="M450.1,24.05l5.62-16.17h4.35l-7.56,19.84h-4.89L440.09,7.88h4.4Z"/><path class="a" d="M477.06,16A5.24,5.24,0,0,0,476.6,14a4.88,4.88,0,0,0-1.19-1.58,5.17,5.17,0,0,0-1.75-1,6.45,6.45,0,0,0-2.14-.34,5.25,5.25,0,0,0-4.77,2.82A6.74,6.74,0,0,0,466,17.1v1.58a6.21,6.21,0,0,0,.76,3.14,5.31,5.31,0,0,0,2.05,2.05,5.81,5.81,0,0,0,2.88.72,5,5,0,0,0,3-.81,5.48,5.48,0,0,0,1.67-2h4.43A8.65,8.65,0,0,1,479,25,9,9,0,0,1,476,27.2a11.07,11.07,0,0,1-9.36-.42,9.11,9.11,0,0,1-3.52-3.58,10.87,10.87,0,0,1-1.3-5.42,11,11,0,0,1,1.26-5.41,8.9,8.9,0,0,1,3.49-3.55,10.32,10.32,0,0,1,5.15-1.26,10.07,10.07,0,0,1,5,1.22,9,9,0,0,1,3.4,3.42,10.32,10.32,0,0,1,1.24,5.12c0,.33,0,.67,0,1s-.06.68-.1,1H465.33l0-3.31Z"/><path class="a" d="M489.48,7.88V27.72h-4.1V7.88Zm-.77,4.72A8,8,0,0,1,490,10a6,6,0,0,1,2.23-1.76,7.38,7.38,0,0,1,3.15-.63v4.25h-1a7.17,7.17,0,0,0-2,.27,3.6,3.6,0,0,0-1.55.88,4,4,0,0,0-1,1.67,8.68,8.68,0,0,0-.35,2.65l-1.22-1.44A11.33,11.33,0,0,1,488.71,12.6Z"/></svg>