<svg xmlns="http://www.w3.org/2000/svg" viewBox="0 0 341.83 144.22"><defs><style>.a{fill:none;stroke:#7f7f7f;stroke-miterlimit:10;}.b{fill:#7f7f7f;}</style></defs><path class="a" d="M345.35,1c-2.56,8.84-7,17.33-10.89,25.63-5.41,11.45-11.29,22.8-17.66,33.74q-7.12,12.23-14.34,24.38c-1.42,2.41-6.16,7.28-5.95,10.44" transform="translate(-6.33)"/><path class="b" d="M15.61,113H16c.27,0,.41.17.41.4v1a7.88,7.88,0,0,1-.62,2,.18.18,0,0,1,.21.2,22.63,22.63,0,0,1,3.8-1.39,1.94,1.94,0,0,0,.39.6c0,.39-1.8,1.39-5.38,3a5,5,0,0,0-.81,2h.21a7,7,0,0,1,3.39-1q1.8,0,1.8,5v14.17l-.2.4c.13,0,.2.06.2.19a26.78,26.78,0,0,1,4.58-.38h.6c.8.08,1.2.28,1.2.59v.2q0,1.14-19.08,2.6l-.38-.6v-.21q.15-.66,6.08-1.19a37.56,37.56,0,0,1-.79-5.79,2.14,2.14,0,0,0,.4-1c.13-5.61.2-8.81.2-9.58h.19c-.26-.67-.46-1-.6-1a26.1,26.1,0,0,1,1-3.59h-.19A20,20,0,0,1,8,121H7.82c-.19,0-.38-.2-.6-.6.49-.52,2.68-1.52,6.6-3C14.68,114.45,15.28,113,15.61,113Zm-2.2,25.15-.19,2h.19c3.33-.16,5-.43,5-.79a15.45,15.45,0,0,1-.59-4.18v-.81h-.2c-2.8.67-4.2,1.26-4.2,1.79Zm2-11.18h-1.2q-.41,0-.6,2.4a.18.18,0,0,1,.2.21,4.77,4.77,0,0,1,2.19-.41h1.8v-2.39Zm-1.8,4.19v2.2l.2.4c2.66-.59,4-1,4-1.2v-2.19c0-.27-.2-.41-.6-.41A16.54,16.54,0,0,1,13.62,131.14Zm.39-8.77v3H17.4c.27,0,.41-.2.41-.6a15.35,15.35,0,0,0-.41-3.39A12.8,12.8,0,0,0,14,122.37Z" transform="translate(-6.33)"/><path class="b" d="M43.15,119.12q.72,0,.81,1.77c.53,1.49,1,2.23,1.43,2.23a4.17,4.17,0,0,0,1,.35.55.55,0,0,1,.14.36v0c0,.39-.94,1.08-2.83,2.07a7.09,7.09,0,0,0,0,.71v1.67a0,0,0,0,1,0,0,0,0,0,0,0,0,.05l0,.51v1.67h0c1.52-.81,2.32-1.21,2.37-1.21l.11.14c-.09.13-.94.87-2.53,2.23a.5.5,0,0,0-.05.27c0,.86.07,3.75.21,8.64a1.64,1.64,0,0,0,.05.3l-.05.11c0,.07,0,.1.05.1,0,1.71-.21,2.68-.62,2.89a.74.74,0,0,1-.4.1H42.5q-.69,0-2.63-4.41a14.64,14.64,0,0,0-1.73-2.32,7.23,7.23,0,0,0-1.82-.91.8.8,0,0,1-.46-.71v-.05c0-.43.53-.89,1.58-1.37a13,13,0,0,1,1.57-.92,19.32,19.32,0,0,1,2.83-1.77l0-.09c0-1.92.09-3.58.16-5a22.38,22.38,0,0,1-5,1.37c-.55-.14-.83-.36-.83-.65v-.06q0-.63,2.1-1c1.66-.51,2.91-.93,3.74-1.27,0,0,0-.12,0-.3q0-5.62.65-5.62A1.18,1.18,0,0,1,43.15,119.12ZM38,135.92V136a20.34,20.34,0,0,1,2.58,4.2,17.45,17.45,0,0,0,1.62,2.48h.05l-.05-.09c-.2-4.68-.3-7.81-.3-9.36h0Q40.74,134.06,38,135.92Zm5.78-14.22-.05.61V124l-.06.5h.06a6.81,6.81,0,0,0,2-.85v0A5.81,5.81,0,0,1,43.91,122a.58.58,0,0,1-.09-.25Zm6.06-7.65h.11c.81.12,1.63.85,2.48,2.18a5,5,0,0,1,.86,2v.32l-.05.24a6.76,6.76,0,0,1,1.07-.19c.15,0,.25.15.3.44s-.58.52-1.72,1.07a5.37,5.37,0,0,0-1.17,2.78c-.1.87-.19,1.83-.26,2.88,0,.13,0,.61,0,1.43,0,.35,0,.62,0,.8.52-.32,1.18-1.49,2-3.49.75-2.59,1.34-3.89,1.77-3.89h.14c.38.07.57.36.57.86a21.39,21.39,0,0,1-1.57,4.5,9.06,9.06,0,0,1-.81,1.27h.09a11,11,0,0,1,2.53-.62c.41,0,.62.11.62.21V127a3.94,3.94,0,0,1-1.53.9,16.83,16.83,0,0,0-1.57,3.9c-.66,1.54-1,2.33-1,2.39a26.29,26.29,0,0,1,3-.56q.87-2.88,1.26-2.88h.16c.29,0,.5.23.61.7a12.3,12.3,0,0,1-.36,1.92q.24,0,1.26-.09c.22,0,.36.15.4.45s-.53.67-1.61.9a.75.75,0,0,0-.55.77,17.37,17.37,0,0,1-1.77,4.21v0a15.17,15.17,0,0,1,3.53,1.86,1.14,1.14,0,0,1,.32.62c0,.36-.31.54-.92.54a18.87,18.87,0,0,1-4.25-1.51h-.11a3.45,3.45,0,0,1-2.12,1.16,1.5,1.5,0,0,1-.46,0h-.3c-1,0-2.46-.65-4.5-2-1.29-.57-1.93-1.24-1.93-2q0-1.61,5.22-3.44c.84-.14,1.26-.43,1.26-.86a30,30,0,0,0,1.78-4l.65-1.32h-.05c-3.45,1.66-5.56,2.48-6.33,2.48-.51,0-.76-.24-.76-.6v-.21c0-.35.68-.74,2-1.16a14.06,14.06,0,0,1,2.69-1v-.05q-.81-.7-.81-3.66v-.14a9,9,0,0,1,.76-3.5h0L48.11,122a6.22,6.22,0,0,1-1.56.51c-.58-.1-.86-.33-.86-.71s.45-.82,1.37-1a51.13,51.13,0,0,1,5.57-1.87,11.73,11.73,0,0,0-2.88-3.3,1.07,1.07,0,0,1-.62-.9C49.13,114.42,49.37,114.19,49.83,114.05Zm-4.29,24.72a3.63,3.63,0,0,0,1.17,1.76A7.44,7.44,0,0,0,49.94,142a3.69,3.69,0,0,0,2.64-1.27,15.37,15.37,0,0,0-2.69-1c-.74-.32-1.11-.71-1.11-1.16v-.3a5,5,0,0,1,.7-1.47v0C46.86,137.57,45.54,138.26,45.54,138.77Zm5-.81v.09a30.75,30.75,0,0,1,3.08,1,22.29,22.29,0,0,0,1.48-3.69l-3.45.76C51.32,136.72,51,137.35,50.55,138Z" transform="translate(-6.33)"/><path class="b" d="M69.73,137.38h.35q1.2,0,4.22,3.55v.18q-.09.33-.84.66-4.06-2.09-4.06-3.71v-.33C69.43,137.5,69.54,137.38,69.73,137.38Zm6.59-20.92c.34,0,.74.73,1.18,2.2v.84H78A3.11,3.11,0,0,1,79.7,119q.63,0,1.35,1c0,.63-.9,1-2.7,1.18H77.5l.51,4.55a1.26,1.26,0,0,0-.17.67l6.24-1.69c.79.86,1.19,1.42,1.19,1.69-.24.59-2.1,2.72-5.57,6.42V133a11.7,11.7,0,0,1,2.2-.33h.49c.15,0,.49.44,1,1.33v.18c0,.2-1.41.59-4.22,1.18a10.74,10.74,0,0,1-1.69,1,9.89,9.89,0,0,1,1,3.2v.17a.31.31,0,0,1-.35.34,7.34,7.34,0,0,1-2.36-3.55c-1.46,0-2.19-.29-2.19-.85q-.86-1.6-2.69-10.79c.16-.45.33-.67.49-.67h.51c.59,0,1.15,1.24,1.69,3.71.11,0,.17,0,.17.16a21.38,21.38,0,0,1,3-1,32.6,32.6,0,0,1-1.19-8.95V117Zm-2.19,14c.57,2.81,1,4.22,1.35,4.22a58,58,0,0,0,6.75-7.08v-.18q-5.4,2-7.93,2.71Zm8.1,5.22h.33q.25,0,.51.69c0,1.72-.39,2.79-1.17,3.2h-.18c-.36,0-.64-.62-.84-1.85A2.74,2.74,0,0,1,82.23,135.69Zm5.91-.49a2.38,2.38,0,0,1,.66,1.69c-1.35,2.74-2.59,4.15-3.7,4.22l-.18-.36v-.33Q86.27,135.2,88.14,135.2Z" transform="translate(-6.33)"/><path class="b" d="M107.54,115.53a4,4,0,0,0,.67,1v.67l-1.51,2.35v.51c.78,0,1.18.34,1.18,1l.33-.17-.16-.85c0-.28.23-.45.67-.51q1.4,0,3,4.73h.18a8.61,8.61,0,0,0,2.86-2.86c.23,0,.34.14.34.33v.84a.16.16,0,0,1-.18.18l.18.33c0,1.17-.79,2.3-2.36,3.38a23.8,23.8,0,0,0,2.53,5.24c1.83-4.18,3.29-6.26,4.38-6.26.56,0,.9.4,1,1.19-1.76,3.16-3.11,5.74-4.06,7.76a13.55,13.55,0,0,0,1.53,3.55h.16q.82-.4,3.72-6.42h.16q.33.06.33.33-2,9.13-3.37,9.13c0,.33-.11.49-.33.49q-1.21-.22-3.2-4.89h-.18q-2.37,2.87-3.71,2.87h-.17c-.58,0-.91-.17-1-.51v-.34c2.36-2.27,3.54-3.85,3.54-4.72a34.43,34.43,0,0,0-3.38-6.58h-.16a2.58,2.58,0,0,0-2.19,1.36v2.86q0,.33.33.33a13.74,13.74,0,0,1,3.22-1.51,1.32,1.32,0,0,1,.16.51q0,1.52-3.38,3.54c-.44.58-.67,3.06-.67,7.43v.34c-.07.34-.52.5-1.35.5-2.7-2.73-4-4.64-4-5.74a.14.14,0,0,0,.15-.16,19.7,19.7,0,0,1,2.87,2.53c.21-.22.38-1.46.51-3.73l-.33-.15a12.68,12.68,0,0,1-4,.66h-.17q-.26,0-.51-.51v-1c.1-.33,1.57-.72,4.39-1.18.56-.34.85-.56.85-.68V129.2c0-.23-.17-.35-.51-.35a34.79,34.79,0,0,1-4.4,1c-1.69-.15-2.53-.43-2.53-.84v-.67c0-.4,1.58-.74,4.73-1a22.65,22.65,0,0,1,2.71-1c-.12-1.31-.18-2.27-.18-2.86v-2.69c-1.27,2.07-2.16,3.25-2.69,3.53h-.18A.29.29,0,0,1,103,124q1.74-8.44,4.38-8.44Zm.67,5.73c0,.23,0,.35-.16.35l.16.34v.33c0,.73.06,1.85.18,3.37h.17a1.47,1.47,0,0,0,1.34-.66C109,122.5,108.47,121.26,108.21,121.26Zm5.57-5.06h.51c3.16,2.38,4.73,4.23,4.73,5.57l-.33.18h-.35a32.52,32.52,0,0,1-5.22-4.73v-.34C113.12,116.71,113.34,116.48,113.78,116.2Z" transform="translate(-6.33)"/><path class="b" d="M149.89,115.23l.56.7v.44a8.42,8.42,0,0,1-2,1.43c0,.84-.09,1.26-.28,1.26l.28.56v.29h-.16c0,.35.06.52.18.52.1,2.53.16,4.44.16,5.73v2q0,13.71-2.08,14.83c-1.32,0-3.22-1.82-5.68-5.45v-.1h-.07c2.25,1.8,3.67,2.7,4.24,2.7a26.28,26.28,0,0,0,1.23-9.12v-3.64q-5.7,5.88-6.06,7.26l-.69.6c-.15,0-.27-.28-.35-.84h-.41a2.36,2.36,0,0,1-1.37.84q-1.37-1.43-3.09-11v-.45c.07-.25.33-.37.79-.37a3,3,0,0,1,1.72,3c.11,0,.16.23.16.68h.37a51,51,0,0,1,7.73-1.86l1.34.19.19-1c0-.77-.11-2.7-.35-5.8a46.33,46.33,0,0,1-5.38.71h-4c-1.14-.31-1.71-.58-1.71-.83v-.63a.86.86,0,0,1,.81-.55,7.28,7.28,0,0,0,2,.34h1Q141.75,117.73,149.89,115.23Zm-12.27,14.38c.13,1.86.43,2.79.91,2.79l1.18-.66h.63a2.21,2.21,0,0,0,0,.38q3.3-3,3.6-4.62h-.4A19.36,19.36,0,0,0,137.62,129.61Z" transform="translate(-6.33)"/><path class="b" d="M167.5,114.53h.18c.22,0,.33.33.33,1h1.18a20.69,20.69,0,0,1,10.81,3,1.24,1.24,0,0,1,.16.51,1.13,1.13,0,0,1-.49.18q-8.19-2.2-11-2.2h-1.2q-.3.12-2.86,6.91a54.13,54.13,0,0,1-3.2,6.75h-.18c-.22,0-.33-.11-.33-.34v-.51q0-1,5.06-13v-.16a1.25,1.25,0,0,1-.18-.68C166,116,166.52,115.54,167.5,114.53Zm7.77,7.92a1.1,1.1,0,0,1,.85,1.18,50.58,50.58,0,0,1-4.73,10l-.51.33h-.5c-.42,0-.82-.73-1.19-2.19l.35-.18.84.69h.34q3.71-7.52,3.71-8.11a45.94,45.94,0,0,0-6.08,1.87v2.53c0,2.25.05,5.62.17,10.12a1.24,1.24,0,0,0,.51.16q2.63-.84,7.42-2.87c-.22-2.16-.33-3.79-.33-4.88l.33-.18L178,136c0,.72-1.41,1.56-4.22,2.54q-3.9,1.86-4.73,1.86h-.33q-1.53,0-1.53-1.86V126.67c0-.13-.45-.35-1.36-.66v-.36l1.69-1.33a.16.16,0,0,1,.18-.18l.84.18Q174.31,122.63,175.27,122.45Zm5.06,0c.68,0,1,1.47,1,4.4v2.86c0,1.35-.23,2-.68,2s-.89-2.93-1-8.78Zm5.24-8.43h.34c.56,0,.84,1.06.84,3.2v9.45q0,4.15.33,17.21a1.56,1.56,0,0,1-.51.34h-.33c-.36,0-.76-.85-1.18-2.53-2.14-2.48-3.21-3.82-3.21-4.05a.15.15,0,0,0,.17-.17,19.2,19.2,0,0,1,3.2,2.37h.35l-.17-1.18v-.84q0-15-.34-23.13C185.23,114.24,185.4,114,185.57,114Z" transform="translate(-6.33)"/><path class="b" d="M209.2,114.35a3.73,3.73,0,0,1,.67,1.18l1.68-.16h1.87c.17,0,.39.22.66.67v1l-.49,2.53a1.17,1.17,0,0,0,.67.33v.16l-1,1.36v.84q1,0,1,.33a9.66,9.66,0,0,0-1.86,3h-.34c-.44-.16-.67-.33-.67-.51-1,.43-1.52,1-1.52,1.69V128l-.16,1.68a.15.15,0,0,1,.16.16c1.92-.34,3-.51,3.37-.51h.51c.22,0,.33.16.33.35s-1.34,1-4,2.18a1.31,1.31,0,0,0-.17.69v.84a29.54,29.54,0,0,0,4.21-1.35v.33a9,9,0,0,1-3.86,3c-.2,0-.32.28-.35.84V139l-.16.84a19.46,19.46,0,0,0,6.41,3v.35c-.17.45-.34.67-.51.67q-7.16,0-14.85-9.28h-.33a52.72,52.72,0,0,0-2.71,5.4l-.34.17h-.5c-.11,0-.33-.22-.67-.68.08-2.81.3-4.22.67-4.22h.17l.84.18a10.41,10.41,0,0,0,1.36-2.36,20.8,20.8,0,0,1-4.06-2.71v-.51a1.33,1.33,0,0,0,.51-.16,15.92,15.92,0,0,1,4.22,2.36,47.76,47.76,0,0,0,3.55-5.06v-.18a22.09,22.09,0,0,1-3.89,1.2h-.17q-.25,0-.51-.51v-.18q0-.9,3.37-6.57v-.51c-2.2-.81-3.33-1.37-3.37-1.69q.1-1,.51-1h.33q4.06,1.29,4.06,2.2v.68a32.58,32.58,0,0,1-2.2,5.07L204,125a1.41,1.41,0,0,1,1.35.84v.67q0,.72-4,6.41v.18a96.17,96.17,0,0,0,7.93,6.57h.17v-.17c-.29-2.36-.69-3.54-1.19-3.54s-.67-.16-.67-.5v-.34l1-1v-2h-.18a2,2,0,0,1-1,.33q-1.68-.21-1.68-.66v-.18a9.85,9.85,0,0,1,2.88-1.35V127a10.51,10.51,0,0,0-1.35.33h-.69c-.18,0-.4-.22-.67-.67v-.17c1.81-1,2.71-1.74,2.71-2.36v-1.53c-1.65.24-2.56.35-2.71.35q-.84-.12-.84-.51v-.33c.07-.33,1.19-.78,3.37-1.35l.18-.85v-2.53h-1.2a1.13,1.13,0,0,1-1.17-.68v-.16c0-.42.73-.7,2.19-.85C208.66,114.8,208.94,114.35,209.2,114.35Zm.51,6.08c1.57,0,2.35-.45,2.35-1.35a9.16,9.16,0,0,0,.69-2.53l-.35-.18-2.69,1Zm0,2V124c1.23,0,1.84-.74,1.84-2.2h-.16C210.27,121.91,209.71,122.14,209.71,122.45Z" transform="translate(-6.33)"/><path class="b" d="M242,114.18a1.75,1.75,0,0,1,1,1.51v.17l-2.69,2.36a40.73,40.73,0,0,1-2,4.06v.16c.3.56.53.84.68.84l4-1.33c1.34,0,2,1.85,2,5.55v1.69l.35.17.84-.17c.57.15.85.32.85.51v.17c0,.17-.62.5-1.87,1l1,8.11-.17.84h2.35c.24,0,.36.15.36.34v.17c0,.47-1.13.81-3.38,1h-2.2c-3.11,0-6.44-1.35-10-4.06a7.75,7.75,0,0,0-4-1.35.33.33,0,0,0-.33.35V139a29.68,29.68,0,0,0,.16,3c-.14,1.35-.48,2-1,2-.68,0-1-.9-1-2.69v-.17a2.4,2.4,0,0,0,.51-1.52v-1.19c0-4.83-.17-7.86-.51-9.11a2,2,0,0,0,.33-1v-1a3.8,3.8,0,0,0-.84-2.53,4.39,4.39,0,0,1,.68-1.69v-4.39q0-.26.51-.51c.67,0,1,.45,1,1.35v.51c.4,0,1-1.12,1.69-3.37l-.84-.18h-3c-.16,0-.32-.16-.5-.49v-.51c0-.46,1.07-.69,3.2-.69h.18c1.79,0,2.69.62,2.69,1.87q0,.83-3.38,6.57v.51a22.69,22.69,0,0,1,2.87-.33c.73,0,1.18.5,1.35,1.51a9.83,9.83,0,0,1-.16,1H234c.7,0,1.38-1,2-2.87l2.35-4.73c-1.12.12-2,.18-2.53.18h-.33q-.24,0-.51-.51v-.33q0-.75,4.73-1.53C240.29,114.85,241,114.18,242,114.18ZM228.6,125.32v3.2h.34c1.58-2,2.37-3.18,2.37-3.71A11,11,0,0,0,228.6,125.32Zm0,5.06v3.2l.18,1.18q1.51,0,4.89-4.55a9.52,9.52,0,0,0,1-2.87h-2.2c-.51,0-1.41.79-2.71,2.36A2.58,2.58,0,0,1,228.6,130.38Zm4.22-11.32c1,0,2.09,1,3.22,3l-.35.18q-3.87-1.59-3.87-2.71Zm4.06,5.91a11.72,11.72,0,0,0-.84,2.2l.16.33a15.2,15.2,0,0,1-4.22,6.93v.33q.86,0,7.26,3.88a23,23,0,0,0,4.88,1,17.92,17.92,0,0,0-1.68-3.88l.35-.18c0,.17.33.51,1,1v-.17a42.84,42.84,0,0,1-.51-4.56H243l-3.38,2h-.16l-.84-.16c0,.1-.06.16-.18.16l.18.33v1a1.12,1.12,0,0,1-.69,1.18h-.15c-.57,0-.85-1.41-.85-4.22V129.7a.14.14,0,0,1,.16-.16,2.92,2.92,0,0,1-.51-1c.46-.52.69-1.7.69-3.55Zm1.69,4.06v2.69a1.28,1.28,0,0,1-.18.68,1.19,1.19,0,0,1,.18.51c2-2.19,3-3.93,3-5.23C239.58,128.26,238.57,128.71,238.57,129Zm.16-2.37h.17a18.79,18.79,0,0,1,2.87-.5l1,.5v-.16a10.26,10.26,0,0,0-.35-2.71c-2.48.84-3.71,1.58-3.71,2.2Zm2.2,4.57h.17l2-1.2a7.81,7.81,0,0,1-.17-2A15.4,15.4,0,0,0,240.93,131.23Z" transform="translate(-6.33)"/><path class="b" d="M262.86,115.35c.46,0,.69.68.69,2v3.22c0,.22.15.34.33.34a2.72,2.72,0,0,1,1.36-.34h.15c.24,0,.36.15.36.34l-2.2,1.68v5.91h.84a7.45,7.45,0,0,1,3.38,1.85v.17c0,.22-.11.33-.34.33h-.35a10.61,10.61,0,0,1-3.37-1,1.17,1.17,0,0,0-.16.5q0,1.4.67,12.32l-.34.17h-.51q-1,0-1.51-10.81v-1.84h-.33q-2.55,5.73-3.38,5.73-.24,0-.51-.51,0-1.5,4.05-9.44v-2.71a37.14,37.14,0,0,1-6.24,2h-.51c-.18,0-.4-.22-.67-.67v-.17q0-.51,4.37-1.85a12.33,12.33,0,0,0,3.22-1.53v-2.35C261.86,116.79,262.2,115.67,262.86,115.35Zm7.44,6.09h.16c.29,0,.57.5.84,1.51h.18a11.68,11.68,0,0,1,4-1h.84a2.14,2.14,0,0,1,1.36,1.86v.51a103.18,103.18,0,0,1-1.18,10.79h.17a17.3,17.3,0,0,0,4.89-2.35,33.86,33.86,0,0,1-2-5.06c0-.23.15-.34.33-.34a41,41,0,0,0,2.87,3.87,3.62,3.62,0,0,1,.84,1.53q0,1.66-3.88,2.69a27.54,27.54,0,0,1-3.53,1.69c-.87,0-1.38-.57-1.53-1.69q1.35-9.9,1.35-10.8V124l-.33-.51q-3.76.93-4.4,1.68,0,9.79-.84,9.8c-.45,0-.84-3.33-1.18-10-.22,0-.33-.11-.33-.34v-.17c.36-.26.7-1.21,1-2.87Z" transform="translate(-6.33)"/><path class="b" d="M289.28,123.7h.5a4.59,4.59,0,0,1,1,3.22v2.2q0,5.73-1.17,5.73h-.51a1.14,1.14,0,0,1-.67-1.18c.22-2.32.33-3.9.33-4.73v-4.73Q288.77,124,289.28,123.7Zm8.77-7.41q3,2.5,3.05,8.26v1.86q0,5.11-.85,15a1.57,1.57,0,0,1-.84.51c-1-.7-2.56-2.67-4.73-5.9a6,6,0,0,0-.51-1.52h.18a50.2,50.2,0,0,1,3.7,3.89h.34l.67-13a30.94,30.94,0,0,0-1.34-8.93Zm7.6,7.25q1.74,0,7.08,6.91a1.16,1.16,0,0,1-.67,1.2,34.71,34.71,0,0,1-6.75-7.1,5.38,5.38,0,0,1-.17-.67Z" transform="translate(-6.33)"/><path class="b" d="M323.72,117q1.23,0,2.86,10.64a8.92,8.92,0,0,0-.17,1.35l.17,1h-.51c-1.12,0-1.68-1.3-1.68-3.89a57.63,57.63,0,0,0-1.36-8.77Zm6.24-1.51h.17q.51,0,4.22,2.71h.34a31.23,31.23,0,0,1,4.55-1.69,3.45,3.45,0,0,1,1,1.84,56.44,56.44,0,0,1-4.9,4.4,8.92,8.92,0,0,1,.17,1.35A29.47,29.47,0,0,1,332,128v.18h.51a8.7,8.7,0,0,0,4.39-3.2h.67c.45,0,.73,1.23.85,3.71a3.77,3.77,0,0,1,.66,2.19c-.36.79-.8,1.18-1.33,1.18v.33l.16,1.18c-2.25,1-3.38,2-3.38,3.22,0,.23-.05.85-.16,1.84l.85.18h.67a8.36,8.36,0,0,0,1.68-.18c2.15,0,3.44.8,3.89,2.38a2.83,2.83,0,0,1-1.18.33,4.62,4.62,0,0,0-2.53-.84q-1.55,0-10,2.19c-1-.23-1.51-.51-1.51-.84v-.35c0-.31,1.35-.75,4-1.34a2.45,2.45,0,0,0,2-2.37v-1c0-.24-.11-.35-.33-.35h-1.85c-.16,0-.33-.17-.51-.5v-.5c0-.19,1-.7,3.05-1.53a17.15,17.15,0,0,0,.49-3.71H333c-2.91,2.36-4.65,3.55-5.24,3.55-1-.18-1.51-.63-1.51-1.36q0-.36,5.91-6.92l.51-.85v-.33a19.08,19.08,0,0,1-2.71.33h-.67a1.14,1.14,0,0,1-1.19-.66v-.18c.59-.7,2.51-1.15,5.74-1.34l1.52-1.86v-.33h-.16a21.64,21.64,0,0,1-7.95,1.35l-.33-.51v-.33q.12-.4,5.06-1.69v-.35c-1.69-1.29-2.53-2.25-2.53-2.87A1.64,1.64,0,0,0,330,115.53Zm4.73,13.83v.34a2.38,2.38,0,0,1,.51,1.35v1.86c1.68-.69,2.53-1.14,2.53-1.35a4.58,4.58,0,0,0-1.53-3C335.19,128.78,334.69,129.06,334.69,129.36Z" transform="translate(-6.33)"/><path class="a" d="M333.63,13.23c2.28-2,4.28-4.73,6.25-7,1.53-1.74,3.83-5.87,6.39-5.75.5,2.35.16,5.09.14,7.48,0,2.85,1.64,6.06,1.17,8.74" transform="translate(-6.33)"/></svg>