<svg xmlns="http://www.w3.org/2000/svg" viewBox="0 0 85.55 97.66"><path d="M42.77,0C40.28,0,38.38,1.17,36,3L3,29.54a7.81,7.81,0,0,0-3,6A8.18,8.18,0,0,0,8.11,43.7a9.48,9.48,0,0,0,6-2.34L42.77,18.6,71.44,41.36a9.61,9.61,0,0,0,6,2.34,8.19,8.19,0,0,0,8.11-8.15,7.74,7.74,0,0,0-3-6L49.51,3C47.17,1.12,45.26,0,42.77,0Zm0,97.66c2.49,0,4.4-1.18,6.74-3.08l33-26.46a7.79,7.79,0,0,0,3-6.06,8.19,8.19,0,0,0-8.11-8.15,9.9,9.9,0,0,0-6,2.34L42.77,79,14.06,56.25a9.77,9.77,0,0,0-6-2.34A8.18,8.18,0,0,0,0,62.06a7.87,7.87,0,0,0,3,6.06L36,94.58C38.38,96.48,40.28,97.66,42.77,97.66Z"/></svg>