<svg xmlns="http://www.w3.org/2000/svg" viewBox="0 0 369.3 296.2"><defs><style>.a{fill:#007aff;}.b{fill:#bfdeff;}.c{fill:#80bcff;}</style></defs><path class="a" d="M113,39.43V201.61c0,8.36-5.52,16.68-16.52,23.06-22.07,12.74-57.87,12.74-79.91,0C5.52,218.29,0,210,0,201.61V39.43Z"/><path class="b" d="M113,32.61V194.8c0,8.35-5.52,16.67-16.52,23.06-22.07,12.73-57.87,12.73-79.91,0C5.52,211.47,0,203.15,0,194.8V32.61Z"/><path class="a" d="M113,32.61V60.4c0,8.36-5.52,16.68-16.52,23.06C74.4,96.2,38.6,96.2,16.56,83.46,5.52,77.08,0,68.76,0,60.4V32.61Z"/><ellipse class="b" cx="56.51" cy="32.62" rx="56.51" ry="32.62"/><path class="a" d="M90.33,52.16c-18.68,10.78-49,10.78-67.65,0s-18.68-28.27,0-39,49-10.79,67.64,0S109,41.37,90.33,52.16Z"/><path class="a" d="M103.2,95.61V196.26a45.21,45.21,0,0,1-6.73,4.68,71.65,71.65,0,0,1-21.69,7.81V108.1a70.84,70.84,0,0,0,21.69-7.8A44.54,44.54,0,0,0,103.2,95.61Z"/><path class="a" d="M60.64,109.72V210.37c-15.81.71-32-2.44-44.08-9.43C5.52,194.56,0,186.24,0,177.88V77.24C0,85.6,5.52,93.91,16.56,100.3,28.6,107.28,44.83,110.43,60.64,109.72Z"/><path class="b" d="M16.56,109.48a6,6,0,0,0,.79.43v42.27a8.67,8.67,0,0,1-.79-.43,46.33,46.33,0,0,1-7.69-5.52V104A45.92,45.92,0,0,0,16.56,109.48Z"/><path class="b" d="M48.65,118.67v77.47a84.12,84.12,0,0,1-22.82-4.85V113.85A84.07,84.07,0,0,0,48.65,118.67Z"/><path class="c" d="M69.74,25.8v6.53c0,2-1.29,3.92-3.87,5.4-5.18,3-13.56,3-18.73,0-2.58-1.49-3.87-3.45-3.87-5.4V25.8Z"/><path class="b" d="M65.87,31.22c-5.18,3-13.56,3-18.73,0s-5.17-7.85,0-10.81,13.55-3,18.73,0S71,28.24,65.87,31.22Z"/><polygon class="b" points="63.38 76.37 58.41 76.37 58.41 71.41 54.58 71.41 54.58 76.37 49.62 76.37 49.62 80.2 54.58 80.2 54.58 85.17 58.41 85.17 58.41 80.2 63.38 80.2 63.38 76.37"/><path class="a" d="M241.14,39.43V201.61c0,8.36-5.52,16.68-16.53,23.06-22.07,12.74-57.87,12.74-79.91,0-11-6.38-16.56-14.7-16.56-23.06V39.43Z"/><path class="b" d="M241.14,32.61V194.8c0,8.35-5.52,16.67-16.53,23.06-22.07,12.73-57.87,12.73-79.91,0-11-6.39-16.56-14.71-16.56-23.06V32.61Z"/><path class="a" d="M241.14,32.61V60.4c0,8.36-5.52,16.68-16.53,23.06-22.07,12.74-57.87,12.74-79.91,0-11-6.38-16.56-14.7-16.56-23.06V32.61Z"/><ellipse class="b" cx="184.65" cy="32.62" rx="56.51" ry="32.62"/><path class="a" d="M218.47,52.16c-18.68,10.78-49,10.78-67.65,0s-18.68-28.27,0-39,49-10.79,67.65,0S237.15,41.37,218.47,52.16Z"/><path class="a" d="M231.34,95.61V196.26a45.21,45.21,0,0,1-6.73,4.68,71.68,71.68,0,0,1-21.68,7.81V108.1a70.88,70.88,0,0,0,21.68-7.8A44.54,44.54,0,0,0,231.34,95.61Z"/><path class="a" d="M188.78,109.72V210.37c-15.81.71-32-2.44-44.08-9.43-11-6.38-16.56-14.7-16.56-23.06V77.24c0,8.36,5.52,16.67,16.56,23.06C156.75,107.28,173,110.43,188.78,109.72Z"/><path class="b" d="M144.7,109.48a6.16,6.16,0,0,0,.8.43v42.27a7.67,7.67,0,0,1-.8-.43,45.84,45.84,0,0,1-7.68-5.52V104A45.84,45.84,0,0,0,144.7,109.48Z"/><path class="b" d="M176.8,118.67v77.47A84.19,84.19,0,0,1,154,191.29V113.85A84.14,84.14,0,0,0,176.8,118.67Z"/><path class="c" d="M197.88,25.8v6.53c0,2-1.29,3.92-3.87,5.4-5.17,3-13.56,3-18.72,0-2.59-1.49-3.88-3.45-3.88-5.4V25.8Z"/><path class="b" d="M194,31.22c-5.17,3-13.56,3-18.72,0s-5.17-7.85,0-10.81,13.55-3,18.72,0S199.17,28.24,194,31.22Z"/><polygon class="b" points="191.52 76.37 186.56 76.37 186.56 71.41 182.72 71.41 182.72 76.37 177.76 76.37 177.76 80.2 182.72 80.2 182.72 85.17 186.56 85.17 186.56 80.2 191.52 80.2 191.52 76.37"/><path class="a" d="M369.28,39.43V201.61c0,8.36-5.52,16.68-16.52,23.06-22.08,12.74-57.88,12.74-79.91,0-11-6.38-16.56-14.7-16.56-23.06V39.43Z"/><path class="b" d="M369.28,32.61V194.8c0,8.35-5.52,16.67-16.52,23.06-22.08,12.73-57.88,12.73-79.91,0-11-6.39-16.56-14.71-16.56-23.06V32.61Z"/><path class="a" d="M369.28,32.61V60.4c0,8.36-5.52,16.68-16.52,23.06-22.08,12.74-57.88,12.74-79.91,0-11-6.38-16.56-14.7-16.56-23.06V32.61Z"/><ellipse class="b" cx="312.79" cy="32.62" rx="56.51" ry="32.62"/><path class="a" d="M346.62,52.16c-18.69,10.78-49,10.78-67.65,0s-18.69-28.27,0-39,49-10.79,67.64,0S365.29,41.37,346.62,52.16Z"/><path class="a" d="M359.48,95.61V196.26a44.7,44.7,0,0,1-6.73,4.68,71.58,71.58,0,0,1-21.68,7.81V108.1a70.78,70.78,0,0,0,21.68-7.8A44,44,0,0,0,359.48,95.61Z"/><path class="a" d="M316.92,109.72V210.37c-15.81.71-32-2.44-44.07-9.43-11-6.38-16.56-14.7-16.56-23.06V77.24c0,8.36,5.51,16.67,16.55,23.06C284.89,107.28,301.11,110.43,316.92,109.72Z"/><path class="b" d="M272.85,109.48a6,6,0,0,0,.79.43v42.27a7.52,7.52,0,0,1-.79-.43,45.92,45.92,0,0,1-7.69-5.52V104A45.52,45.52,0,0,0,272.85,109.48Z"/><path class="b" d="M304.94,118.67v77.47a84.19,84.19,0,0,1-22.83-4.85V113.85A84.14,84.14,0,0,0,304.94,118.67Z"/><path class="c" d="M326,25.8v6.53c0,2-1.29,3.92-3.87,5.4-5.17,3-13.55,3-18.72,0-2.58-1.49-3.87-3.45-3.87-5.4V25.8Z"/><path class="b" d="M322.15,31.22c-5.17,3-13.55,3-18.72,0s-5.17-7.85,0-10.81,13.55-3,18.72,0S327.32,28.24,322.15,31.22Z"/><polygon class="b" points="319.67 76.37 314.7 76.37 314.7 71.41 310.87 71.41 310.87 76.37 305.9 76.37 305.9 80.2 310.87 80.2 310.87 85.17 314.7 85.17 314.7 80.2 319.67 80.2 319.67 76.37"/><path class="a" d="M177.76,101.4V263.58c0,8.36-5.52,16.68-16.53,23.07-22.07,12.73-57.87,12.73-79.91,0-11-6.39-16.56-14.71-16.56-23.07V101.4Z"/><path class="b" d="M177.76,94.58V256.77c0,8.36-5.52,16.67-16.53,23.06-22.07,12.73-57.87,12.73-79.91,0-11-6.39-16.56-14.7-16.56-23.06V94.58Z"/><path class="a" d="M177.76,94.58v27.79c0,8.36-5.52,16.68-16.53,23.07-22.07,12.73-57.87,12.73-79.91,0-11-6.39-16.56-14.71-16.56-23.07V94.58Z"/><ellipse class="b" cx="121.27" cy="94.6" rx="56.51" ry="32.62"/><path class="a" d="M155.09,114.13c-18.68,10.79-49,10.79-67.65,0s-18.68-28.27,0-39,49-10.79,67.65,0S173.77,103.34,155.09,114.13Z"/><path class="a" d="M168,157.58V258.23a46,46,0,0,1-6.73,4.69,71.63,71.63,0,0,1-21.69,7.8V170.07a70.58,70.58,0,0,0,21.69-7.8A44.54,44.54,0,0,0,168,157.58Z"/><path class="a" d="M125.4,171.7V272.34c-15.81.71-32-2.44-44.08-9.42-11-6.39-16.56-14.71-16.56-23.07V139.21c0,8.36,5.52,16.68,16.56,23.06C93.37,169.25,109.59,172.4,125.4,171.7Z"/><path class="b" d="M81.32,171.45a8.78,8.78,0,0,0,.79.44v42.26a8.67,8.67,0,0,1-.79-.43,46.33,46.33,0,0,1-7.69-5.52V165.93A46.33,46.33,0,0,0,81.32,171.45Z"/><path class="b" d="M113.42,180.64v77.47a84.19,84.19,0,0,1-22.83-4.85V175.82A83.77,83.77,0,0,0,113.42,180.64Z"/><path class="c" d="M134.5,87.77V94.3c0,2-1.29,3.92-3.87,5.41-5.17,3-13.56,3-18.72,0-2.59-1.5-3.88-3.45-3.88-5.41V87.77Z"/><path class="b" d="M130.63,93.19c-5.17,3-13.56,3-18.72,0s-5.17-7.85,0-10.8,13.55-3,18.72,0S135.79,90.21,130.63,93.19Z"/><polygon class="b" points="128.14 138.34 123.17 138.34 123.17 133.38 119.34 133.38 119.34 138.34 114.38 138.34 114.38 142.17 119.34 142.17 119.34 147.14 123.17 147.14 123.17 142.17 128.14 142.17 128.14 138.34"/><path class="a" d="M304.52,101.4V263.58c0,8.36-5.52,16.68-16.53,23.07-22.07,12.73-57.87,12.73-79.9,0-11-6.39-16.57-14.71-16.57-23.07V101.4Z"/><path class="b" d="M304.52,94.58V256.77c0,8.36-5.52,16.67-16.53,23.06-22.07,12.73-57.87,12.73-79.9,0-11-6.39-16.57-14.7-16.57-23.06V94.58Z"/><path class="a" d="M304.52,94.58v27.79c0,8.36-5.52,16.68-16.53,23.07-22.07,12.73-57.87,12.73-79.9,0-11-6.39-16.57-14.71-16.57-23.07V94.58Z"/><ellipse class="b" cx="248.03" cy="94.6" rx="56.51" ry="32.62"/><path class="a" d="M281.85,114.13c-18.68,10.79-49,10.79-67.65,0s-18.68-28.27,0-39,49-10.79,67.65,0S300.53,103.34,281.85,114.13Z"/><path class="a" d="M294.72,157.58V258.23a46,46,0,0,1-6.73,4.69,71.57,71.57,0,0,1-21.68,7.8V170.07a70.52,70.52,0,0,0,21.68-7.8A44,44,0,0,0,294.72,157.58Z"/><path class="a" d="M252.16,171.7V272.34c-15.81.71-32-2.44-44.07-9.42-11-6.39-16.57-14.71-16.57-23.07V139.21c0,8.36,5.52,16.68,16.56,23.06C220.13,169.25,236.35,172.4,252.16,171.7Z"/><path class="b" d="M208.09,171.45a6.69,6.69,0,0,0,.79.44v42.26a6.63,6.63,0,0,1-.79-.43,45.52,45.52,0,0,1-7.69-5.52V165.93A45.52,45.52,0,0,0,208.09,171.45Z"/><path class="b" d="M240.18,180.64v77.47a84.19,84.19,0,0,1-22.83-4.85V175.82A83.77,83.77,0,0,0,240.18,180.64Z"/><path class="c" d="M261.26,87.77V94.3c0,2-1.29,3.92-3.87,5.41-5.17,3-13.56,3-18.72,0-2.59-1.5-3.88-3.45-3.88-5.41V87.77Z"/><path class="b" d="M257.39,93.19c-5.17,3-13.56,3-18.72,0s-5.17-7.85,0-10.8,13.55-3,18.72,0S262.55,90.21,257.39,93.19Z"/><polygon class="b" points="254.91 138.34 249.94 138.34 249.94 133.38 246.1 133.38 246.1 138.34 241.14 138.34 241.14 142.17 246.1 142.17 246.1 147.14 249.94 147.14 249.94 142.17 254.91 142.17 254.91 138.34"/></svg>