<svg xmlns="http://www.w3.org/2000/svg" viewBox="0 0 357.98 284.58"><defs><style>.a{fill:#568abc;}.b{fill:#6a9cce;}.c{fill:#9dbfef;}.d{fill:#007aff;}.e{fill:#bfdeff;}.f{fill:#80bcff;}.g{fill:#74a3d7;}.h{fill:#6397bd;}.i{fill:#88b4eb;}.j{fill:#6494c6;}.k{fill:#6094bb;}.l{fill:#89b4eb;}</style></defs><polygon class="a" points="46.99 71.6 185.19 55.21 185.19 192.93 47.99 230.79 46.99 71.6"/><polygon class="b" points="185.19 55.21 301.19 75.57 301.19 233.4 185.19 192.93 185.19 55.21"/><polygon class="c" points="185.19 55.21 151.63 0 12.23 13.71 46.99 71.6 185.19 55.21"/><polygon class="c" points="185.19 55.21 219.37 0 344.28 15.66 301.19 75.57 185.19 55.21"/><path class="d" d="M131.32,56.18V96.44c0,2.08-2.82,4.14-8.44,5.73-11.29,3.16-29.59,3.16-40.85,0-5.65-1.59-8.47-3.65-8.47-5.73V56.18Z"/><path class="e" d="M131.32,54.48V94.75c0,2.08-2.82,4.14-8.44,5.73-11.29,3.16-29.59,3.16-40.85,0-5.65-1.59-8.47-3.65-8.47-5.73V54.48Z"/><path class="d" d="M131.32,54.48v6.9c0,2.08-2.82,4.14-8.44,5.73-11.29,3.16-29.59,3.16-40.85,0-5.65-1.59-8.47-3.65-8.47-5.73v-6.9Z"/><ellipse class="e" cx="102.45" cy="54.49" rx="28.88" ry="8.1"/><path class="d" d="M119.74,59.34c-9.55,2.68-25,2.68-34.59,0s-9.55-7,0-9.7,25-2.68,34.58,0S129.28,56.66,119.74,59.34Z"/><path class="d" d="M126.31,70.12v25a30.79,30.79,0,0,1-3.44,1.17,65.35,65.35,0,0,1-11.08,1.93v-25a64.33,64.33,0,0,0,11.08-1.94A30.79,30.79,0,0,0,126.31,70.12Z"/><path class="d" d="M104.56,73.63v25C96.48,98.79,88.19,98,82,96.28c-5.65-1.59-8.47-3.65-8.47-5.73v-25c0,2.08,2.82,4.14,8.46,5.73C88.18,73,96.48,73.8,104.56,73.63Z"/><path class="e" d="M82,73.57l.4.11V84.17l-.4-.11a30.63,30.63,0,0,1-3.93-1.37V72.2A30.63,30.63,0,0,0,82,73.57Z"/><path class="e" d="M98.43,75.85V95.08a83.55,83.55,0,0,1-11.67-1.2V74.65A83.55,83.55,0,0,0,98.43,75.85Z"/><path class="f" d="M109.21,52.79v1.62c0,.49-.66,1-2,1.35a20.9,20.9,0,0,1-9.57,0c-1.32-.38-2-.86-2-1.35V52.79Z"/><path class="e" d="M107.23,54.14a20.9,20.9,0,0,1-9.57,0c-2.64-.74-2.64-2,0-2.68a20.9,20.9,0,0,1,9.57,0C109.87,52.2,109.87,53.4,107.23,54.14Z"/><polygon class="e" points="105.96 65.35 103.42 65.35 103.42 64.12 101.46 64.12 101.46 65.35 98.92 65.35 98.92 66.3 101.46 66.3 101.46 67.53 103.42 67.53 103.42 66.3 105.96 66.3 105.96 65.35"/><path class="d" d="M196.83,56.18V96.44c0,2.08-2.82,4.14-8.45,5.73-11.28,3.16-29.58,3.16-40.85,0-5.64-1.59-8.46-3.65-8.46-5.73V56.18Z"/><path class="e" d="M196.83,54.48V94.75c0,2.08-2.82,4.14-8.45,5.73-11.28,3.16-29.58,3.16-40.85,0-5.64-1.59-8.46-3.65-8.46-5.73V54.48Z"/><path class="d" d="M196.83,54.48v6.9c0,2.08-2.82,4.14-8.45,5.73-11.28,3.16-29.58,3.16-40.85,0-5.64-1.59-8.46-3.65-8.46-5.73v-6.9Z"/><ellipse class="e" cx="167.95" cy="54.49" rx="28.88" ry="8.1"/><path class="d" d="M185.24,59.34c-9.55,2.68-25,2.68-34.58,0s-9.55-7,0-9.7,25-2.68,34.58,0S194.79,56.66,185.24,59.34Z"/><path class="d" d="M191.82,70.12v25a30.79,30.79,0,0,1-3.44,1.17,65.3,65.3,0,0,1-11.09,1.93v-25a64.28,64.28,0,0,0,11.09-1.94A30.79,30.79,0,0,0,191.82,70.12Z"/><path class="d" d="M170.06,73.63v25c-8.08.17-16.36-.61-22.53-2.34-5.64-1.59-8.46-3.65-8.46-5.73v-25c0,2.08,2.82,4.14,8.46,5.73C153.69,73,162,73.8,170.06,73.63Z"/><path class="e" d="M147.53,73.57l.41.11V84.17l-.41-.11a31.18,31.18,0,0,1-3.93-1.37V72.2A31.18,31.18,0,0,0,147.53,73.57Z"/><path class="e" d="M163.94,75.85V95.08a83.24,83.24,0,0,1-11.67-1.2V74.65A83.24,83.24,0,0,0,163.94,75.85Z"/><path class="f" d="M174.71,52.79v1.62c0,.49-.65,1-2,1.35a20.9,20.9,0,0,1-9.57,0c-1.33-.38-2-.86-2-1.35V52.79Z"/><path class="e" d="M172.74,54.14a20.9,20.9,0,0,1-9.57,0c-2.64-.74-2.65-2,0-2.68a20.9,20.9,0,0,1,9.57,0C175.38,52.2,175.38,53.4,172.74,54.14Z"/><polygon class="e" points="171.47 65.35 168.93 65.35 168.93 64.12 166.97 64.12 166.97 65.35 164.43 65.35 164.43 66.3 166.97 66.3 166.97 67.53 168.93 67.53 168.93 66.3 171.47 66.3 171.47 65.35"/><path class="d" d="M262.33,56.18V96.44c0,2.08-2.82,4.14-8.44,5.73-11.29,3.16-29.59,3.16-40.85,0-5.64-1.59-8.47-3.65-8.47-5.73V56.18Z"/><path class="e" d="M262.33,54.48V94.75c0,2.08-2.82,4.14-8.44,5.73-11.29,3.16-29.59,3.16-40.85,0-5.64-1.59-8.47-3.65-8.47-5.73V54.48Z"/><path class="d" d="M262.33,54.48v6.9c0,2.08-2.82,4.14-8.44,5.73-11.29,3.16-29.59,3.16-40.85,0-5.64-1.59-8.47-3.65-8.47-5.73v-6.9Z"/><ellipse class="e" cx="233.46" cy="54.49" rx="28.88" ry="8.1"/><path class="d" d="M250.75,59.34c-9.55,2.68-25,2.68-34.58,0s-9.55-7,0-9.7,25-2.68,34.57,0S260.29,56.66,250.75,59.34Z"/><path class="d" d="M257.32,70.12v25a30.79,30.79,0,0,1-3.44,1.17,65.35,65.35,0,0,1-11.08,1.93v-25a64.33,64.33,0,0,0,11.08-1.94A30.79,30.79,0,0,0,257.32,70.12Z"/><path class="d" d="M235.57,73.63v25c-8.08.17-16.36-.61-22.53-2.34-5.64-1.59-8.47-3.65-8.47-5.73v-25c0,2.08,2.82,4.14,8.47,5.73C219.19,73,227.49,73.8,235.57,73.63Z"/><path class="e" d="M213,73.57l.4.11V84.17l-.4-.11a30.63,30.63,0,0,1-3.93-1.37V72.2A30.63,30.63,0,0,0,213,73.57Z"/><path class="e" d="M229.44,75.85V95.08a83.55,83.55,0,0,1-11.67-1.2V74.65A83.55,83.55,0,0,0,229.44,75.85Z"/><path class="f" d="M240.22,52.79v1.62c0,.49-.66,1-2,1.35a20.9,20.9,0,0,1-9.57,0c-1.32-.38-2-.86-2-1.35V52.79Z"/><path class="e" d="M238.24,54.14a20.9,20.9,0,0,1-9.57,0c-2.64-.74-2.64-2,0-2.68a20.9,20.9,0,0,1,9.57,0C240.89,52.2,240.88,53.4,238.24,54.14Z"/><polygon class="e" points="236.97 65.35 234.43 65.35 234.43 64.12 232.47 64.12 232.47 65.35 229.94 65.35 229.94 66.3 232.47 66.3 232.47 67.53 234.43 67.53 234.43 66.3 236.97 66.3 236.97 65.35"/><path class="d" d="M229.23,71.56v40.27c0,2.07-2.82,4.14-8.45,5.72-11.28,3.17-29.58,3.17-40.85,0-5.64-1.58-8.46-3.65-8.46-5.72V71.56Z"/><path class="e" d="M229.23,69.87v40.27c0,2.07-2.82,4.14-8.45,5.72-11.28,3.16-29.58,3.16-40.85,0-5.64-1.58-8.46-3.65-8.46-5.72V69.87Z"/><path class="d" d="M229.23,69.87v6.9c0,2.07-2.82,4.14-8.45,5.73-11.28,3.16-29.58,3.16-40.85,0-5.64-1.59-8.46-3.66-8.46-5.73v-6.9Z"/><ellipse class="e" cx="200.35" cy="69.87" rx="28.88" ry="8.1"/><path class="d" d="M217.64,74.72c-9.55,2.68-25,2.68-34.58,0s-9.55-7,0-9.69,25-2.68,34.58,0S227.19,72,217.64,74.72Z"/><path class="d" d="M224.22,85.51v25a28.89,28.89,0,0,1-3.44,1.16,65.25,65.25,0,0,1-11.09,1.94v-25a65.3,65.3,0,0,0,11.09-1.93A30.79,30.79,0,0,0,224.22,85.51Z"/><path class="d" d="M202.46,89v25c-8.08.18-16.36-.6-22.53-2.34-5.64-1.58-8.46-3.65-8.46-5.72V81c0,2.07,2.82,4.14,8.46,5.73C186.09,88.41,194.38,89.19,202.46,89Z"/><path class="e" d="M179.93,89l.41.11v10.5l-.41-.11A31.18,31.18,0,0,1,176,98.08V87.58A31.18,31.18,0,0,0,179.93,89Z"/><path class="e" d="M196.34,91.24v19.23a83.23,83.23,0,0,1-11.67-1.21V90A84.76,84.76,0,0,0,196.34,91.24Z"/><path class="f" d="M207.11,68.18V69.8c0,.49-.66,1-2,1.34a20.9,20.9,0,0,1-9.57,0c-1.33-.37-2-.85-2-1.34V68.18Z"/><path class="e" d="M205.14,69.53a20.9,20.9,0,0,1-9.57,0c-2.64-.75-2.65-2,0-2.69a21,21,0,0,1,9.57,0C207.78,67.58,207.78,68.78,205.14,69.53Z"/><polygon class="e" points="203.87 80.73 201.33 80.73 201.33 79.5 199.37 79.5 199.37 80.73 196.83 80.73 196.83 81.69 199.37 81.69 199.37 82.92 201.33 82.92 201.33 81.69 203.87 81.69 203.87 80.73"/><path class="d" d="M164.43,71.56v40.27c0,2.07-2.82,4.14-8.45,5.72-11.28,3.17-29.58,3.17-40.85,0-5.64-1.58-8.46-3.65-8.46-5.72V71.56Z"/><path class="e" d="M164.43,69.87v40.27c0,2.07-2.82,4.14-8.45,5.72-11.28,3.16-29.58,3.16-40.85,0-5.64-1.58-8.46-3.65-8.46-5.72V69.87Z"/><path class="d" d="M164.43,69.87v6.9c0,2.07-2.82,4.14-8.45,5.73-11.28,3.16-29.58,3.16-40.85,0-5.64-1.59-8.46-3.66-8.46-5.73v-6.9Z"/><ellipse class="e" cx="135.55" cy="69.87" rx="28.88" ry="8.1"/><path class="d" d="M152.84,74.72c-9.55,2.68-25,2.68-34.58,0s-9.55-7,0-9.69,25-2.68,34.58,0S162.39,72,152.84,74.72Z"/><path class="d" d="M159.42,85.51v25a28.89,28.89,0,0,1-3.44,1.16,65.25,65.25,0,0,1-11.09,1.94v-25A65.3,65.3,0,0,0,156,86.68,30.79,30.79,0,0,0,159.42,85.51Z"/><path class="d" d="M137.66,89v25c-8.08.18-16.36-.6-22.53-2.34-5.64-1.58-8.46-3.65-8.46-5.72V81c0,2.07,2.82,4.14,8.46,5.73C121.29,88.41,129.58,89.19,137.66,89Z"/><path class="e" d="M115.13,89l.41.11v10.5l-.41-.11a31.18,31.18,0,0,1-3.93-1.37V87.58A31.18,31.18,0,0,0,115.13,89Z"/><path class="e" d="M131.54,91.24v19.23a83.23,83.23,0,0,1-11.67-1.21V90A84.76,84.76,0,0,0,131.54,91.24Z"/><path class="f" d="M142.31,68.18V69.8c0,.49-.65,1-2,1.34a20.9,20.9,0,0,1-9.57,0c-1.33-.37-2-.85-2-1.34V68.18Z"/><path class="e" d="M140.34,69.53a20.9,20.9,0,0,1-9.57,0c-2.64-.75-2.65-2,0-2.69a21,21,0,0,1,9.57,0C143,67.58,143,68.78,140.34,69.53Z"/><polygon class="e" points="139.07 80.73 136.53 80.73 136.53 79.5 134.57 79.5 134.57 80.73 132.03 80.73 132.03 81.69 134.57 81.69 134.57 82.92 136.53 82.92 136.53 81.69 139.07 81.69 139.07 80.73"/><path class="d" d="M202.41,67.85H134.88c-3.48,0-6.94-2.1-9.6-6.28-5.31-8.38-5.31-22,0-30.36,2.66-4.19,6.12-6.29,9.6-6.29h67.53Z"/><path class="e" d="M205.25,67.85H137.72c-3.48,0-6.95-2.1-9.61-6.28-5.3-8.38-5.3-22,0-30.36,2.66-4.19,6.13-6.29,9.61-6.29h67.53Z"/><path class="d" d="M205.25,67.85H193.68c-3.48,0-6.94-2.1-9.6-6.28-5.31-8.38-5.31-22,0-30.36,2.66-4.19,6.12-6.29,9.6-6.29h11.57Z"/><ellipse class="e" cx="205.25" cy="46.39" rx="13.58" ry="21.47"/><path class="d" d="M197.11,59.24c-4.49-7.1-4.49-18.6,0-25.7s11.77-7.1,16.26,0,4.49,18.6,0,25.7S201.6,66.34,197.11,59.24Z"/><path class="d" d="M179,64.13H137.11a16.49,16.49,0,0,1-2-2.56,25.63,25.63,0,0,1-3.25-8.24h41.91a25.39,25.39,0,0,0,3.24,8.24A17.2,17.2,0,0,0,179,64.13Z"/><path class="d" d="M173.14,48H131.23c-.29-6,1-12.16,3.93-16.75,2.65-4.19,6.12-6.29,9.6-6.29h41.91c-3.48,0-6.95,2.1-9.61,6.29C174.16,35.79,172.85,42,173.14,48Z"/><path class="e" d="M173.24,31.21c-.06.1-.13.2-.18.3h-17.6l.18-.3a18.35,18.35,0,0,1,2.3-2.92h17.6A18.35,18.35,0,0,0,173.24,31.21Z"/><path class="e" d="M169.42,43.41H137.16a29.65,29.65,0,0,1,2-8.68h32.24A29.31,29.31,0,0,0,169.42,43.41Z"/><path class="f" d="M208.09,51.42h-2.72A2.73,2.73,0,0,1,203.12,50a7.28,7.28,0,0,1,0-7.12,2.74,2.74,0,0,1,2.25-1.47h2.72Z"/><path class="e" d="M205.83,50a7.28,7.28,0,0,1,0-7.12c1.24-2,3.27-2,4.5,0a7.3,7.3,0,0,1,0,7.12C209.09,51.91,207.07,51.91,205.83,50Z"/><polygon class="e" points="187.03 49 187.03 47.11 189.1 47.11 189.1 45.66 187.03 45.66 187.03 43.77 185.44 43.77 185.44 45.66 183.37 45.66 183.37 47.11 185.44 47.11 185.44 49 187.03 49"/><polygon class="g" points="163.08 94.52 46.99 71.6 46.71 230.79 163.26 267.09 163.08 94.52"/><polygon class="h" points="126.96 161.72 163.08 94.52 23.28 124.5 126.96 161.72"/><polygon class="i" points="163.08 94.52 125.39 151.93 4.4 119.43 46.99 71.6 163.08 94.52"/><polygon class="j" points="163.08 94.52 301.19 75.57 301.19 234.71 163.26 267.09 163.08 94.52"/><polygon class="k" points="301.19 138.88 197.78 161.72 163.08 94.52 301.19 127.09 301.19 138.88"/><polygon class="l" points="301.19 75.57 357.98 117.86 201.75 151.93 163.08 94.52 301.19 75.57"/><path class="d" d="M12,258H61.15c2.54,0,5.06-1.87,7-5.61,3.86-7.5,3.86-19.65,0-27.14-1.94-3.74-4.46-5.62-7-5.62H12Z"/><path class="e" d="M9.89,258h49.2c2.53,0,5-1.87,7-5.61,3.86-7.5,3.86-19.65,0-27.14-1.94-3.74-4.46-5.62-7-5.62H9.89Z"/><path class="d" d="M9.89,258h8.43c2.54,0,5.06-1.87,7-5.61,3.86-7.5,3.86-19.65,0-27.14-1.94-3.74-4.46-5.62-7-5.62H9.89Z"/><ellipse class="e" cx="9.9" cy="238.77" rx="9.9" ry="19.19"/><path class="d" d="M15.82,250.25c3.27-6.34,3.27-16.62,0-23s-8.57-6.34-11.84,0-3.28,16.63,0,23S12.55,256.6,15.82,250.25Z"/><path class="d" d="M29,254.62H59.53A15.57,15.57,0,0,0,61,252.34,26.34,26.34,0,0,0,63.32,245H32.79a26,26,0,0,1-2.37,7.37A14.77,14.77,0,0,1,29,254.62Z"/><path class="d" d="M33.28,240.17H63.81a31,31,0,0,0-2.86-15c-1.93-3.74-4.46-5.62-7-5.62H23.43c2.53,0,5.06,1.87,7,5.62A30.93,30.93,0,0,1,33.28,240.17Z"/><path class="e" d="M33.21,225.2c0,.09.09.18.13.27H46.16c0-.09-.08-.18-.13-.27a16.14,16.14,0,0,0-1.68-2.61H31.53A16.14,16.14,0,0,1,33.21,225.2Z"/><path class="e" d="M36,236.1H59.49A31.15,31.15,0,0,0,58,228.35H34.53A31.7,31.7,0,0,1,36,236.1Z"/><path class="f" d="M7.83,243.26h2c.59,0,1.19-.44,1.64-1.31a7.83,7.83,0,0,0,0-6.36c-.46-.88-1-1.32-1.64-1.32h-2Z"/><path class="e" d="M9.47,242a7.75,7.75,0,0,0,0-6.36c-.9-1.75-2.38-1.76-3.28,0a7.87,7.87,0,0,0,0,6.36C7.1,243.7,8.57,243.7,9.47,242Z"/><polygon class="e" points="23.16 241.1 23.16 239.41 21.66 239.41 21.66 238.11 23.16 238.11 23.16 236.43 24.33 236.43 24.33 238.11 25.83 238.11 25.83 239.41 24.33 239.41 24.33 241.1 23.16 241.1"/><path class="d" d="M26.65,230.59h49.2c2.53,0,5.06-1.88,7-5.61,3.87-7.5,3.87-19.65,0-27.14-1.93-3.74-4.46-5.62-7-5.62H26.65Z"/><path class="e" d="M24.59,230.59H73.78c2.54,0,5.06-1.88,7-5.61,3.86-7.5,3.86-19.65,0-27.14-1.94-3.74-4.46-5.62-7-5.62H24.59Z"/><path class="d" d="M24.59,230.59H33c2.53,0,5-1.88,7-5.61,3.87-7.5,3.87-19.65,0-27.14-1.94-3.74-4.46-5.62-7-5.62H24.59Z"/><ellipse class="e" cx="24.59" cy="211.41" rx="9.9" ry="19.19"/><path class="d" d="M30.52,222.89c3.27-6.34,3.27-16.63,0-23s-8.58-6.34-11.85,0-3.27,16.63,0,23S27.24,229.23,30.52,222.89Z"/><path class="d" d="M43.69,227.26H74.22A15.32,15.32,0,0,0,75.65,225,26.12,26.12,0,0,0,78,217.61H47.49A26.13,26.13,0,0,1,45.12,225,15.32,15.32,0,0,1,43.69,227.26Z"/><path class="d" d="M48,212.81H78.5a31.07,31.07,0,0,0-2.85-15c-1.94-3.74-4.46-5.62-7-5.62H38.12c2.54,0,5.06,1.87,7,5.62C47.24,201.93,48.19,207.44,48,212.81Z"/><path class="e" d="M47.9,197.84a1.66,1.66,0,0,1,.13.27H60.85a1.66,1.66,0,0,0-.13-.27,15.43,15.43,0,0,0-1.67-2.61H46.23A15.43,15.43,0,0,1,47.9,197.84Z"/><path class="e" d="M50.69,208.74h23.5A31.62,31.62,0,0,0,72.72,201H49.23A31.14,31.14,0,0,1,50.69,208.74Z"/><path class="f" d="M22.52,215.9h2c.59,0,1.19-.44,1.64-1.31a7.83,7.83,0,0,0,0-6.36c-.45-.88-1.05-1.32-1.64-1.32h-2Z"/><path class="e" d="M24.17,214.59a7.83,7.83,0,0,0,0-6.36c-.91-1.76-2.39-1.76-3.28,0a7.79,7.79,0,0,0,0,6.36C21.79,216.34,23.26,216.34,24.17,214.59Z"/><polygon class="e" points="37.86 213.74 37.86 212.05 36.35 212.05 36.35 210.75 37.86 210.75 37.86 209.07 39.02 209.07 39.02 210.75 40.53 210.75 40.53 212.05 39.02 212.05 39.02 213.74 37.86 213.74"/><path class="d" d="M34.84,267.12H84c2.53,0,5.06-1.87,7-5.61,3.87-7.49,3.87-19.65,0-27.13-1.93-3.75-4.46-5.62-7-5.62H34.84Z"/><path class="e" d="M32.77,267.12H82c2.54,0,5.06-1.87,7-5.61,3.86-7.49,3.86-19.65,0-27.13-1.94-3.75-4.46-5.62-7-5.62H32.77Z"/><path class="d" d="M32.77,267.12H41.2c2.53,0,5.06-1.87,7-5.61,3.87-7.49,3.87-19.65,0-27.13-1.93-3.75-4.46-5.62-7-5.62H32.77Z"/><ellipse class="e" cx="32.77" cy="247.94" rx="9.9" ry="19.19"/><path class="d" d="M38.7,259.43c3.27-6.35,3.27-16.63,0-23s-8.58-6.35-11.85,0-3.27,16.62,0,23S35.42,265.77,38.7,259.43Z"/><path class="d" d="M51.88,263.8H82.41a15.67,15.67,0,0,0,1.42-2.29,26.38,26.38,0,0,0,2.37-7.36H55.67a26.06,26.06,0,0,1-2.37,7.36A15.67,15.67,0,0,1,51.88,263.8Z"/><path class="d" d="M56.16,249.35H86.69c.21-5.37-.74-10.87-2.86-15-1.94-3.75-4.46-5.62-7-5.62H46.3c2.54,0,5.06,1.87,7,5.62C55.42,238.47,56.37,244,56.16,249.35Z"/><path class="e" d="M56.08,234.38a2.29,2.29,0,0,1,.14.27H69c0-.09-.09-.18-.14-.27a15,15,0,0,0-1.67-2.61H54.41A15,15,0,0,1,56.08,234.38Z"/><path class="e" d="M58.87,245.28h23.5a31.62,31.62,0,0,0-1.47-7.75H57.41A31.14,31.14,0,0,1,58.87,245.28Z"/><path class="f" d="M30.7,252.44h2c.6,0,1.19-.44,1.64-1.32a7.83,7.83,0,0,0,0-6.36c-.45-.87-1-1.31-1.64-1.31h-2Z"/><path class="e" d="M32.35,251.12a7.83,7.83,0,0,0,0-6.36c-.91-1.75-2.39-1.75-3.28,0a7.79,7.79,0,0,0,0,6.36C30,252.88,31.44,252.88,32.35,251.12Z"/><polygon class="e" points="46.04 250.28 46.04 248.59 44.53 248.59 44.53 247.29 46.04 247.29 46.04 245.6 47.2 245.6 47.2 247.29 48.71 247.29 48.71 248.59 47.2 248.59 47.2 250.28 46.04 250.28"/><path class="d" d="M41.67,200.9H90.86c2.53,0,5.06-1.87,7-5.61,3.87-7.5,3.87-19.65,0-27.14-1.93-3.74-4.46-5.62-7-5.62H41.67Z"/><path class="e" d="M39.6,200.9H88.79c2.54,0,5.06-1.87,7-5.61,3.86-7.5,3.86-19.65,0-27.14-1.94-3.74-4.46-5.62-7-5.62H39.6Z"/><path class="d" d="M39.6,200.9H48c2.53,0,5.06-1.87,7-5.61,3.87-7.5,3.87-19.65,0-27.14-1.93-3.74-4.46-5.62-7-5.62H39.6Z"/><ellipse class="e" cx="39.6" cy="181.72" rx="9.9" ry="19.19"/><path class="d" d="M45.53,193.2c3.27-6.34,3.27-16.62,0-23s-8.58-6.34-11.85,0-3.27,16.63,0,23S42.25,199.55,45.53,193.2Z"/><path class="d" d="M58.71,197.57H89.24a15.57,15.57,0,0,0,1.42-2.28A26.34,26.34,0,0,0,93,187.92H62.5a26,26,0,0,1-2.37,7.37A15.57,15.57,0,0,1,58.71,197.57Z"/><path class="d" d="M63,183.12H93.52c.21-5.37-.74-10.87-2.86-15-1.94-3.74-4.46-5.62-7-5.62H53.13c2.54,0,5.06,1.87,7,5.62C62.25,172.24,63.2,177.75,63,183.12Z"/><path class="e" d="M62.91,168.15c.05.09.1.18.14.27H75.87c0-.09-.09-.18-.14-.27a15.43,15.43,0,0,0-1.67-2.61H61.24A15.43,15.43,0,0,1,62.91,168.15Z"/><path class="e" d="M65.7,179.05H89.2a31.7,31.7,0,0,0-1.47-7.75H64.24A31.23,31.23,0,0,1,65.7,179.05Z"/><path class="f" d="M37.53,186.21h2c.6,0,1.19-.44,1.64-1.31a7.83,7.83,0,0,0,0-6.36c-.45-.88-1-1.32-1.64-1.32h-2Z"/><path class="e" d="M39.18,184.9a7.83,7.83,0,0,0,0-6.36c-.91-1.75-2.39-1.76-3.28,0a7.79,7.79,0,0,0,0,6.36C36.8,186.65,38.27,186.65,39.18,184.9Z"/><polygon class="e" points="52.87 184.05 52.87 182.37 51.37 182.37 51.37 181.06 52.87 181.06 52.87 179.38 54.03 179.38 54.03 181.06 55.54 181.06 55.54 182.37 54.03 182.37 54.03 184.05 52.87 184.05"/><path class="d" d="M57.51,171.72h49.2c2.53,0,5.06-1.88,7-5.61,3.87-7.5,3.87-19.65,0-27.14-1.93-3.74-4.46-5.62-7-5.62H57.51Z"/><path class="e" d="M55.45,171.72h49.19c2.54,0,5.06-1.88,7-5.61,3.86-7.5,3.86-19.65,0-27.14-1.94-3.74-4.46-5.62-7-5.62H55.45Z"/><path class="d" d="M55.45,171.72h8.43c2.53,0,5.05-1.88,7-5.61,3.86-7.5,3.86-19.65,0-27.14-1.94-3.74-4.46-5.62-7-5.62H55.45Z"/><ellipse class="e" cx="55.45" cy="152.54" rx="9.9" ry="19.19"/><path class="d" d="M61.38,164c3.27-6.34,3.27-16.62,0-23s-8.58-6.34-11.85,0-3.27,16.63,0,23S58.1,170.36,61.38,164Z"/><path class="d" d="M74.55,168.39h30.53a14.82,14.82,0,0,0,1.43-2.28,26.12,26.12,0,0,0,2.36-7.37H78.34A25.8,25.8,0,0,1,76,166.11,14.82,14.82,0,0,1,74.55,168.39Z"/><path class="d" d="M78.84,153.94h30.52a31.07,31.07,0,0,0-2.85-15c-1.94-3.74-4.46-5.62-7-5.62H69c2.54,0,5.06,1.87,7,5.62A31.16,31.16,0,0,1,78.84,153.94Z"/><path class="e" d="M78.76,139a1.66,1.66,0,0,1,.13.27H91.71a1.66,1.66,0,0,0-.13-.27,15.43,15.43,0,0,0-1.67-2.61H77.09A16.08,16.08,0,0,1,78.76,139Z"/><path class="e" d="M81.55,149.87h23.5a31.62,31.62,0,0,0-1.47-7.75H80.09A31.14,31.14,0,0,1,81.55,149.87Z"/><path class="f" d="M53.38,157h2c.59,0,1.19-.44,1.64-1.31a7.83,7.83,0,0,0,0-6.36c-.45-.88-1-1.32-1.64-1.32h-2Z"/><path class="e" d="M55,155.72a7.75,7.75,0,0,0,0-6.36c-.9-1.76-2.38-1.76-3.27,0a7.79,7.79,0,0,0,0,6.36C52.65,157.47,54.12,157.47,55,155.72Z"/><polygon class="e" points="68.72 154.87 68.72 153.19 67.21 153.19 67.21 151.88 68.72 151.88 68.72 150.2 69.88 150.2 69.88 151.88 71.39 151.88 71.39 153.19 69.88 153.19 69.88 154.87 68.72 154.87"/><path class="d" d="M49.61,238.76H98.8c2.54,0,5.06-1.87,7-5.61,3.86-7.49,3.86-19.65,0-27.13-1.94-3.75-4.46-5.63-7-5.63H49.61Z"/><path class="e" d="M47.54,238.76h49.2c2.53,0,5.06-1.87,7-5.61,3.86-7.49,3.86-19.65,0-27.13-1.93-3.75-4.46-5.63-7-5.63H47.54Z"/><path class="d" d="M47.54,238.76H56c2.54,0,5.06-1.87,7-5.61,3.86-7.49,3.86-19.65,0-27.13-1.94-3.75-4.46-5.63-7-5.63H47.54Z"/><ellipse class="e" cx="47.55" cy="219.58" rx="9.9" ry="19.19"/><path class="d" d="M53.47,231.07c3.27-6.35,3.27-16.63,0-23s-8.57-6.34-11.84,0-3.27,16.63,0,23S50.2,237.41,53.47,231.07Z"/><path class="d" d="M66.65,235.43H97.18a14.77,14.77,0,0,0,1.42-2.28,26.38,26.38,0,0,0,2.37-7.36H70.44a26.05,26.05,0,0,1-2.36,7.36A15.63,15.63,0,0,1,66.65,235.43Z"/><path class="d" d="M70.93,221h30.53a30.91,30.91,0,0,0-2.86-15c-1.93-3.75-4.46-5.63-7-5.63H61.08c2.53,0,5.06,1.88,7,5.63A31,31,0,0,1,70.93,221Z"/><path class="e" d="M70.86,206a1.69,1.69,0,0,1,.13.27H83.81a1.69,1.69,0,0,0-.13-.27A15.9,15.9,0,0,0,82,203.41H69.18A15.31,15.31,0,0,1,70.86,206Z"/><path class="e" d="M73.65,216.91H97.14a31.33,31.33,0,0,0-1.47-7.75H72.19A32.26,32.26,0,0,1,73.65,216.91Z"/><path class="f" d="M45.48,224.07h2c.59,0,1.19-.43,1.64-1.31a7.83,7.83,0,0,0,0-6.36c-.46-.88-1.05-1.31-1.64-1.31h-2Z"/><path class="e" d="M47.12,222.76a7.75,7.75,0,0,0,0-6.36c-.9-1.75-2.38-1.75-3.28,0a7.87,7.87,0,0,0,0,6.36C44.75,224.51,46.22,224.51,47.12,222.76Z"/><polygon class="e" points="60.82 221.91 60.82 220.23 59.31 220.23 59.31 218.93 60.82 218.93 60.82 217.24 61.98 217.24 61.98 218.93 63.48 218.93 63.48 220.23 61.98 220.23 61.98 221.91 60.82 221.91"/><path class="d" d="M58.23,276.4h49.19c2.54,0,5.06-1.88,7-5.61,3.86-7.5,3.86-19.66,0-27.14-1.94-3.75-4.46-5.62-7-5.62H58.23Z"/><path class="e" d="M56.16,276.4h49.19c2.54,0,5.06-1.88,7-5.61,3.86-7.5,3.86-19.66,0-27.14-1.94-3.75-4.46-5.62-7-5.62H56.16Z"/><path class="d" d="M56.16,276.4h8.43c2.53,0,5.06-1.88,7-5.61,3.87-7.5,3.87-19.66,0-27.14-1.93-3.75-4.46-5.62-7-5.62H56.16Z"/><ellipse class="e" cx="56.16" cy="257.22" rx="9.9" ry="19.19"/><path class="d" d="M62.09,268.7c3.27-6.34,3.27-16.63,0-23s-8.58-6.34-11.85,0-3.27,16.63,0,23S58.81,275,62.09,268.7Z"/><path class="d" d="M75.27,273.07H105.8a15.67,15.67,0,0,0,1.42-2.29,26.38,26.38,0,0,0,2.37-7.36H79.06a26.06,26.06,0,0,1-2.37,7.36A15.67,15.67,0,0,1,75.27,273.07Z"/><path class="d" d="M79.55,258.62h30.53c.21-5.37-.74-10.87-2.86-15-1.94-3.75-4.46-5.62-7-5.62H69.7c2.53,0,5,1.87,7,5.62C78.81,247.74,79.76,253.25,79.55,258.62Z"/><path class="e" d="M79.47,243.65c0,.09.1.18.14.27H92.43l-.13-.27A15.71,15.71,0,0,0,90.62,241H77.8A15,15,0,0,1,79.47,243.65Z"/><path class="e" d="M82.26,254.55h23.5a31.62,31.62,0,0,0-1.47-7.75H80.8A31.14,31.14,0,0,1,82.26,254.55Z"/><path class="f" d="M54.09,261.71h2c.6,0,1.19-.44,1.64-1.32a7.73,7.73,0,0,0,0-6.35c-.45-.88-1-1.32-1.64-1.32h-2Z"/><path class="e" d="M55.74,260.39a7.8,7.8,0,0,0,0-6.35c-.91-1.76-2.38-1.76-3.28,0a7.77,7.77,0,0,0,0,6.35C53.36,262.15,54.83,262.15,55.74,260.39Z"/><polygon class="e" points="69.43 259.55 69.43 257.86 67.93 257.86 67.93 256.56 69.43 256.56 69.43 254.88 70.59 254.88 70.59 256.56 72.1 256.56 72.1 257.86 70.59 257.86 70.59 259.55 69.43 259.55"/><path class="d" d="M65.3,209.08h49.19c2.54,0,5.06-1.87,7-5.61,3.86-7.5,3.86-19.65,0-27.13-1.94-3.75-4.46-5.63-7-5.63H65.3Z"/><path class="e" d="M63.23,209.08h49.2c2.53,0,5.06-1.87,7-5.61,3.86-7.5,3.86-19.65,0-27.13-1.93-3.75-4.46-5.63-7-5.63H63.23Z"/><path class="d" d="M63.23,209.08h8.43c2.54,0,5.06-1.87,7-5.61,3.86-7.5,3.86-19.65,0-27.13-1.94-3.75-4.46-5.63-7-5.63H63.23Z"/><ellipse class="e" cx="63.24" cy="189.9" rx="9.9" ry="19.19"/><path class="d" d="M69.16,201.38c3.27-6.34,3.27-16.62,0-23s-8.57-6.34-11.84,0-3.27,16.63,0,23S65.89,207.73,69.16,201.38Z"/><path class="d" d="M82.34,205.75h30.53a14.77,14.77,0,0,0,1.42-2.28,26.38,26.38,0,0,0,2.37-7.36H86.13a25.74,25.74,0,0,1-2.37,7.36A14.77,14.77,0,0,1,82.34,205.75Z"/><path class="d" d="M86.62,191.3h30.53a30.89,30.89,0,0,0-2.86-15c-1.93-3.75-4.46-5.63-7-5.63H76.77c2.53,0,5.06,1.88,7,5.62A30.93,30.93,0,0,1,86.62,191.3Z"/><path class="e" d="M86.55,176.34a2.1,2.1,0,0,1,.13.26H99.5a2.1,2.1,0,0,0-.13-.26,16.42,16.42,0,0,0-1.67-2.62H84.87A15.8,15.8,0,0,1,86.55,176.34Z"/><path class="e" d="M89.34,187.23h23.49a31.24,31.24,0,0,0-1.47-7.75H87.87A31.79,31.79,0,0,1,89.34,187.23Z"/><path class="f" d="M61.17,194.39h2c.59,0,1.19-.44,1.64-1.31a7.83,7.83,0,0,0,0-6.36c-.46-.88-1.05-1.32-1.64-1.32h-2Z"/><path class="e" d="M62.81,193.08a7.75,7.75,0,0,0,0-6.36c-.9-1.75-2.38-1.76-3.28,0a7.87,7.87,0,0,0,0,6.36C60.44,194.83,61.91,194.83,62.81,193.08Z"/><polygon class="e" points="76.51 192.23 76.51 190.55 75 190.55 75 189.25 76.51 189.25 76.51 187.56 77.67 187.56 77.67 189.25 79.17 189.25 79.17 190.55 77.67 190.55 77.67 192.23 76.51 192.23"/><path class="d" d="M73.25,246.94h49.19c2.53,0,5.06-1.87,7-5.61,3.86-7.49,3.86-19.65,0-27.13-1.94-3.75-4.47-5.63-7-5.63H73.25Z"/><path class="e" d="M71.18,246.94h49.19c2.54,0,5.06-1.87,7-5.61,3.86-7.49,3.86-19.65,0-27.13-1.94-3.75-4.46-5.63-7-5.63H71.18Z"/><path class="d" d="M71.18,246.94h8.43c2.53,0,5.06-1.87,7-5.61,3.87-7.49,3.87-19.65,0-27.13-1.93-3.75-4.46-5.63-7-5.63H71.18Z"/><ellipse class="e" cx="71.18" cy="227.76" rx="9.9" ry="19.19"/><path class="d" d="M77.11,239.25c3.27-6.35,3.27-16.63,0-23s-8.58-6.35-11.85,0-3.27,16.62,0,23S73.83,245.59,77.11,239.25Z"/><path class="d" d="M90.29,243.62h30.53a16.23,16.23,0,0,0,1.42-2.29,26.38,26.38,0,0,0,2.37-7.36H94.08a26.06,26.06,0,0,1-2.37,7.36A16.23,16.23,0,0,1,90.29,243.62Z"/><path class="d" d="M94.57,229.17H125.1c.21-5.37-.74-10.88-2.86-15-1.94-3.75-4.46-5.63-7-5.63H84.71c2.54,0,5.06,1.88,7,5.63C93.83,218.29,94.78,223.8,94.57,229.17Z"/><path class="e" d="M94.49,214.2a1.71,1.71,0,0,1,.14.27h12.82a1.71,1.71,0,0,0-.14-.27,15,15,0,0,0-1.67-2.61H92.82A15,15,0,0,1,94.49,214.2Z"/><path class="e" d="M97.28,225.1h23.5a31.78,31.78,0,0,0-1.47-7.76H95.82A31.31,31.31,0,0,1,97.28,225.1Z"/><path class="f" d="M69.11,232.25h2c.6,0,1.19-.43,1.64-1.31a7.75,7.75,0,0,0,0-6.36c-.45-.87-1-1.31-1.64-1.31h-2Z"/><path class="e" d="M70.76,230.94a7.83,7.83,0,0,0,0-6.36c-.91-1.75-2.38-1.75-3.28,0a7.79,7.79,0,0,0,0,6.36C68.38,232.7,69.85,232.69,70.76,230.94Z"/><polygon class="e" points="84.45 230.1 84.45 228.41 82.95 228.41 82.95 227.11 84.45 227.11 84.45 225.42 85.61 225.42 85.61 227.11 87.12 227.11 87.12 228.41 85.61 228.41 85.61 230.1 84.45 230.1"/><path class="d" d="M81.86,284.58h49.2c2.53,0,5.05-1.88,7-5.61,3.86-7.5,3.86-19.65,0-27.14-1.94-3.75-4.46-5.62-7-5.62H81.86Z"/><path class="e" d="M79.79,284.58H129c2.53,0,5.06-1.88,7-5.61,3.87-7.5,3.87-19.65,0-27.14-1.93-3.75-4.46-5.62-7-5.62H79.79Z"/><path class="d" d="M79.79,284.58h8.43c2.54,0,5.06-1.88,7-5.61,3.86-7.5,3.86-19.65,0-27.14-1.94-3.75-4.46-5.62-7-5.62H79.79Z"/><ellipse class="e" cx="79.8" cy="265.4" rx="9.9" ry="19.19"/><path class="d" d="M85.72,276.88c3.27-6.34,3.27-16.63,0-23s-8.57-6.34-11.84,0-3.27,16.63,0,23S82.45,283.22,85.72,276.88Z"/><path class="d" d="M98.9,281.25h30.53a15.26,15.26,0,0,0,1.42-2.28,26.56,26.56,0,0,0,2.37-7.37H102.69a26.22,26.22,0,0,1-2.36,7.37A16.18,16.18,0,0,1,98.9,281.25Z"/><path class="d" d="M103.18,266.8h30.53a31,31,0,0,0-2.86-15c-1.93-3.75-4.46-5.62-7-5.62H93.33c2.54,0,5.06,1.87,7,5.62A31,31,0,0,1,103.18,266.8Z"/><path class="e" d="M103.11,251.83c0,.09.09.18.13.27h12.82c0-.09-.08-.18-.13-.27a16.79,16.79,0,0,0-1.67-2.61H101.43A16.14,16.14,0,0,1,103.11,251.83Z"/><path class="e" d="M105.9,262.73h23.5a31.63,31.63,0,0,0-1.48-7.75H104.44A32.08,32.08,0,0,1,105.9,262.73Z"/><path class="f" d="M77.73,269.89h2c.59,0,1.19-.44,1.64-1.32a7.8,7.8,0,0,0,0-6.35c-.46-.88-1-1.32-1.64-1.32h-2Z"/><path class="e" d="M79.37,268.57a7.73,7.73,0,0,0,0-6.35c-.9-1.76-2.38-1.76-3.28,0a7.84,7.84,0,0,0,0,6.35C77,270.33,78.47,270.33,79.37,268.57Z"/><polygon class="e" points="93.07 267.73 93.07 266.04 91.56 266.04 91.56 264.74 93.07 264.74 93.07 263.06 94.23 263.06 94.23 264.74 95.74 264.74 95.74 266.04 94.23 266.04 94.23 267.73 93.07 267.73"/><path class="d" d="M226,213.82V268.9c0,2.83-1.87,5.66-5.61,7.83-7.49,4.32-19.65,4.32-27.13,0-3.75-2.17-5.63-5-5.63-7.83V213.82Z"/><path class="e" d="M226,211.51v55.07c0,2.84-1.87,5.67-5.61,7.83-7.49,4.33-19.65,4.33-27.13,0-3.75-2.16-5.63-5-5.63-7.83V211.51Z"/><path class="d" d="M226,211.51V221c0,2.83-1.87,5.66-5.61,7.83-7.49,4.32-19.65,4.32-27.13,0-3.75-2.17-5.63-5-5.63-7.83v-9.44Z"/><ellipse class="e" cx="206.8" cy="211.51" rx="19.19" ry="11.08"/><path class="d" d="M218.29,218.15c-6.35,3.66-16.63,3.66-23,0s-6.35-9.6,0-13.26,16.62-3.67,23,0S224.63,214.48,218.29,218.15Z"/><path class="d" d="M222.66,232.9v34.18a15.61,15.61,0,0,1-2.29,1.59,24.28,24.28,0,0,1-7.36,2.65V237.14a24,24,0,0,0,7.36-2.64A15.67,15.67,0,0,0,222.66,232.9Z"/><path class="d" d="M208.2,237.69v34.18a28.18,28.18,0,0,1-15-3.2c-3.75-2.17-5.63-5-5.63-7.83V226.66c0,2.84,1.88,5.67,5.63,7.84A28.27,28.27,0,0,0,208.2,237.69Z"/><path class="e" d="M193.24,237.61a1.17,1.17,0,0,0,.27.15v14.35a1.17,1.17,0,0,1-.27-.15,15.52,15.52,0,0,1-2.61-1.87V235.74A15.12,15.12,0,0,0,193.24,237.61Z"/><path class="e" d="M204.13,240.73V267a28.67,28.67,0,0,1-7.75-1.65V239.1A28.64,28.64,0,0,0,204.13,240.73Z"/><path class="f" d="M211.29,209.2v2.21a2.21,2.21,0,0,1-1.31,1.84,7.05,7.05,0,0,1-6.36,0,2.22,2.22,0,0,1-1.31-1.84V209.2Z"/><path class="e" d="M210,211a7.05,7.05,0,0,1-6.36,0c-1.75-1-1.75-2.67,0-3.67a7.05,7.05,0,0,1,6.36,0C211.74,208.38,211.73,210,210,211Z"/><polygon class="e" points="209.14 226.37 207.45 226.37 207.45 224.68 206.15 224.68 206.15 226.37 204.46 226.37 204.46 227.67 206.15 227.67 206.15 229.36 207.45 229.36 207.45 227.67 209.14 227.67 209.14 226.37"/><path class="d" d="M320.37,194.51v55.08c0,2.83-1.87,5.66-5.61,7.83-7.49,4.32-19.65,4.32-27.13,0-3.75-2.17-5.63-5-5.63-7.83V194.51Z"/><path class="e" d="M320.37,192.2v55.07c0,2.84-1.87,5.67-5.61,7.83-7.49,4.33-19.65,4.33-27.13,0-3.75-2.16-5.63-5-5.63-7.83V192.2Z"/><path class="d" d="M320.37,192.2v9.44c0,2.83-1.87,5.66-5.61,7.83-7.49,4.32-19.65,4.32-27.13,0-3.75-2.17-5.63-5-5.63-7.83V192.2Z"/><ellipse class="e" cx="301.19" cy="192.2" rx="19.19" ry="11.08"/><path class="d" d="M312.68,198.84c-6.35,3.66-16.63,3.66-23,0s-6.35-9.6,0-13.26,16.62-3.66,23,0S319,195.17,312.68,198.84Z"/><path class="d" d="M317.05,213.59v34.18a15.61,15.61,0,0,1-2.29,1.59A24.28,24.28,0,0,1,307.4,252V217.83a24,24,0,0,0,7.36-2.64A15.67,15.67,0,0,0,317.05,213.59Z"/><path class="d" d="M302.6,218.38v34.18c-5.37.24-10.88-.83-15-3.2-3.75-2.17-5.63-5-5.63-7.83V207.35c0,2.84,1.88,5.67,5.63,7.84A28.29,28.29,0,0,0,302.6,218.38Z"/><path class="e" d="M287.63,218.3a1.17,1.17,0,0,0,.27.15V232.8a1.17,1.17,0,0,1-.27-.15,15.52,15.52,0,0,1-2.61-1.87V216.43A15.52,15.52,0,0,0,287.63,218.3Z"/><path class="e" d="M298.53,221.42v26.31a28.66,28.66,0,0,1-7.76-1.65V219.79A28.63,28.63,0,0,0,298.53,221.42Z"/><path class="f" d="M305.68,189.89v2.21a2.21,2.21,0,0,1-1.31,1.84,7.05,7.05,0,0,1-6.36,0,2.24,2.24,0,0,1-1.31-1.84v-2.21Z"/><path class="e" d="M304.37,191.73a7.05,7.05,0,0,1-6.36,0c-1.75-1-1.75-2.67,0-3.67a7.08,7.08,0,0,1,6.36,0C306.13,189.07,306.12,190.72,304.37,191.73Z"/><polygon class="e" points="303.53 207.06 301.84 207.06 301.84 205.37 300.54 205.37 300.54 207.06 298.85 207.06 298.85 208.36 300.54 208.36 300.54 210.05 301.84 210.05 301.84 208.36 303.53 208.36 303.53 207.06"/><path class="d" d="M320.32,132.36v55.08c0,2.83-1.87,5.66-5.61,7.83-7.49,4.32-19.65,4.32-27.13,0-3.75-2.17-5.63-5-5.63-7.83V132.36Z"/><path class="e" d="M320.32,130.05v55.07c0,2.84-1.87,5.66-5.61,7.83-7.49,4.33-19.65,4.33-27.13,0-3.75-2.17-5.63-5-5.63-7.83V130.05Z"/><path class="d" d="M320.32,130.05v9.44c0,2.83-1.87,5.66-5.61,7.83-7.49,4.32-19.65,4.32-27.13,0-3.75-2.17-5.63-5-5.63-7.83v-9.44Z"/><ellipse class="e" cx="301.14" cy="130.05" rx="19.19" ry="11.08"/><path class="d" d="M312.63,136.69c-6.35,3.66-16.63,3.66-23,0s-6.35-9.6,0-13.26,16.62-3.67,23,0S319,133,312.63,136.69Z"/><path class="d" d="M317,151.44v34.18a15.61,15.61,0,0,1-2.29,1.59,24.28,24.28,0,0,1-7.36,2.65V155.68a24,24,0,0,0,7.36-2.64A15.67,15.67,0,0,0,317,151.44Z"/><path class="d" d="M302.54,156.23v34.18a28.18,28.18,0,0,1-15-3.2c-3.75-2.17-5.63-5-5.63-7.83V145.2c0,2.84,1.88,5.67,5.63,7.84A28.27,28.27,0,0,0,302.54,156.23Z"/><path class="e" d="M287.58,156.15a1.17,1.17,0,0,0,.27.15v14.35a1.17,1.17,0,0,1-.27-.15,15.52,15.52,0,0,1-2.61-1.87V154.28A15.52,15.52,0,0,0,287.58,156.15Z"/><path class="e" d="M298.48,159.27v26.31a28.66,28.66,0,0,1-7.76-1.65V157.64A28.63,28.63,0,0,0,298.48,159.27Z"/><path class="f" d="M305.63,127.74V130a2.21,2.21,0,0,1-1.31,1.84,7.05,7.05,0,0,1-6.36,0,2.22,2.22,0,0,1-1.31-1.84v-2.21Z"/><path class="e" d="M304.32,129.58a7.05,7.05,0,0,1-6.36,0c-1.75-1-1.75-2.67,0-3.67a7.05,7.05,0,0,1,6.36,0C306.08,126.92,306.07,128.57,304.32,129.58Z"/><polygon class="e" points="303.48 144.91 301.79 144.91 301.79 143.22 300.49 143.22 300.49 144.91 298.8 144.91 298.8 146.21 300.49 146.21 300.49 147.9 301.79 147.9 301.79 146.21 303.48 146.21 303.48 144.91"/><path class="d" d="M297.85,282.14l-55.06-1.4c-2.83-.07-5.61-2-7.68-5.81-4.13-7.6-3.82-19.76.69-27.13,2.26-3.69,5.13-5.49,8-5.42l55.06,1.41Z"/><path class="e" d="M300.16,282.2l-55.05-1.4c-2.84-.08-5.62-2-7.69-5.81-4.13-7.61-3.82-19.76.69-27.13,2.27-3.69,5.14-5.49,8-5.42l55.06,1.41Z"/><path class="d" d="M300.16,282.2l-9.43-.24c-2.84-.07-5.62-2-7.69-5.81-4.13-7.6-3.82-19.75.69-27.12,2.27-3.69,5.14-5.5,8-5.43l9.43.25Z"/><ellipse class="e" cx="300.65" cy="263.03" rx="19.19" ry="11.08" transform="translate(30.04 556.86) rotate(-88.54)"/><path class="d" d="M293.72,274.34c-3.5-6.44-3.23-16.72.59-23s9.76-6.09,13.25.34,3.24,16.72-.58,23S297.22,280.77,293.72,274.34Z"/><path class="d" d="M278.86,278.33l-34.16-.87a14.91,14.91,0,0,1-1.54-2.33,24.61,24.61,0,0,1-2.46-7.43l34.17.88a23.84,23.84,0,0,0,2.46,7.42A15.1,15.1,0,0,0,278.86,278.33Z"/><path class="d" d="M274.44,263.76l-34.17-.87A28.26,28.26,0,0,1,243.85,248c2.27-3.69,5.14-5.5,8-5.42l34.16.87c-2.84-.07-5.71,1.73-8,5.42A28.26,28.26,0,0,0,274.44,263.76Z"/><path class="e" d="M274.9,248.8a2.34,2.34,0,0,0-.15.27l-14.35-.37.15-.26a16.19,16.19,0,0,1,1.94-2.57l14.35.37A15.67,15.67,0,0,0,274.9,248.8Z"/><path class="e" d="M271.51,259.62l-26.3-.68a28.38,28.38,0,0,1,1.84-7.7l26.29.67A28,28,0,0,0,271.51,259.62Z"/><path class="f" d="M302.85,267.58l-2.22-.06a2.23,2.23,0,0,1-1.8-1.36,7.06,7.06,0,0,1,.16-6.36,2.23,2.23,0,0,1,1.87-1.26l2.22,0Z"/><path class="e" d="M301,266.22a7.06,7.06,0,0,1,.16-6.36c1.06-1.73,2.71-1.69,3.67.09a7.06,7.06,0,0,1-.16,6.36C303.65,268,302,268,301,266.22Z"/><polygon class="e" points="285.74 264.98 285.78 263.29 287.46 263.34 287.5 262.04 285.81 261.99 285.86 260.31 284.56 260.28 284.51 261.96 282.83 261.92 282.79 263.22 284.48 263.26 284.44 264.95 285.74 264.98"/></svg>